# 3ds Max Wavefront OBJ Exporter v0.97b - (c)2007 guruware
# File Created: 10.04.2014 00:39:02

mtllib Camera_01_Baja.mtl

#
# object Camara_01_Baja
#

v  3.5570 0.0000 0.0000
v  2.5152 0.0000 -2.5151
v  2.5152 120.0000 -2.5151
v  3.5570 120.0000 0.0000
v  0.0000 0.0000 -3.5570
v  0.0000 120.0000 -3.5570
v  -2.5152 0.0000 -2.5151
v  -2.5152 120.0000 -2.5151
v  -3.5570 0.0000 0.0000
v  -3.5570 120.0000 0.0000
v  -2.5152 0.0000 2.5152
v  -2.5152 120.0000 2.5152
v  0.0000 0.0000 3.5570
v  0.0000 120.0000 3.5570
v  2.5152 0.0000 2.5152
v  2.5152 120.0000 2.5152
v  0.0000 120.0000 0.0000
v  3.8643 107.9665 0.0000
v  2.7325 107.9665 -2.7324
v  2.7325 110.2530 -2.7324
v  3.8643 110.2530 0.0000
v  -0.0000 107.9665 -3.8643
v  -0.0000 110.2530 -3.8643
v  -2.7325 107.9665 -2.7324
v  -2.7325 110.2530 -2.7324
v  -2.7324 107.9665 2.7325
v  -0.0000 107.9665 3.8643
v  -0.0000 110.2530 3.8643
v  -2.7324 110.2530 2.7325
v  2.7325 107.9665 2.7325
v  2.7325 110.2530 2.7325
v  3.2148 107.9665 0.0000
v  2.2732 107.9665 -2.2732
v  0.0000 107.9665 -3.2148
v  -2.2732 107.9665 -2.2732
v  -3.2148 107.9665 0.0000
v  -3.8643 107.9665 0.0000
v  -2.2732 107.9665 2.2732
v  0.0000 107.9665 3.2148
v  2.2732 107.9665 2.2732
v  2.2732 110.2530 -2.2732
v  3.2148 110.2530 0.0000
v  2.2732 110.2530 2.2732
v  0.0000 110.2530 3.2148
v  -2.2732 110.2530 2.2732
v  -3.2148 110.2530 0.0000
v  -3.8643 110.2530 0.0000
v  -2.2732 110.2530 -2.2732
v  0.0000 110.2530 -3.2148
v  -5.5859 107.9665 -2.7324
v  -5.5859 110.2530 -2.7324
v  -5.5859 110.2530 2.7325
v  -5.5859 107.9665 2.7325
v  -5.5959 107.9665 0.0000
v  -5.5959 110.2530 0.0000
v  -21.0218 100.7286 -5.0000
v  -24.4975 110.2780 -5.0000
v  -10.1734 115.4915 -5.0000
v  -6.6977 105.9422 -5.0000
v  -21.0218 100.7286 5.0000
v  -6.6977 105.9422 5.0000
v  -10.1734 115.4915 5.0000
v  -24.4975 110.2780 5.0000
v  -22.7596 105.5033 2.5406
v  -23.3740 107.1914 1.7965
v  -28.1487 105.4536 1.7965
v  -27.5343 103.7655 2.5406
v  -23.6285 107.8907 0.0000
v  -28.4032 106.1528 0.0000
v  -23.3740 107.1914 -1.7964
v  -28.1487 105.4536 -1.7964
v  -22.7596 105.5033 -2.5405
v  -27.5343 103.7655 -2.5406
v  -22.1452 103.8152 -1.7964
v  -26.9199 102.0774 -1.7964
v  -21.8907 103.1160 0.0000
v  -26.6654 101.3781 0.0000
v  -22.1452 103.8152 1.7965
v  -26.9199 102.0774 1.7965
v  -27.5343 103.7655 0.0000
v  -15.7515 106.4422 5.0000
v  -15.7515 111.5233 5.0000
v  -6.8595 111.5233 5.0000
v  -6.8595 106.4422 5.0000
v  -15.7515 106.4422 7.7000
v  -6.8595 106.4422 7.7000
v  -6.8595 111.5233 7.7000
v  -15.7515 111.5233 7.7000
v  -4.3190 106.4422 7.7000
v  -4.3190 111.5233 7.7000
v  -4.3190 106.4422 5.0000
v  -4.3190 111.5233 5.0000
v  -6.8595 111.5233 -5.0000
v  -6.8595 106.4422 -5.0000
v  -4.3190 106.4422 -5.0000
v  -4.3190 111.5233 -5.0000
v  -6.8595 106.4422 -7.7000
v  -4.3190 106.4422 -7.7000
v  -4.3190 111.5233 -7.7000
v  -6.8595 111.5233 -7.7000
v  -15.7515 111.5233 -5.0000
v  -15.7515 106.4422 -5.0000
v  -15.7515 106.4422 -7.7000
v  -15.7515 111.5233 -7.7000
# 104 vertices

vn 0.9239 0.0000 -0.3827
vn 0.3827 0.0000 -0.9239
vn -0.3827 0.0000 -0.9239
vn -0.9239 0.0000 -0.3827
vn -0.9239 -0.0000 0.3827
vn -0.3827 -0.0000 0.9239
vn 0.3827 -0.0000 0.9239
vn 0.9239 -0.0000 0.3827
vn 0.0000 1.0000 0.0000
vn -0.0000 1.0000 -0.0000
vn 0.0000 1.0000 -0.0000
vn -0.3827 0.0000 0.9239
vn 0.3827 0.0000 0.9239
vn 0.0000 -1.0000 -0.0000
vn -0.0000 -1.0000 -0.0000
vn -0.0000 1.0000 0.0000
vn 0.0000 0.0000 -1.0000
vn -0.0000 -0.0000 1.0000
vn -0.0000 0.0000 -1.0000
vn 0.0000 -0.0000 1.0000
vn 0.3420 -0.9397 -0.0000
vn 0.9397 0.3420 0.0000
vn -0.3420 0.9397 0.0000
vn -0.9397 -0.3420 0.0000
vn -0.1309 0.3596 0.9239
vn -0.3160 0.8682 0.3827
vn -0.3160 0.8682 -0.3827
vn -0.1309 0.3596 -0.9239
vn 0.1309 -0.3596 -0.9239
vn 0.3160 -0.8682 -0.3827
vn 0.3160 -0.8682 0.3827
vn 0.1309 -0.3596 0.9239
vn -0.9397 -0.3420 -0.0000
vn -1.0000 0.0000 -0.0000
vn 1.0000 0.0000 -0.0000
# 35 vertex normals

vt 0.9263 0.7938 0.0000
vt 0.9138 0.7938 0.0000
vt 0.9138 0.2413 0.0000
vt 0.9263 0.2413 0.0000
vt 0.9013 0.7938 0.0000
vt 0.9013 0.2413 0.0000
vt 0.8887 0.7938 0.0000
vt 0.8887 0.2413 0.0000
vt 0.8762 0.7938 0.0000
vt 0.8762 0.2413 0.0000
vt 0.8636 0.7938 0.0000
vt 0.8636 0.2413 0.0000
vt 0.8511 0.7938 0.0000
vt 0.8511 0.2413 0.0000
vt 0.8386 0.7938 0.0000
vt 0.8386 0.2413 0.0000
vt 0.8260 0.7938 0.0000
vt 0.8260 0.2413 0.0000
vt 0.9757 0.6565 0.0000
vt 0.9756 0.6691 0.0000
vt 0.9666 0.6778 0.0000
vt 0.9605 0.6626 0.0000
vt 0.9669 0.6476 0.0000
vt 0.9544 0.6475 0.0000
vt 0.9453 0.6688 0.0000
vt 0.9541 0.6777 0.0000
vt 0.9454 0.6562 0.0000
vt 0.4280 0.5172 0.0000
vt 0.4280 0.5847 0.0000
vt 0.3728 0.5847 0.0000
vt 0.3728 0.5172 0.0000
vt 0.4276 0.6524 0.0000
vt 0.3732 0.6524 0.0000
vt 0.4287 0.7227 0.0000
vt 0.3721 0.7227 0.0000
vt 0.4287 0.3117 0.0000
vt 0.4277 0.3819 0.0000
vt 0.3732 0.3819 0.0000
vt 0.3721 0.3117 0.0000
vt 0.4280 0.4497 0.0000
vt 0.3728 0.4497 0.0000
vt 0.4425 0.5172 0.0000
vt 0.4424 0.5847 0.0000
vt 0.4418 0.6517 0.0000
vt 0.4421 0.7137 0.0000
vt 0.4952 0.7373 0.0000
vt 0.4946 0.7526 0.0000
vt 0.4952 0.2971 0.0000
vt 0.4421 0.3207 0.0000
vt 0.4946 0.2818 0.0000
vt 0.4418 0.3827 0.0000
vt 0.4424 0.4497 0.0000
vt 0.3584 0.5847 0.0000
vt 0.3583 0.5172 0.0000
vt 0.3584 0.4497 0.0000
vt 0.3590 0.3827 0.0000
vt 0.3588 0.3207 0.0000
vt 0.3056 0.2971 0.0000
vt 0.3063 0.2818 0.0000
vt 0.3056 0.7373 0.0000
vt 0.3588 0.7136 0.0000
vt 0.3062 0.7526 0.0000
vt 0.3590 0.6517 0.0000
vt 0.4276 0.7918 0.0000
vt 0.3732 0.7918 0.0000
vt 0.3732 0.2426 0.0000
vt 0.4276 0.2426 0.0000
vt 0.4932 0.7941 0.0000
vt 0.4932 0.2403 0.0000
vt 0.3076 0.2403 0.0000
vt 0.3076 0.7941 0.0000
vt 0.5380 0.6305 0.0000
vt 0.5380 0.4483 0.0000
vt 0.8114 0.4483 0.0000
vt 0.8114 0.6305 0.0000
vt 0.5380 0.8099 0.0000
vt 0.8114 0.8099 0.0000
vt 0.8114 0.9922 0.0000
vt 0.5380 0.9922 0.0000
vt 0.9908 0.8099 0.0000
vt 0.9908 0.9922 0.0000
vt 0.5380 0.2689 0.0000
vt 0.8114 0.2689 0.0000
vt 0.3587 0.9922 0.0000
vt 0.3586 0.8099 0.0000
vt 0.5064 0.2237 0.0000
vt 0.4263 0.2237 0.0000
vt 0.4263 0.0144 0.0000
vt 0.5064 0.0144 0.0000
vt 0.3462 0.2237 0.0000
vt 0.3462 0.0144 0.0000
vt 0.9870 0.2237 0.0000
vt 0.9069 0.2237 0.0000
vt 0.9069 0.0144 0.0000
vt 0.9870 0.0144 0.0000
vt 0.8268 0.2237 0.0000
vt 0.8268 0.0144 0.0000
vt 0.7467 0.2237 0.0000
vt 0.7467 0.0144 0.0000
vt 0.6666 0.2237 0.0000
vt 0.6666 0.0144 0.0000
vt 0.5865 0.2237 0.0000
vt 0.5865 0.0144 0.0000
vt 0.1536 0.1467 0.0000
vt 0.1534 0.2766 0.0000
vt 0.0616 0.2385 0.0000
vt 0.0236 0.1466 0.0000
vt 0.2454 0.2387 0.0000
vt 0.2835 0.1468 0.0000
vt 0.0618 0.0547 0.0000
vt 0.1537 0.0168 0.0000
vt 0.2455 0.0549 0.0000
vt 0.1456 0.3219 0.0000
vt 0.2123 0.3219 0.0000
vt 0.2123 0.4387 0.0000
vt 0.1456 0.4387 0.0000
vt 0.0111 0.9888 0.0000
vt 0.0111 0.8720 0.0000
vt 0.0779 0.8720 0.0000
vt 0.0779 0.9888 0.0000
vt 0.1133 0.6217 0.0000
vt 0.1133 0.7385 0.0000
vt 0.0778 0.7385 0.0000
vt 0.0778 0.6217 0.0000
vt 0.1133 0.8720 0.0000
vt 0.1133 0.9888 0.0000
vt 0.1133 0.5550 0.0000
vt 0.0778 0.5550 0.0000
vt 0.0111 0.8386 0.0000
vt 0.0779 0.8386 0.0000
vt 0.1133 0.7719 0.0000
vt 0.0778 0.7719 0.0000
vt 0.1133 0.8386 0.0000
vt 0.2123 0.5700 0.0000
vt 0.1456 0.5700 0.0000
vt 0.2447 0.7385 0.0000
vt 0.2447 0.7719 0.0000
vt 0.2447 0.8386 0.0000
vt 0.2447 0.8720 0.0000
vt 0.2801 0.7385 0.0000
vt 0.2801 0.7719 0.0000
vt 0.2801 0.8386 0.0000
vt 0.2801 0.8720 0.0000
vt 0.3469 0.8386 0.0000
vt 0.3469 0.8720 0.0000
vt 0.2123 0.6868 0.0000
vt 0.1456 0.6868 0.0000
vt 0.2447 0.6217 0.0000
vt 0.2801 0.6217 0.0000
vt 0.2801 0.9888 0.0000
vt 0.2447 0.9888 0.0000
vt 0.3469 0.9888 0.0000
vt 0.2801 0.5550 0.0000
vt 0.2447 0.5550 0.0000
# 154 texture coords

g Camara_01_Baja
usemtl Material__19
s off
f 1/1/1 2/2/1 3/3/1 4/4/1 
f 2/2/2 5/5/2 6/6/2 3/3/2 
f 5/5/3 7/7/3 8/8/3 6/6/3 
f 7/7/4 9/9/4 10/10/4 8/8/4 
f 9/9/5 11/11/5 12/12/5 10/10/5 
f 11/11/6 13/13/6 14/14/6 12/12/6 
f 13/13/7 15/15/7 16/16/7 14/14/7 
f 15/15/8 1/17/8 4/18/8 16/16/8 
f 14/19/9 16/20/9 4/21/9 17/22/9 
f 12/23/9 14/19/9 17/22/9 10/24/9 
f 6/25/10 17/22/10 4/21/10 3/26/10 
f 17/22/11 6/25/11 8/27/11 10/24/11 
f 18/28/1 19/29/1 20/30/1 21/31/1 
f 19/29/2 22/32/2 23/33/2 20/30/2 
f 22/32/3 24/34/3 25/35/3 23/33/3 
f 26/36/12 27/37/12 28/38/12 29/39/12 
f 27/37/13 30/40/13 31/41/13 28/38/13 
f 30/40/8 18/28/8 21/31/8 31/41/8 
f 32/42/14 33/43/14 19/29/14 18/28/14 
f 33/43/14 34/44/14 22/32/14 19/29/14 
f 34/44/15 35/45/15 24/34/15 22/32/15 
f 35/45/15 36/46/15 37/47/15 24/34/15 
f 36/48/14 38/49/14 26/36/14 37/50/14 
f 38/49/15 39/51/15 27/37/15 26/36/15 
f 39/51/14 40/52/14 30/40/14 27/37/14 
f 40/52/15 32/42/15 18/28/15 30/40/15 
f 41/53/9 42/54/9 21/31/9 20/30/9 
f 42/54/9 43/55/9 31/41/9 21/31/9 
f 43/55/9 44/56/9 28/38/9 31/41/9 
f 44/56/16 45/57/16 29/39/16 28/38/16 
f 45/57/16 46/58/16 47/59/16 29/39/16 
f 46/60/9 48/61/9 25/35/9 47/62/9 
f 48/61/9 49/63/9 23/33/9 25/35/9 
f 49/63/9 41/53/9 20/30/9 23/33/9 
f 25/35/17 24/34/17 50/64/17 51/65/17 
f 26/36/18 29/39/18 52/66/18 53/67/18 
f 54/68/14 50/64/14 24/34/14 37/47/14 
f 37/50/14 26/36/14 53/67/14 54/69/14 
f 55/70/16 52/66/16 29/39/16 47/59/16 
f 47/62/9 25/35/9 51/65/9 55/71/9 
usemtl Material__20
f 56/72/19 57/73/19 58/74/19 59/75/19 
usemtl Material__19
f 60/76/20 61/77/20 62/78/20 63/79/20 
usemtl Material__23
f 56/72/21 59/75/21 61/77/21 60/76/21 
usemtl Material__22
f 59/80/22 58/81/22 62/78/22 61/77/22 
usemtl Material__24
f 58/74/23 57/73/23 63/82/23 62/83/23 
usemtl Material__21
f 57/84/24 56/85/24 60/76/24 63/79/24 
f 64/86/25 65/87/25 66/88/25 67/89/25 
f 65/87/26 68/90/26 69/91/26 66/88/26 
f 68/92/27 70/93/27 71/94/27 69/95/27 
f 70/93/28 72/96/28 73/97/28 71/94/28 
f 72/96/29 74/98/29 75/99/29 73/97/29 
f 74/98/30 76/100/30 77/101/30 75/99/30 
f 76/100/31 78/102/31 79/103/31 77/101/31 
f 78/102/32 64/86/32 67/89/32 79/103/32 
usemtl Material__19
f 80/104/24 77/105/24 79/106/24 67/107/24 
f 75/108/33 77/105/33 80/104/33 73/109/33 
f 66/110/33 69/111/33 80/104/33 67/107/33 
f 80/104/24 69/111/24 71/112/24 73/109/24 
usemtl Material__20
f 81/113/17 82/114/17 83/115/17 84/116/17 
usemtl Material__19
f 85/117/20 86/118/20 87/119/20 88/120/20 
usemtl Material__23
f 81/121/14 84/122/14 86/123/14 85/124/14 
usemtl Material__24
f 83/125/9 82/126/9 88/120/9 87/119/9 
usemtl Material__21
f 82/127/34 81/121/34 85/124/34 88/128/34 
usemtl Material__19
f 87/119/20 86/118/20 89/129/20 90/130/20 
f 86/123/14 84/122/14 91/131/14 89/132/14 
f 83/125/9 87/119/9 90/130/9 92/133/9 
f 90/130/35 89/132/35 91/131/35 92/133/35 
f 84/116/34 83/115/34 93/134/34 94/135/34 
f 91/131/14 84/122/14 94/136/14 95/137/14 
f 83/125/9 92/133/9 96/138/9 93/139/9 
f 92/133/35 91/131/35 95/137/35 96/138/35 
f 95/137/14 94/136/14 97/140/14 98/141/14 
f 93/139/9 96/138/9 99/142/9 100/143/9 
f 96/138/35 95/137/35 98/141/35 99/142/35 
f 99/142/17 98/144/17 97/145/17 100/143/17 
f 94/135/18 93/134/18 101/146/18 102/147/18 
f 97/140/14 94/136/14 102/148/14 103/149/14 
f 93/139/9 100/143/9 104/150/9 101/151/9 
f 100/143/17 97/145/17 103/152/17 104/150/17 
f 104/153/34 103/149/34 102/148/34 101/154/34 
# 80 polygons

