# 3ds Max Wavefront OBJ Exporter v0.97b - (c)2007 guruware
# File Created: 06.05.2014 23:51:13

#
# object Camera
#

v  2.7325 7.2379 -2.7324
v  2.7325 9.5244 -2.7324
v  3.8643 9.5244 -0.0000
v  3.8643 7.2379 -0.0000
v  0.0000 7.2379 -3.8643
v  0.0000 9.5244 -3.8643
v  -2.7325 7.2379 -2.7324
v  -2.7325 9.5244 -2.7324
v  0.0000 7.2379 3.8643
v  0.0000 9.5244 3.8643
v  -2.7324 9.5244 2.7325
v  -2.7324 7.2379 2.7325
v  2.7325 7.2379 2.7325
v  2.7325 9.5244 2.7325
v  2.2732 7.2379 -2.2732
v  3.2148 7.2379 -0.0000
v  0.0000 7.2379 -3.2148
v  -2.2732 7.2379 -2.2732
v  -3.2148 7.2379 -0.0000
v  -3.8643 7.2379 -0.0000
v  -2.2732 7.2379 2.2732
v  0.0000 7.2379 3.2148
v  2.2732 7.2379 2.2732
v  3.2148 9.5244 -0.0000
v  2.2732 9.5244 -2.2732
v  2.2732 9.5244 2.2732
v  0.0000 9.5244 3.2148
v  -2.2732 9.5244 2.2732
v  -3.2148 9.5244 -0.0000
v  -3.8643 9.5244 -0.0000
v  -2.2732 9.5244 -2.2732
v  0.0000 9.5244 -3.2148
v  -5.5859 7.2379 -2.7324
v  -5.5859 9.5244 -2.7324
v  -5.5859 9.5244 2.7325
v  -5.5859 7.2379 2.7325
v  -5.5959 7.2379 -0.0000
v  -5.5959 9.5244 -0.0000
v  -24.4975 9.5494 -5.0000
v  -10.1734 14.7629 -5.0000
v  -6.6977 5.2136 -5.0000
v  -21.0218 0.0000 -5.0000
v  -6.6977 5.2136 5.0000
v  -10.1734 14.7629 5.0000
v  -24.4975 9.5494 5.0000
v  -21.0218 0.0000 5.0000
v  -23.3740 6.4628 1.7965
v  -28.1487 4.7250 1.7965
v  -27.5343 3.0369 2.5406
v  -22.7596 4.7747 2.5406
v  -23.6285 7.1621 -0.0000
v  -28.4032 5.4242 -0.0000
v  -23.3740 6.4628 -1.7964
v  -28.1487 4.7250 -1.7964
v  -22.7596 4.7747 -2.5405
v  -27.5343 3.0369 -2.5406
v  -22.1452 3.0866 -1.7964
v  -26.9199 1.3488 -1.7964
v  -21.8907 2.3874 -0.0000
v  -26.6654 0.6495 -0.0000
v  -22.1452 3.0866 1.7965
v  -26.9199 1.3488 1.7965
v  -27.5343 3.0369 -0.0000
v  -15.7515 10.7947 5.0000
v  -6.8595 10.7947 5.0000
v  -6.8595 5.7136 5.0000
v  -15.7515 5.7136 5.0000
v  -6.8595 5.7136 7.7000
v  -6.8595 10.7947 7.7000
v  -15.7515 10.7947 7.7000
v  -15.7515 5.7136 7.7000
v  -4.3190 5.7136 7.7000
v  -4.3190 10.7947 7.7000
v  -4.3190 5.7136 5.0000
v  -4.3190 10.7947 5.0000
v  -6.8595 10.7947 -5.0000
v  -6.8595 5.7136 -5.0000
v  -4.3190 5.7136 -5.0000
v  -4.3190 10.7947 -5.0000
v  -6.8595 5.7136 -7.7000
v  -4.3190 5.7136 -7.7000
v  -4.3190 10.7947 -7.7000
v  -6.8595 10.7947 -7.7000
v  -15.7515 10.7947 -5.0000
v  -15.7515 5.7136 -5.0000
v  -15.7515 5.7136 -7.7000
v  -15.7515 10.7947 -7.7000
# 87 vertices

vn 0.9239 0.0000 -0.3827
vn 0.3827 0.0000 -0.9239
vn -0.3827 0.0000 -0.9239
vn -0.3827 0.0000 0.9239
vn 0.3827 0.0000 0.9239
vn 0.9239 0.0000 0.3827
vn 0.0000 -1.0000 -0.0000
vn 0.0000 1.0000 -0.0000
vn 0.0000 0.0000 -1.0000
vn 0.0000 0.0000 1.0000
vn 0.3420 -0.9397 -0.0000
vn 0.9397 0.3420 -0.0000
vn -0.3420 0.9397 -0.0000
vn -0.9397 -0.3420 -0.0000
vn -0.1309 0.3596 0.9239
vn -0.3160 0.8682 0.3827
vn -0.3160 0.8682 -0.3827
vn -0.3160 0.8681 -0.3827
vn -0.1309 0.3597 -0.9239
vn -0.1309 0.3596 -0.9239
vn 0.1309 -0.3596 -0.9239
vn 0.3160 -0.8681 -0.3827
vn 0.3160 -0.8682 -0.3827
vn 0.3160 -0.8682 0.3827
vn 0.1309 -0.3596 0.9239
vn -0.9397 -0.3420 0.0000
vn -1.0000 0.0000 -0.0000
vn 1.0000 0.0000 -0.0000
# 28 vertex normals

vt 0.4280 0.5847 0.0000
vt 0.3728 0.5847 0.0000
vt 0.3728 0.5172 0.0000
vt 0.4280 0.5172 0.0000
vt 0.4276 0.6524 0.0000
vt 0.3732 0.6524 0.0000
vt 0.4287 0.7227 0.0000
vt 0.3721 0.7227 0.0000
vt 0.4277 0.3819 0.0000
vt 0.3732 0.3819 0.0000
vt 0.3721 0.3117 0.0000
vt 0.4287 0.3117 0.0000
vt 0.4280 0.4497 0.0000
vt 0.3728 0.4497 0.0000
vt 0.4424 0.5847 0.0000
vt 0.4425 0.5172 0.0000
vt 0.4418 0.6517 0.0000
vt 0.4421 0.7137 0.0000
vt 0.4952 0.7373 0.0000
vt 0.4946 0.7526 0.0000
vt 0.4421 0.3207 0.0000
vt 0.4946 0.2818 0.0000
vt 0.4952 0.2971 0.0000
vt 0.4418 0.3827 0.0000
vt 0.4424 0.4497 0.0000
vt 0.3583 0.5172 0.0000
vt 0.3584 0.5847 0.0000
vt 0.3584 0.4497 0.0000
vt 0.3590 0.3827 0.0000
vt 0.3588 0.3207 0.0000
vt 0.3056 0.2971 0.0000
vt 0.3063 0.2818 0.0000
vt 0.3588 0.7136 0.0000
vt 0.3062 0.7526 0.0000
vt 0.3056 0.7373 0.0000
vt 0.3590 0.6517 0.0000
vt 0.4276 0.7918 0.0000
vt 0.3732 0.7918 0.0000
vt 0.3732 0.2426 0.0000
vt 0.4276 0.2426 0.0000
vt 0.4932 0.7941 0.0000
vt 0.4932 0.2403 0.0000
vt 0.3076 0.2403 0.0000
vt 0.3076 0.7941 0.0000
vt 0.5380 0.4483 0.0000
vt 0.8114 0.4483 0.0000
vt 0.8114 0.6305 0.0000
vt 0.5380 0.6305 0.0000
vt 0.8114 0.8099 0.0000
vt 0.8114 0.9922 0.0000
vt 0.5380 0.9922 0.0000
vt 0.5380 0.8099 0.0000
vt 0.9908 0.9922 0.0000
vt 0.9908 0.8099 0.0000
vt 0.5380 0.2689 0.0000
vt 0.8114 0.2689 0.0000
vt 0.3586 0.8099 0.0000
vt 0.3587 0.9922 0.0000
vt 0.4263 0.2237 0.0000
vt 0.4263 0.0144 0.0000
vt 0.5064 0.0144 0.0000
vt 0.5064 0.2237 0.0000
vt 0.3462 0.2237 0.0000
vt 0.3462 0.0144 0.0000
vt 0.9069 0.2237 0.0000
vt 0.9069 0.0144 0.0000
vt 0.9870 0.0144 0.0000
vt 0.9870 0.2237 0.0000
vt 0.8268 0.2237 0.0000
vt 0.8268 0.0144 0.0000
vt 0.7467 0.2237 0.0000
vt 0.7467 0.0144 0.0000
vt 0.6666 0.2237 0.0000
vt 0.6666 0.0144 0.0000
vt 0.5865 0.2237 0.0000
vt 0.5865 0.0144 0.0000
vt 0.1536 0.1467 0.0000
vt 0.1534 0.2766 0.0000
vt 0.0616 0.2385 0.0000
vt 0.0236 0.1466 0.0000
vt 0.2454 0.2387 0.0000
vt 0.2835 0.1468 0.0000
vt 0.0618 0.0547 0.0000
vt 0.1537 0.0168 0.0000
vt 0.2455 0.0549 0.0000
vt 0.2123 0.3219 0.0000
vt 0.2123 0.4387 0.0000
vt 0.1456 0.4387 0.0000
vt 0.1456 0.3219 0.0000
vt 0.0111 0.8720 0.0000
vt 0.0779 0.8720 0.0000
vt 0.0779 0.9888 0.0000
vt 0.0111 0.9888 0.0000
vt 0.1133 0.7385 0.0000
vt 0.0778 0.7385 0.0000
vt 0.0778 0.6217 0.0000
vt 0.1133 0.6217 0.0000
vt 0.1133 0.9888 0.0000
vt 0.1133 0.8720 0.0000
vt 0.0778 0.5550 0.0000
vt 0.1133 0.5550 0.0000
vt 0.0111 0.8386 0.0000
vt 0.0779 0.8386 0.0000
vt 0.1133 0.7719 0.0000
vt 0.0778 0.7719 0.0000
vt 0.1133 0.8386 0.0000
vt 0.2123 0.5700 0.0000
vt 0.1456 0.5700 0.0000
vt 0.2447 0.7385 0.0000
vt 0.2447 0.7719 0.0000
vt 0.2447 0.8386 0.0000
vt 0.2447 0.8720 0.0000
vt 0.2801 0.7385 0.0000
vt 0.2801 0.7719 0.0000
vt 0.2801 0.8386 0.0000
vt 0.2801 0.8720 0.0000
vt 0.3469 0.8386 0.0000
vt 0.3469 0.8720 0.0000
vt 0.2123 0.6868 0.0000
vt 0.1456 0.6868 0.0000
vt 0.2447 0.6217 0.0000
vt 0.2801 0.6217 0.0000
vt 0.2801 0.9888 0.0000
vt 0.2447 0.9888 0.0000
vt 0.3469 0.9888 0.0000
vt 0.2447 0.5550 0.0000
vt 0.2801 0.5550 0.0000
# 127 texture coords

g Camera
s off
f 1/1/1 2/2/1 3/3/1 
f 3/3/1 4/4/1 1/1/1 
f 5/5/2 6/6/2 2/2/2 
f 2/2/2 1/1/2 5/5/2 
f 7/7/3 8/8/3 6/6/3 
f 6/6/3 5/5/3 7/7/3 
f 9/9/4 10/10/4 11/11/4 
f 11/11/4 12/12/4 9/9/4 
f 13/13/5 14/14/5 10/10/5 
f 10/10/5 9/9/5 13/13/5 
f 4/4/6 3/3/6 14/14/6 
f 14/14/6 13/13/6 4/4/6 
f 15/15/7 1/1/7 4/4/7 
f 4/4/7 16/16/7 15/15/7 
f 17/17/7 5/5/7 1/1/7 
f 1/1/7 15/15/7 17/17/7 
f 18/18/7 7/7/7 5/5/7 
f 5/5/7 17/17/7 18/18/7 
f 19/19/7 20/20/7 7/7/7 
f 7/7/7 18/18/7 19/19/7 
f 21/21/7 12/12/7 20/22/7 
f 20/22/7 19/23/7 21/21/7 
f 22/24/7 9/9/7 12/12/7 
f 12/12/7 21/21/7 22/24/7 
f 23/25/7 13/13/7 9/9/7 
f 9/9/7 22/24/7 23/25/7 
f 16/16/7 4/4/7 13/13/7 
f 13/13/7 23/25/7 16/16/7 
f 24/26/8 3/3/8 2/2/8 
f 2/2/8 25/27/8 24/26/8 
f 26/28/8 14/14/8 3/3/8 
f 3/3/8 24/26/8 26/28/8 
f 27/29/8 10/10/8 14/14/8 
f 14/14/8 26/28/8 27/29/8 
f 28/30/8 11/11/8 10/10/8 
f 10/10/8 27/29/8 28/30/8 
f 29/31/8 30/32/8 11/11/8 
f 11/11/8 28/30/8 29/31/8 
f 31/33/8 8/8/8 30/34/8 
f 30/34/8 29/35/8 31/33/8 
f 32/36/8 6/6/8 8/8/8 
f 8/8/8 31/33/8 32/36/8 
f 25/27/8 2/2/8 6/6/8 
f 6/6/8 32/36/8 25/27/8 
f 7/7/9 33/37/9 34/38/9 
f 34/38/9 8/8/9 7/7/9 
f 11/11/10 35/39/10 36/40/10 
f 36/40/10 12/12/10 11/11/10 
f 33/37/7 7/7/7 20/20/7 
f 20/20/7 37/41/7 33/37/7 
f 20/22/7 12/12/7 36/40/7 
f 36/40/7 37/42/7 20/22/7 
f 35/39/8 11/11/8 30/32/8 
f 30/32/8 38/43/8 35/39/8 
f 30/34/8 8/8/8 34/38/8 
f 34/38/8 38/44/8 30/34/8 
f 39/45/9 40/46/9 41/47/9 
f 41/47/9 42/48/9 39/45/9 
f 43/49/10 44/50/10 45/51/10 
f 45/51/10 46/52/10 43/49/10 
f 41/47/11 43/49/11 46/52/11 
f 46/52/11 42/48/11 41/47/11 
f 40/53/12 44/50/12 43/49/12 
f 43/49/12 41/54/12 40/53/12 
f 39/45/13 45/55/13 44/56/13 
f 44/56/13 40/46/13 39/45/13 
f 42/57/14 46/52/14 45/51/14 
f 45/51/14 39/58/14 42/57/14 
f 47/59/15 48/60/15 49/61/15 
f 49/61/15 50/62/15 47/59/15 
f 51/63/16 52/64/16 48/60/16 
f 48/60/16 47/59/16 51/63/16 
f 53/65/17 54/66/17 52/67/17 
f 52/67/18 51/68/18 53/65/18 
f 55/69/19 56/70/19 54/66/19 
f 54/66/20 53/65/20 55/69/20 
f 57/71/21 58/72/21 56/70/21 
f 56/70/21 55/69/21 57/71/21 
f 59/73/22 60/74/22 58/72/22 
f 58/72/23 57/71/23 59/73/23 
f 61/75/24 62/76/24 60/74/24 
f 60/74/24 59/73/24 61/75/24 
f 50/62/25 49/61/25 62/76/25 
f 62/76/25 61/75/25 50/62/25 
f 63/77/26 60/78/26 62/79/26 
f 62/79/14 49/80/14 63/77/14 
f 58/81/14 60/78/14 63/77/14 
f 63/77/14 56/82/14 58/81/14 
f 48/83/26 52/84/26 63/77/26 
f 63/77/14 49/80/14 48/83/14 
f 63/77/14 52/84/14 54/85/14 
f 54/85/14 56/82/14 63/77/14 
f 64/86/9 65/87/9 66/88/9 
f 66/88/9 67/89/9 64/86/9 
f 68/90/10 69/91/10 70/92/10 
f 70/92/10 71/93/10 68/90/10 
f 66/94/7 68/95/7 71/96/7 
f 71/96/7 67/97/7 66/94/7 
f 64/98/8 70/92/8 69/91/8 
f 69/91/8 65/99/8 64/98/8 
f 67/97/27 71/96/27 70/100/27 
f 70/100/27 64/101/27 67/97/27 
f 68/90/10 72/102/10 73/103/10 
f 73/103/10 69/91/10 68/90/10 
f 66/94/7 74/104/7 72/105/7 
f 72/105/7 68/95/7 66/94/7 
f 69/91/8 73/103/8 75/106/8 
f 75/106/8 65/99/8 69/91/8 
f 72/105/28 74/104/28 75/106/28 
f 75/106/28 73/103/28 72/105/28 
f 65/87/27 76/107/27 77/108/27 
f 77/108/27 66/88/27 65/87/27 
f 66/94/7 77/109/7 78/110/7 
f 78/110/7 74/104/7 66/94/7 
f 75/106/8 79/111/8 76/112/8 
f 76/112/8 65/99/8 75/106/8 
f 74/104/28 78/110/28 79/111/28 
f 79/111/28 75/106/28 74/104/28 
f 77/109/7 80/113/7 81/114/7 
f 81/114/7 78/110/7 77/109/7 
f 79/111/8 82/115/8 83/116/8 
f 83/116/8 76/112/8 79/111/8 
f 78/110/28 81/114/28 82/115/28 
f 82/115/28 79/111/28 78/110/28 
f 81/117/9 80/118/9 83/116/9 
f 83/116/9 82/115/9 81/117/9 
f 76/107/10 84/119/10 85/120/10 
f 85/120/10 77/108/10 76/107/10 
f 77/109/7 85/121/7 86/122/7 
f 86/122/7 80/113/7 77/109/7 
f 83/116/8 87/123/8 84/124/8 
f 84/124/8 76/112/8 83/116/8 
f 80/118/9 86/125/9 87/123/9 
f 87/123/9 83/116/9 80/118/9 
f 86/122/27 85/121/27 84/126/27 
f 84/126/27 87/127/27 86/122/27 
# 136 faces

