# 3ds Max Wavefront OBJ Exporter v0.97b - (c)2007 guruware
# File Created: 28.06.2014 23:45:34

#
# object Box052
#

v  -18.1288 0.0000 18.1288
v  18.1288 0.0000 18.1288
v  18.1288 148.5723 18.1288
v  -18.1288 148.5723 18.1288
v  18.1288 0.0000 -18.1288
v  18.1288 148.5723 -18.1288
v  -23.7843 155.3058 23.7044
v  23.7843 155.3058 23.7044
v  23.7843 155.3058 -23.9007
v  -23.7843 155.3058 -23.9007
v  -23.7843 142.3379 23.7044
v  23.7843 142.3379 23.7044
v  25.9549 3.0335 -1.6397
v  34.1043 3.0335 -1.6397
v  34.1043 111.0183 -1.6397
v  27.9798 110.5975 -0.5551
v  24.7486 45.2389 1.4571
v  35.3950 45.2389 1.4571
v  35.3950 60.0678 1.4571
v  24.7486 60.0678 1.4571
v  35.3950 60.0678 -4.4564
v  24.7486 60.0678 -4.4564
v  24.7486 45.2389 -4.4564
v  24.6848 114.6106 0.1183
v  31.0074 107.9653 -0.4239
v  38.8270 114.6106 0.1183
v  31.1104 129.0596 0.1183
v  24.6848 114.6106 -4.3252
v  31.7559 107.5395 -4.3252
v  31.1104 129.0596 -4.3252
v  -18.1288 148.5723 -18.1288
v  -18.1288 0.0000 -18.1288
v  23.7843 142.3379 -23.9736
v  -23.7843 142.3379 -23.9736
v  38.8270 114.6106 -4.3252
v  35.3950 45.2389 -4.4564
v  25.9549 3.0335 -2.4056
v  27.9798 110.0395 -1.3211
v  34.1043 111.0183 -2.4056
v  34.1043 3.0335 -2.4056
v  44.5014 3.0335 -1.6397
v  52.6507 3.0335 -1.6397
v  52.6507 111.0183 -1.6397
v  46.5263 110.5975 -0.5551
v  43.2951 45.2389 1.4571
v  53.9415 45.2389 1.4571
v  53.9415 60.0678 1.4571
v  43.2951 60.0678 1.4571
v  53.9415 60.0678 -4.4564
v  43.2951 60.0678 -4.4564
v  43.2951 45.2389 -4.4564
v  53.9415 45.2389 -4.4564
v  44.5014 3.0335 -2.4056
v  46.5263 110.0395 -1.3211
v  52.6507 111.0183 -2.4056
v  52.6507 3.0335 -2.4056
v  43.9291 105.8965 1.4571
v  54.5755 105.8965 1.4571
v  54.5755 115.1672 1.4571
v  43.9291 115.1672 1.4571
v  54.5755 115.1672 -4.4564
v  43.9291 115.1672 -4.4564
v  43.9291 105.8965 -4.4564
v  54.5755 105.8965 -4.4564
v  71.6726 110.6684 -1.6397
v  63.5233 110.6684 -1.6397
v  63.5233 2.6836 -1.6397
v  69.6477 3.1044 -0.5551
v  61.3045 45.2389 1.4571
v  71.9509 45.2389 1.4571
v  71.9509 60.0678 1.4571
v  61.3045 60.0678 1.4571
v  71.9509 60.0678 -4.4564
v  61.3045 60.0678 -4.4564
v  61.3045 45.2389 -4.4564
v  61.2407 114.6106 0.1183
v  67.5632 107.9653 -0.4239
v  75.3828 114.6106 0.1183
v  67.6663 129.0596 0.1183
v  61.2407 114.6106 -4.3252
v  68.3118 107.5395 -4.3252
v  67.6663 129.0596 -4.3252
v  75.3828 114.6106 -4.3252
v  71.9509 45.2389 -4.4564
v  71.6726 110.6684 -2.4056
v  69.6477 3.6625 -1.3211
v  63.5233 2.6836 -2.4056
v  63.5233 110.6684 -2.4056
v  80.9875 3.0335 -1.6397
v  89.1369 3.0335 -1.6397
v  89.1369 111.0183 -1.6397
v  83.0124 110.5975 -0.5551
v  79.7812 45.2389 1.4571
v  90.4276 45.2389 1.4571
v  90.4276 60.0678 1.4571
v  79.7812 60.0678 1.4571
v  90.4276 60.0678 -4.4564
v  79.7812 60.0678 -4.4564
v  79.7812 45.2389 -4.4564
v  90.4276 45.2389 -4.4564
v  80.9875 3.0335 -2.4056
v  83.0124 110.0395 -1.3211
v  89.1369 111.0183 -2.4056
v  89.1369 3.0335 -2.4056
v  80.4152 105.8965 1.4571
v  91.0616 105.8965 1.4571
v  91.0616 115.1672 1.4571
v  80.4152 115.1672 1.4571
v  91.0616 115.1672 -4.4564
v  80.4152 115.1672 -4.4564
v  80.4152 105.8965 -4.4564
v  91.0616 105.8965 -4.4564
v  107.6914 110.6684 -1.6397
v  99.5420 110.6684 -1.6397
v  99.5421 2.6836 -1.6397
v  105.6665 3.1044 -0.5551
v  97.3233 45.2389 1.4571
v  107.9697 45.2389 1.4571
v  107.9697 60.0678 1.4571
v  97.3233 60.0678 1.4571
v  107.9697 60.0678 -4.4564
v  97.3233 60.0678 -4.4564
v  97.3233 45.2389 -4.4564
v  97.2595 114.6106 0.1183
v  103.5820 107.9653 -0.4239
v  111.4016 114.6106 0.1183
v  103.6851 129.0596 0.1183
v  97.2595 114.6106 -4.3252
v  104.3306 107.5395 -4.3252
v  103.6851 129.0596 -4.3252
v  111.4016 114.6106 -4.3252
v  107.9697 45.2389 -4.4564
v  107.6914 110.6684 -2.4056
v  105.6665 3.6625 -1.3211
v  99.5421 2.6836 -2.4056
v  99.5420 110.6684 -2.4056
v  117.4736 3.0335 -1.6397
v  125.6230 3.0335 -1.6397
v  125.6230 111.0183 -1.6397
v  119.4985 110.5975 -0.5551
v  116.2673 45.2389 1.4571
v  126.9137 45.2389 1.4571
v  126.9137 60.0678 1.4571
v  116.2673 60.0678 1.4571
v  126.9137 60.0678 -4.4564
v  116.2673 60.0678 -4.4564
v  116.2673 45.2389 -4.4564
v  126.9137 45.2389 -4.4564
v  117.4736 3.0335 -2.4056
v  119.4985 110.0395 -1.3211
v  125.6230 111.0183 -2.4056
v  125.6230 3.0335 -2.4056
v  116.9013 105.8965 1.4571
v  127.5477 105.8965 1.4571
v  127.5477 115.1672 1.4571
v  116.9013 115.1672 1.4571
v  127.5477 115.1672 -4.4564
v  116.9013 115.1672 -4.4564
v  116.9013 105.8965 -4.4564
v  127.5477 105.8965 -4.4564
v  134.5484 3.0335 -1.6397
v  142.6977 3.0335 -1.6397
v  142.6977 111.0183 -1.6397
v  136.5733 110.5975 -0.5551
v  133.3421 45.2389 1.4571
v  143.9885 45.2389 1.4571
v  143.9885 60.0678 1.4571
v  133.3421 60.0678 1.4571
v  143.9885 60.0678 -4.4564
v  133.3421 60.0678 -4.4564
v  133.3421 45.2389 -4.4564
v  133.2783 114.6106 0.1183
v  139.6008 107.9653 -0.4239
v  147.4204 114.6106 0.1183
v  139.7039 129.0596 0.1183
v  133.2783 114.6106 -4.3252
v  140.3494 107.5395 -4.3252
v  139.7039 129.0596 -4.3252
v  147.4204 114.6106 -4.3252
v  143.9885 45.2389 -4.4564
v  134.5484 3.0335 -2.4056
v  136.5733 110.0395 -1.3211
v  142.6977 111.0183 -2.4056
v  142.6977 3.0335 -2.4056
v  163.1215 110.6684 -1.6397
v  154.9722 110.6684 -1.6397
v  154.9722 2.6836 -1.6397
v  161.0966 3.1044 -0.5551
v  152.7534 45.2389 1.4571
v  163.3998 45.2389 1.4571
v  163.3998 60.0678 1.4571
v  152.7534 60.0678 1.4571
v  163.3998 60.0678 -4.4564
v  152.7534 60.0678 -4.4564
v  152.7534 45.2389 -4.4564
v  163.3998 45.2389 -4.4564
v  163.1215 110.6684 -2.4056
v  161.0966 3.6625 -1.3211
v  154.9722 2.6836 -2.4056
v  154.9722 110.6684 -2.4056
v  153.3874 105.8965 1.4571
v  164.0338 105.8965 1.4571
v  164.0338 115.1672 1.4571
v  153.3874 115.1672 1.4571
v  164.0338 115.1672 -4.4564
v  153.3874 115.1672 -4.4564
v  153.3874 105.8965 -4.4564
v  164.0338 105.8965 -4.4564
v  170.5672 3.0335 -1.6397
v  178.7165 3.0335 -1.6397
v  178.7165 111.0183 -1.6397
v  172.5921 110.5975 -0.5551
v  169.3609 45.2389 1.4571
v  180.0073 45.2389 1.4571
v  180.0073 60.0678 1.4571
v  169.3609 60.0678 1.4571
v  180.0073 60.0678 -4.4564
v  169.3609 60.0678 -4.4564
v  169.3609 45.2389 -4.4564
v  169.2971 114.6106 0.1183
v  175.6196 107.9653 -0.4239
v  183.4392 114.6106 0.1183
v  175.7227 129.0596 0.1183
v  169.2971 114.6106 -4.3252
v  176.3682 107.5395 -4.3252
v  175.7227 129.0596 -4.3252
v  183.4392 114.6106 -4.3252
v  180.0073 45.2389 -4.4564
v  170.5672 3.0335 -2.4056
v  172.5921 110.0395 -1.3211
v  178.7165 111.0183 -2.4056
v  178.7165 3.0335 -2.4056
v  199.6077 110.6684 -1.6397
v  191.4583 110.6684 -1.6397
v  191.4583 2.6836 -1.6397
v  197.5828 3.1044 -0.5551
v  189.2395 45.2389 1.4571
v  199.8859 45.2389 1.4571
v  199.8859 60.0678 1.4571
v  189.2395 60.0678 1.4571
v  199.8859 60.0678 -4.4564
v  189.2395 60.0678 -4.4564
v  189.2395 45.2389 -4.4564
v  199.8859 45.2389 -4.4564
v  199.6077 110.6684 -2.4056
v  197.5828 3.6625 -1.3211
v  191.4583 2.6836 -2.4056
v  191.4583 110.6684 -2.4056
v  189.8736 105.8965 1.4571
v  200.5199 105.8965 1.4571
v  200.5199 115.1672 1.4571
v  189.8736 115.1672 1.4571
v  200.5199 115.1672 -4.4564
v  189.8736 115.1672 -4.4564
v  189.8736 105.8965 -4.4564
v  200.5199 105.8965 -4.4564
v  207.3271 3.0335 -1.6397
v  215.4764 3.0335 -1.6397
v  215.4764 111.0183 -1.6397
v  209.3520 110.5975 -0.5551
v  206.1208 45.2389 1.4571
v  216.7672 45.2389 1.4571
v  216.7672 60.0678 1.4571
v  206.1208 60.0678 1.4571
v  216.7672 60.0678 -4.4564
v  206.1208 60.0678 -4.4564
v  206.1208 45.2389 -4.4564
v  206.0570 114.6106 0.1183
v  212.3795 107.9653 -0.4239
v  220.1991 114.6106 0.1183
v  212.4826 129.0596 0.1183
v  206.0570 114.6106 -4.3252
v  213.1281 107.5395 -4.3252
v  212.4826 129.0596 -4.3252
v  220.1991 114.6106 -4.3252
v  216.7672 45.2389 -4.4564
v  207.3271 3.0335 -2.4056
v  209.3520 110.0395 -1.3211
v  215.4764 111.0183 -2.4056
v  215.4764 3.0335 -2.4056
v  4.3159 96.4125 1.2948
v  4.3159 88.2631 1.2948
v  221.8907 88.2631 1.2948
v  221.0428 94.3876 2.3794
v  4.5970 96.2730 0.5289
v  220.1996 94.2481 1.6134
v  222.1718 88.1236 0.5289
v  4.5970 88.1236 0.5289
v  4.3159 23.9755 1.2948
v  4.3159 15.8261 1.2948
v  221.8907 15.8261 1.2948
v  221.0428 21.9506 2.3794
v  4.5970 23.8359 0.5289
v  220.1996 21.8111 1.6134
v  222.1718 15.6866 0.5289
v  4.5970 15.6866 0.5289
# 296 vertices

vn 0.0000 0.0000 1.0000
vn 1.0000 0.0000 -0.0000
vn 0.0000 1.0000 0.0000
vn 0.0065 -0.0005 1.0000
vn 0.0000 -0.0000 1.0000
vn 0.1666 -0.0126 0.9859
vn 0.1752 -0.0132 0.9844
vn -0.0000 -0.0000 1.0000
vn 0.0000 1.0000 -0.0000
vn -1.0000 0.0000 -0.0000
vn -0.0000 -0.0336 0.9994
vn -0.0000 -0.0813 0.9967
vn -0.0000 -0.0322 0.9995
vn -0.7200 -0.6938 -0.0150
vn 0.0782 -0.9893 0.1230
vn -0.1024 -0.9926 0.0651
vn -0.7245 -0.6893 -0.0000
vn -0.0360 0.9994 0.0000
vn -0.9137 0.4063 -0.0000
vn -0.0360 0.9994 -0.0000
vn 0.0000 0.0000 -1.0000
vn 0.0000 0.0056 -1.0000
vn 0.6609 -0.7488 0.0492
vn 0.6476 -0.7620 0.0000
vn 0.8821 0.4711 0.0000
vn 0.0000 -1.0000 -0.0000
vn -0.0000 0.0000 -1.0000
vn -0.0065 0.0005 -1.0000
vn -0.1764 0.0133 -0.9842
vn -0.1672 0.0126 -0.9858
vn -0.0065 0.0005 1.0000
vn -0.0000 0.0000 1.0000
vn -0.1666 0.0126 0.9859
vn -0.1752 0.0132 0.9844
vn 0.0065 -0.0005 -1.0000
vn 0.1764 -0.0133 -0.9842
vn 0.1672 -0.0126 -0.9858
vn 0.0000 -0.0000 -1.0000
vn -0.0001 -0.0032 1.0000
vn -0.0064 -0.1707 0.9853
vn -0.0066 -0.1752 0.9845
vn 0.0001 0.0032 -1.0000
vn 0.0066 0.1764 -0.9843
vn 0.0064 0.1713 -0.9852
# 44 vertex normals

vt 0.0327 0.0256 0.0000
vt 0.2248 0.0256 0.0000
vt 0.2248 0.9801 0.0000
vt 0.0327 0.9801 0.0000
vt 0.4169 0.0256 0.0000
vt 0.4169 0.9801 0.0000
vt 0.4335 0.4799 0.0000
vt 0.9197 0.4799 0.0000
vt 0.9197 0.9661 0.0000
vt 0.4335 0.9661 0.0000
vt 0.4335 0.3473 0.0000
vt 0.9197 0.3473 0.0000
vt 0.9374 0.0168 0.0000
vt 0.9880 0.0168 0.0000
vt 0.9880 0.9741 0.0000
vt 0.9374 0.9741 0.0000
vt 0.7730 0.0451 0.0000
vt 0.9047 0.0451 0.0000
vt 0.9047 0.2286 0.0000
vt 0.7730 0.2286 0.0000
vt 0.9047 0.3018 0.0000
vt 0.7730 0.3018 0.0000
vt 0.6998 0.2286 0.0000
vt 0.6998 0.0451 0.0000
vt 0.5202 0.1247 0.0000
vt 0.5850 0.0528 0.0000
vt 0.6581 0.1284 0.0000
vt 0.5706 0.2727 0.0000
vt 0.4832 0.1180 0.0000
vt 0.5449 0.0255 0.0000
vt 0.5233 0.2838 0.0000
# 31 texture coords

g Box052
s 8
f 1/1/1 2/2/1 3/3/1 4/4/1 
s 16
f 2/2/2 5/5/2 6/6/2 3/3/2 
s off
f 7/7/3 8/8/3 9/9/3 10/10/3 
f 11/11/1 12/12/1 8/8/1 7/7/1 
s 1
f 13/13/4 14/14/5 15/15/6 16/16/7 
s 4
f 17/17/5 18/18/5 19/19/5 20/20/8 
s 32
f 21/21/9 22/22/9 20/20/9 19/19/9 
s 64
f 22/23/10 23/24/10 17/17/10 20/20/10 
s 4
f 24/25/11 25/26/12 26/27/13 27/28/8 
s 8
f 28/29/14 29/30/15 25/26/16 24/25/17 
s 64
f 30/31/18 28/29/19 24/25/19 27/28/20 
s 16
f 1/2/10 4/3/10 31/6/10 32/5/10 
s 8
f 32/1/21 31/4/21 6/3/21 5/2/21 
s off
f 12/11/2 33/12/2 9/8/2 8/7/2 
f 11/11/10 7/7/10 10/8/10 34/12/10 
f 34/11/22 10/7/22 9/8/22 33/12/22 
s 8
f 35/29/23 26/25/24 25/26/16 29/30/15 
s 64
f 30/31/18 27/28/20 26/25/25 35/29/25 
s 4
f 28/25/21 30/28/21 35/27/21 29/26/21 
s 32
f 36/21/26 18/19/26 17/20/26 23/22/26 
s 64
f 21/23/2 19/20/2 18/17/2 36/24/2 
s 4
f 23/17/27 22/20/27 21/19/27 36/18/21 
s 1
f 37/13/28 38/16/29 39/15/30 40/14/21 
f 41/13/4 42/14/5 43/15/6 44/16/7 
s 4
f 45/17/5 46/18/5 47/19/5 48/20/5 
s 32
f 49/21/9 50/22/9 48/20/9 47/19/9 
s 64
f 50/23/10 51/24/10 45/17/10 48/20/10 
s 32
f 52/21/26 46/19/26 45/20/26 51/22/26 
s 64
f 49/23/2 47/20/2 46/17/2 52/24/2 
s 4
f 51/17/27 50/20/27 49/19/27 52/18/21 
s 1
f 53/13/28 54/16/29 55/15/30 56/14/21 
s 4
f 57/17/5 58/18/5 59/19/5 60/20/5 
s 32
f 61/21/9 62/22/9 60/20/9 59/19/9 
s 64
f 62/23/10 63/24/10 57/17/10 60/20/10 
s 32
f 64/21/26 58/19/26 57/20/26 63/22/26 
s 64
f 61/23/2 59/20/2 58/17/2 64/24/2 
s 4
f 63/17/27 62/20/27 61/19/27 64/18/21 
s 1
f 65/13/31 66/14/32 67/15/33 68/16/34 
s 4
f 69/17/5 70/18/5 71/19/5 72/20/5 
s 32
f 73/21/9 74/22/9 72/20/9 71/19/9 
s 64
f 74/23/10 75/24/10 69/17/10 72/20/10 
s 4
f 76/25/11 77/26/12 78/27/13 79/28/8 
s 8
f 80/29/14 81/30/15 77/26/16 76/25/17 
s 64
f 82/31/18 80/29/19 76/25/19 79/28/20 
s 8
f 83/29/23 78/25/24 77/26/16 81/30/15 
s 64
f 82/31/18 79/28/20 78/25/25 83/29/25 
s 4
f 80/25/21 82/28/21 83/27/21 81/26/21 
s 32
f 84/21/26 70/19/26 69/20/26 75/22/26 
s 64
f 73/23/2 71/20/2 70/17/2 84/24/2 
s 4
f 75/17/27 74/20/27 73/19/27 84/18/21 
s 1
f 85/13/35 86/16/36 87/15/37 88/14/38 
f 89/13/4 90/14/5 91/15/6 92/16/7 
s 4
f 93/17/5 94/18/5 95/19/5 96/20/5 
s 32
f 97/21/9 98/22/9 96/20/9 95/19/9 
s 64
f 98/23/10 99/24/10 93/17/10 96/20/10 
s 32
f 100/21/26 94/19/26 93/20/26 99/22/26 
s 64
f 97/23/2 95/20/2 94/17/2 100/24/2 
s 4
f 99/17/27 98/20/27 97/19/27 100/18/21 
s 1
f 101/13/28 102/16/29 103/15/30 104/14/21 
s 4
f 105/17/5 106/18/5 107/19/5 108/20/5 
s 32
f 109/21/9 110/22/9 108/20/9 107/19/9 
s 64
f 110/23/10 111/24/10 105/17/10 108/20/10 
s 32
f 112/21/26 106/19/26 105/20/26 111/22/26 
s 64
f 109/23/2 107/20/2 106/17/2 112/24/2 
s 4
f 111/17/27 110/20/27 109/19/27 112/18/21 
s 1
f 113/13/31 114/14/1 115/15/33 116/16/34 
s 4
f 117/17/5 118/18/5 119/19/5 120/20/5 
s 32
f 121/21/9 122/22/9 120/20/9 119/19/9 
s 64
f 122/23/10 123/24/10 117/17/10 120/20/10 
s 4
f 124/25/11 125/26/12 126/27/13 127/28/8 
s 8
f 128/29/14 129/30/15 125/26/16 124/25/17 
s 64
f 130/31/18 128/29/19 124/25/19 127/28/20 
s 8
f 131/29/23 126/25/24 125/26/16 129/30/15 
s 64
f 130/31/18 127/28/20 126/25/25 131/29/25 
s 4
f 128/25/21 130/28/21 131/27/21 129/26/21 
s 32
f 132/21/26 118/19/26 117/20/26 123/22/26 
s 64
f 121/23/2 119/20/2 118/17/2 132/24/2 
s 4
f 123/17/27 122/20/27 121/19/27 132/18/21 
s 1
f 133/13/35 134/16/36 135/15/37 136/14/38 
f 137/13/4 138/14/5 139/15/6 140/16/7 
s 4
f 141/17/5 142/18/5 143/19/5 144/20/5 
s 32
f 145/21/9 146/22/9 144/20/9 143/19/9 
s 64
f 146/23/10 147/24/10 141/17/10 144/20/10 
s 32
f 148/21/26 142/19/26 141/20/26 147/22/26 
s 64
f 145/23/2 143/20/2 142/17/2 148/24/2 
s 4
f 147/17/27 146/20/27 145/19/27 148/18/21 
s 1
f 149/13/28 150/16/29 151/15/30 152/14/21 
s 4
f 153/17/5 154/18/5 155/19/5 156/20/5 
s 32
f 157/21/9 158/22/9 156/20/9 155/19/9 
s 64
f 158/23/10 159/24/10 153/17/10 156/20/10 
s 32
f 160/21/26 154/19/26 153/20/26 159/22/26 
s 64
f 157/23/2 155/20/2 154/17/2 160/24/2 
s 4
f 159/17/27 158/20/27 157/19/27 160/18/21 
s 1
f 161/13/4 162/14/5 163/15/6 164/16/7 
s 4
f 165/17/5 166/18/5 167/19/5 168/20/5 
s 32
f 169/21/9 170/22/9 168/20/9 167/19/9 
s 64
f 170/23/10 171/24/10 165/17/10 168/20/10 
s 4
f 172/25/11 173/26/12 174/27/13 175/28/8 
s 8
f 176/29/14 177/30/15 173/26/16 172/25/17 
s 64
f 178/31/18 176/29/19 172/25/19 175/28/20 
s 8
f 179/29/23 174/25/24 173/26/16 177/30/15 
s 64
f 178/31/18 175/28/20 174/25/25 179/29/25 
s 4
f 176/25/21 178/28/21 179/27/21 177/26/21 
s 32
f 180/21/26 166/19/26 165/20/26 171/22/26 
s 64
f 169/23/2 167/20/2 166/17/2 180/24/2 
s 4
f 171/17/27 170/20/27 169/19/27 180/18/21 
s 1
f 181/13/28 182/16/29 183/15/30 184/14/21 
f 185/13/31 186/14/1 187/15/33 188/16/34 
s 4
f 189/17/5 190/18/5 191/19/5 192/20/5 
s 32
f 193/21/9 194/22/9 192/20/9 191/19/9 
s 64
f 194/23/10 195/24/10 189/17/10 192/20/10 
s 32
f 196/21/26 190/19/26 189/20/26 195/22/26 
s 64
f 193/23/2 191/20/2 190/17/2 196/24/2 
s 4
f 195/17/27 194/20/27 193/19/27 196/18/21 
s 1
f 197/13/35 198/16/36 199/15/37 200/14/38 
s 4
f 201/17/5 202/18/5 203/19/5 204/20/5 
s 32
f 205/21/9 206/22/9 204/20/9 203/19/9 
s 64
f 206/23/10 207/24/10 201/17/10 204/20/10 
s 32
f 208/21/26 202/19/26 201/20/26 207/22/26 
s 64
f 205/23/2 203/20/2 202/17/2 208/24/2 
s 4
f 207/17/27 206/20/27 205/19/27 208/18/21 
s 1
f 209/13/4 210/14/5 211/15/6 212/16/7 
s 4
f 213/17/5 214/18/5 215/19/5 216/20/5 
s 32
f 217/21/9 218/22/9 216/20/9 215/19/9 
s 64
f 218/23/10 219/24/10 213/17/10 216/20/10 
s 4
f 220/25/11 221/26/12 222/27/13 223/28/8 
s 8
f 224/29/14 225/30/15 221/26/16 220/25/17 
s 64
f 226/31/18 224/29/19 220/25/19 223/28/20 
s 8
f 227/29/23 222/25/24 221/26/16 225/30/15 
s 64
f 226/31/18 223/28/20 222/25/25 227/29/25 
s 4
f 224/25/21 226/28/21 227/27/21 225/26/21 
s 32
f 228/21/26 214/19/26 213/20/26 219/22/26 
s 64
f 217/23/2 215/20/2 214/17/2 228/24/2 
s 4
f 219/17/27 218/20/27 217/19/27 228/18/21 
s 1
f 229/13/28 230/16/29 231/15/30 232/14/21 
f 233/13/31 234/14/1 235/15/33 236/16/34 
s 4
f 237/17/5 238/18/5 239/19/5 240/20/5 
s 32
f 241/21/9 242/22/9 240/20/9 239/19/9 
s 64
f 242/23/10 243/24/10 237/17/10 240/20/10 
s 32
f 244/21/26 238/19/26 237/20/26 243/22/26 
s 64
f 241/23/2 239/20/2 238/17/2 244/24/2 
s 4
f 243/17/27 242/20/27 241/19/27 244/18/21 
s 1
f 245/13/35 246/16/36 247/15/37 248/14/38 
s 4
f 249/17/5 250/18/5 251/19/5 252/20/5 
s 32
f 253/21/9 254/22/9 252/20/9 251/19/9 
s 64
f 254/23/10 255/24/10 249/17/10 252/20/10 
s 32
f 256/21/26 250/19/26 249/20/26 255/22/26 
s 64
f 253/23/2 251/20/2 250/17/2 256/24/2 
s 4
f 255/17/27 254/20/27 253/19/27 256/18/21 
s 1
f 257/13/4 258/14/5 259/15/6 260/16/7 
s 4
f 261/17/5 262/18/5 263/19/5 264/20/5 
s 32
f 265/21/9 266/22/9 264/20/9 263/19/9 
s 64
f 266/23/10 267/24/10 261/17/10 264/20/10 
s 4
f 268/25/11 269/26/12 270/27/13 271/28/8 
s 8
f 272/29/14 273/30/15 269/26/16 268/25/17 
s 64
f 274/31/18 272/29/19 268/25/19 271/28/20 
s 8
f 275/29/23 270/25/24 269/26/16 273/30/15 
s 64
f 274/31/18 271/28/20 270/25/25 275/29/25 
s 4
f 272/25/21 274/28/21 275/27/21 273/26/21 
s 32
f 276/21/26 262/19/26 261/20/26 267/22/26 
s 64
f 265/23/2 263/20/2 262/17/2 276/24/2 
s 4
f 267/17/27 266/20/27 265/19/27 276/18/21 
s 1
f 277/13/28 278/16/29 279/15/30 280/14/21 
f 281/13/39 282/14/32 283/15/40 284/16/41 
f 285/13/42 286/16/43 287/15/44 288/14/21 
f 289/13/39 290/14/32 291/15/40 292/16/41 
f 293/13/42 294/16/43 295/15/44 296/14/21 
# 167 polygons

