# 3ds Max Wavefront OBJ Exporter v0.97b - (c)2007 guruware
# File Created: 06.05.2014 23:59:53

#
# object fountain
#

v  50.4019 57.3980 10.7820
v  29.7000 43.1025 8.9708
v  22.5396 43.1025 -13.7393
v  38.4586 57.3980 -27.0970
v  46.0667 57.3980 10.4028
v  35.1250 57.3980 -24.2998
v  27.1009 43.1025 8.7434
v  20.5408 43.1025 -12.0623
v  32.0625 57.3980 46.0117
v  18.7047 43.1026 30.0925
v  29.2652 57.3980 42.6780
v  17.0276 43.1026 28.0940
v  -5.8166 57.3980 57.9549
v  -4.0054 43.1026 37.2530
v  -5.4373 57.3980 53.6198
v  -3.7781 43.1026 34.6539
v  -41.0463 57.3980 39.6156
v  -25.1273 43.1026 26.2577
v  -37.7127 57.3980 36.8182
v  -23.1286 43.1026 24.5806
v  -52.9896 57.3980 1.7365
v  -32.2877 43.1025 3.5477
v  -48.6544 57.3980 2.1158
v  -29.6886 43.1025 3.7751
v  -34.6501 57.3980 -33.4932
v  -21.2924 43.1025 -17.5741
v  -31.8529 57.3980 -30.1596
v  -19.6153 43.1025 -15.5755
v  3.2290 57.3980 -45.4364
v  1.4178 43.1025 -24.7347
v  2.8497 57.3980 -41.1013
v  1.1904 43.1025 -22.1355
v  35.8939 0.7601 9.5126
v  27.3025 0.7601 -17.7359
v  22.7013 0.7601 34.8554
v  -4.5474 0.7602 43.4469
v  -29.8902 0.7601 30.2543
v  -38.4816 0.7601 3.0056
v  -25.2890 0.7601 -22.3372
v  1.9597 0.7601 -30.9287
v  36.1609 99.5677 9.7418
v  16.4736 85.2723 8.0194
v  12.4786 85.2722 -4.6511
v  27.6175 99.5677 -17.3542
v  33.0598 99.5677 9.4705
v  25.2329 99.5677 -15.3532
v  15.0235 85.2723 7.8925
v  11.3635 85.2722 -3.7154
v  23.0422 99.5677 34.9427
v  10.3391 85.2723 19.8038
v  21.0413 99.5677 32.5582
v  9.4034 85.2723 18.6887
v  -4.0539 99.5677 43.4861
v  -2.3315 85.2723 23.7988
v  -3.7826 99.5677 40.3851
v  -2.2047 85.2723 22.3487
v  -29.2549 99.5677 30.3673
v  -14.1159 85.2723 17.6644
v  -26.8701 99.5677 28.3664
v  -13.0008 85.2723 16.7286
v  -37.7982 99.5677 3.2713
v  -18.1109 85.2722 4.9937
v  -34.6971 99.5677 3.5426
v  -16.6609 85.2722 5.1206
v  -24.6796 99.5677 -21.9296
v  -11.9764 85.2722 -6.7906
v  -22.6785 99.5677 -19.5449
v  -11.0407 85.2722 -5.6755
v  2.4166 99.5677 -30.4729
v  0.6942 85.2722 -10.7857
v  2.1453 99.5677 -27.3718
v  0.5674 85.2722 -9.3356
v  143.8246 29.8444 35.7467
v  143.8246 0.0623 35.7467
v  112.2258 0.0623 -88.3491
v  112.2258 29.8444 -88.3491
v  131.7255 29.8444 33.3009
v  102.7699 29.8444 -80.4146
v  131.7255 0.0623 33.3009
v  102.7699 0.0623 -80.4146
v  66.5040 29.8444 137.8242
v  66.5040 0.0623 137.8242
v  60.8726 29.8444 126.8397
v  60.8726 0.0623 126.8397
v  -61.5118 29.8444 141.0167
v  -61.5118 0.0623 141.0167
v  -56.4350 29.8444 129.7653
v  -56.4350 0.0623 129.7653
v  -143.8245 29.8444 42.9203
v  -143.8245 0.0623 42.9203
v  -131.8624 29.8444 39.8744
v  -131.8624 0.0623 39.8744
v  -118.4509 29.8444 -82.5962
v  -118.4509 0.0623 -82.5962
v  -108.6112 29.8444 -75.1430
v  -108.6112 0.0623 -75.1430
v  -4.4977 29.8444 -141.0167
v  -4.4977 0.0623 -141.0167
v  -4.1900 29.8444 -128.6767
v  -4.1900 0.0623 -128.6767
v  -108.6113 0.0623 -75.1431
v  -4.1900 0.0623 -128.6768
v  60.8726 0.0623 126.8398
# 103 vertices

vn 0.5646 -0.8239 0.0494
vn 0.4342 -0.8239 -0.3643
vn -0.2412 0.9702 -0.0211
vn 0.0000 1.0000 0.0000
vn -0.1855 0.9702 0.1557
vn -0.5982 0.7997 -0.0523
vn -0.4600 0.7997 0.3860
vn 0.3643 -0.8239 0.4342
vn -0.1557 0.9702 -0.1855
vn -0.3860 0.7997 -0.4600
vn -0.0494 -0.8239 0.5646
vn 0.0211 0.9702 -0.2412
vn 0.0523 0.7997 -0.5982
vn -0.4342 -0.8239 0.3643
vn 0.1855 0.9702 -0.1557
vn 0.4600 0.7997 -0.3860
vn -0.5646 -0.8239 -0.0494
vn 0.2412 0.9702 0.0211
vn 0.5982 0.7997 0.0523
vn -0.3643 -0.8239 -0.4342
vn 0.1557 0.9702 0.1855
vn 0.3860 0.7997 0.4600
vn 0.0494 -0.8239 -0.5646
vn -0.0211 0.9702 0.2412
vn -0.0523 0.7997 0.5982
vn 0.9856 0.1453 0.0862
vn 0.7579 0.1453 -0.6360
vn 0.6360 0.1453 0.7579
vn -0.0862 0.1453 0.9856
vn -0.7579 0.1453 0.6360
vn -0.9856 0.1453 -0.0862
vn -0.6360 0.1453 -0.7579
vn 0.0862 0.1453 -0.9856
vn 0.5839 -0.8102 0.0511
vn 0.4490 -0.8102 -0.3767
vn -0.2504 0.9679 -0.0219
vn -0.1925 0.9679 0.1616
vn -0.3954 0.9179 -0.0346
vn -0.3040 0.9179 0.2551
vn 0.3767 -0.8102 0.4490
vn -0.1616 0.9679 -0.1925
vn -0.2551 0.9179 -0.3040
vn -0.0511 -0.8102 0.5839
vn 0.0219 0.9679 -0.2504
vn 0.0346 0.9179 -0.3954
vn -0.4490 -0.8102 0.3767
vn 0.1925 0.9679 -0.1616
vn 0.3040 0.9179 -0.2551
vn -0.5839 -0.8102 -0.0511
vn 0.2504 0.9679 0.0219
vn 0.3954 0.9179 0.0346
vn -0.3767 -0.8102 -0.4490
vn 0.1616 0.9679 0.1925
vn 0.2551 0.9179 0.3040
vn 0.0511 -0.8102 -0.5839
vn -0.0219 0.9679 0.2504
vn -0.0346 0.9179 0.3954
vn 0.9660 0.2449 0.0835
vn 0.7399 0.2511 -0.6241
vn 0.7434 0.2511 -0.6199
vn 0.9658 0.2449 0.0857
vn 0.6224 0.2449 0.7434
vn 0.6242 0.2449 0.7419
vn -0.0868 0.2511 0.9641
vn -0.0814 0.2511 0.9645
vn -0.7413 0.2599 0.6188
vn -0.7378 0.2599 0.6230
vn -0.9602 0.2661 -0.0850
vn -0.9604 0.2661 -0.0828
vn -0.6204 0.2661 -0.7378
vn -0.6187 0.2661 -0.7392
vn 0.0817 0.2599 -0.9622
vn 0.0871 0.2599 -0.9617
vn 0.9691 0.0000 -0.2468
vn -0.9691 -0.0000 0.2468
vn 0.7971 -0.0000 0.6038
vn -0.7971 0.0000 -0.6038
vn 0.0249 -0.0000 0.9997
vn -0.0249 0.0000 -0.9997
vn -0.7660 -0.0000 0.6428
vn 0.7660 0.0000 -0.6428
vn -0.9802 0.0000 -0.1981
vn 0.9802 -0.0000 0.1981
vn -0.4562 0.0000 -0.8899
vn 0.4562 -0.0000 0.8899
vn 0.4113 0.0000 -0.9115
vn -0.4113 -0.0000 0.9115
vn 0.0000 -1.0000 -0.0000
vn -0.0000 -1.0000 0.0000
# 89 vertex normals

vt 0.1763 0.3738 0.0000
vt 0.1419 0.3390 0.0000
vt 0.1800 0.2953 0.0000
vt 0.2185 0.3243 0.0000
vt 0.5525 0.1446 0.0000
vt 0.5603 0.1486 0.0000
vt 0.5069 0.2031 0.0000
vt 0.5023 0.1957 0.0000
vt 0.5110 0.1223 0.0000
vt 0.4780 0.1554 0.0000
vt 0.1266 0.4190 0.0000
vt 0.1001 0.3762 0.0000
vt 0.5688 0.0747 0.0000
vt 0.5776 0.0738 0.0000
vt 0.5218 0.0787 0.0000
vt 0.0598 0.4493 0.0000
vt 0.0580 0.4033 0.0000
vt 0.5422 0.0081 0.0000
vt 0.5483 0.0018 0.0000
vt 0.5061 0.0383 0.0000
vt 0.3091 0.0750 0.0000
vt 0.2598 0.0816 0.0000
vt 0.2562 0.0313 0.0000
vt 0.2931 0.0045 0.0000
vt 0.3158 0.0753 0.0000
vt 0.3504 0.0086 0.0000
vt 0.3553 0.0157 0.0000
vt 0.3600 0.0882 0.0000
vt 0.3843 0.0526 0.0000
vt 0.3049 0.1483 0.0000
vt 0.2544 0.1378 0.0000
vt 0.3151 0.1466 0.0000
vt 0.3597 0.1296 0.0000
vt 0.2826 0.2112 0.0000
vt 0.2375 0.1935 0.0000
vt 0.3636 0.1997 0.0000
vt 0.3588 0.2068 0.0000
vt 0.3883 0.1599 0.0000
vt 0.2542 0.2701 0.0000
vt 0.2122 0.2465 0.0000
vt 0.4337 0.2162 0.0000
vt 0.4337 0.2249 0.0000
vt 0.4328 0.1692 0.0000
vt 0.0810 0.2804 0.0000
vt 0.1128 0.2449 0.0000
vt 0.0432 0.3124 0.0000
vt 0.0018 0.3464 0.0000
vt 0.1750 0.0721 0.0000
vt 0.1779 0.0191 0.0000
vt 0.1712 0.1200 0.0000
vt 0.1589 0.1642 0.0000
vt 0.1390 0.2060 0.0000
vt 0.2111 0.4003 0.0000
vt 0.2356 0.4429 0.0000
vt 0.2107 0.4517 0.0000
vt 0.1709 0.4335 0.0000
vt 0.5540 0.2487 0.0000
vt 0.5578 0.2438 0.0000
vt 0.5898 0.2893 0.0000
vt 0.5837 0.2906 0.0000
vt 0.5263 0.2849 0.0000
vt 0.5404 0.3045 0.0000
vt 0.2570 0.3897 0.0000
vt 0.2677 0.4366 0.0000
vt 0.5054 0.2314 0.0000
vt 0.5058 0.2252 0.0000
vt 0.5029 0.2769 0.0000
vt 0.3000 0.3859 0.0000
vt 0.3043 0.4326 0.0000
vt 0.4553 0.2439 0.0000
vt 0.4522 0.2386 0.0000
vt 0.4783 0.2832 0.0000
vt 0.3418 0.3843 0.0000
vt 0.3424 0.4309 0.0000
vt 0.4198 0.2814 0.0000
vt 0.4143 0.2788 0.0000
vt 0.4605 0.3015 0.0000
vt 0.3839 0.3843 0.0000
vt 0.3806 0.4314 0.0000
vt 0.4107 0.3325 0.0000
vt 0.4048 0.3336 0.0000
vt 0.4555 0.3254 0.0000
vt 0.4287 0.3857 0.0000
vt 0.4171 0.4348 0.0000
vt 0.4328 0.3791 0.0000
vt 0.4649 0.3458 0.0000
vt 0.4781 0.4029 0.0000
vt 0.4486 0.4421 0.0000
vt 0.4799 0.3988 0.0000
vt 0.4858 0.3545 0.0000
vt 0.5137 0.4402 0.0000
vt 0.4720 0.4517 0.0000
vt 0.5304 0.3904 0.0000
vt 0.5336 0.3957 0.0000
vt 0.5095 0.3500 0.0000
vt 0.2369 0.5296 0.0000
vt 0.1959 0.5302 0.0000
vt 0.2742 0.5229 0.0000
vt 0.3091 0.5183 0.0000
vt 0.3431 0.5167 0.0000
vt 0.3768 0.5178 0.0000
vt 0.4109 0.5222 0.0000
vt 0.4475 0.5292 0.0000
vt 0.4882 0.5291 0.0000
vt 0.4115 0.1018 0.0000
vt 0.4740 0.0963 0.0000
vt 0.4455 0.1303 0.0000
vt 0.4226 0.1231 0.0000
vt 0.4400 0.0679 0.0000
vt 0.4187 0.0789 0.0000
vt 0.4629 0.0751 0.0000
vt 0.4667 0.1192 0.0000
vt 0.8649 0.5287 0.0000
vt 0.8064 0.5336 0.0000
vt 0.8009 0.2815 0.0000
vt 0.8596 0.2839 0.0000
vt 0.8874 0.5252 0.0000
vt 0.8822 0.2865 0.0000
vt 0.9461 0.5204 0.0000
vt 0.9411 0.2888 0.0000
vt 0.8933 0.7756 0.0000
vt 0.8350 0.7841 0.0000
vt 0.9135 0.7587 0.0000
vt 0.9714 0.7504 0.0000
vt 0.6660 0.2585 0.0000
vt 0.6073 0.2553 0.0000
vt 0.6303 0.0043 0.0000
vt 0.6888 0.0115 0.0000
vt 0.6891 0.2615 0.0000
vt 0.7092 0.0277 0.0000
vt 0.7480 0.2644 0.0000
vt 0.7673 0.0345 0.0000
vt 0.6703 0.5018 0.0000
vt 0.6115 0.5067 0.0000
vt 0.6937 0.4995 0.0000
vt 0.7525 0.4945 0.0000
vt 0.7049 0.7424 0.0000
vt 0.6480 0.7567 0.0000
vt 0.7274 0.7353 0.0000
vt 0.7847 0.7212 0.0000
vt 0.7825 0.9778 0.0000
vt 0.7269 0.9973 0.0000
vt 0.7991 0.9587 0.0000
vt 0.8543 0.9400 0.0000
vt 0.8185 0.0300 0.0000
vt 0.8772 0.0360 0.0000
vt 0.8981 0.0520 0.0000
vt 0.9563 0.0578 0.0000
vt 0.1565 0.7022 0.0000
vt 0.6176 0.6936 0.0000
vt 0.3925 0.9871 0.0000
vt 0.2059 0.9015 0.0000
vt 0.4867 0.5356 0.0000
vt 0.2815 0.5394 0.0000
vt 0.5757 0.8946 0.0000
vt 0.0421 0.8035 0.0000
vt 0.0085 0.7634 0.0000
vt 0.0134 0.7622 0.0000
vt 0.0441 0.7989 0.0000
vt 0.0188 0.7122 0.0000
vt 0.0228 0.7152 0.0000
vt 0.0654 0.6883 0.0000
vt 0.0655 0.6934 0.0000
vt 0.1130 0.7098 0.0000
vt 0.1091 0.7131 0.0000
vt 0.1259 0.7605 0.0000
vt 0.1210 0.7595 0.0000
vt 0.0943 0.8022 0.0000
vt 0.0920 0.7977 0.0000
vt 0.0412 0.9171 0.0000
vt 0.1177 0.8529 0.0000
vt 0.1116 0.9232 0.0000
vt 0.0751 0.9347 0.0000
vt 0.0474 0.8467 0.0000
vt 0.0297 0.8806 0.0000
vt 0.0838 0.8352 0.0000
vt 0.1292 0.8893 0.0000
# 177 texture coords

g fountain
s 1
f 1/1/1 2/2/1 3/3/2 
f 3/3/2 4/4/2 1/1/1 
s 2
f 5/5/3 1/6/4 4/7/4 
f 4/7/4 6/8/5 5/5/3 
f 7/9/6 5/5/3 6/8/5 
f 6/8/5 8/10/7 7/9/6 
s 1
f 9/11/8 10/12/8 2/2/1 
f 2/2/1 1/1/1 9/11/8 
s 2
f 11/13/9 9/14/4 1/6/4 
f 1/6/4 5/5/3 11/13/9 
f 12/15/10 11/13/9 5/5/3 
f 5/5/3 7/9/6 12/15/10 
s 1
f 13/16/11 14/17/11 10/12/8 
f 10/12/8 9/11/8 13/16/11 
s 2
f 15/18/12 13/19/4 9/14/4 
f 9/14/4 11/13/9 15/18/12 
f 16/20/13 15/18/12 11/13/9 
f 11/13/9 12/15/10 16/20/13 
s 1
f 17/21/14 18/22/14 14/23/11 
f 14/23/11 13/24/11 17/21/14 
s 2
f 19/25/15 17/21/4 13/26/4 
f 13/26/4 15/27/12 19/25/15 
f 20/28/16 19/25/15 15/27/12 
f 15/27/12 16/29/13 20/28/16 
s 1
f 21/30/17 22/31/17 18/22/14 
f 18/22/14 17/21/14 21/30/17 
s 2
f 23/32/18 21/30/4 17/21/4 
f 17/21/4 19/25/15 23/32/18 
f 24/33/19 23/32/18 19/25/15 
f 19/25/15 20/28/16 24/33/19 
s 1
f 25/34/20 26/35/20 22/31/17 
f 22/31/17 21/30/17 25/34/20 
s 2
f 27/36/21 25/37/4 21/30/4 
f 21/30/4 23/32/18 27/36/21 
f 28/38/22 27/36/21 23/32/18 
f 23/32/18 24/33/19 28/38/22 
s 1
f 29/39/23 30/40/23 26/35/20 
f 26/35/20 25/34/20 29/39/23 
s 2
f 31/41/24 29/42/4 25/37/4 
f 25/37/4 27/36/21 31/41/24 
f 32/43/25 31/41/24 27/36/21 
f 27/36/21 28/38/22 32/43/25 
s 1
f 4/4/2 3/3/2 30/40/23 
f 30/40/23 29/39/23 4/4/2 
s 2
f 6/8/5 4/7/4 29/42/4 
f 29/42/4 31/41/24 6/8/5 
f 8/10/7 6/8/5 31/41/24 
f 31/41/24 32/43/25 8/10/7 
f 33/44/26 34/45/27 3/3/27 
f 3/3/27 2/2/26 33/44/26 
f 35/46/28 33/44/26 2/2/26 
f 2/2/26 10/12/28 35/46/28 
f 36/47/29 35/46/28 10/12/28 
f 10/12/28 14/17/29 36/47/29 
f 37/48/30 36/49/29 14/23/29 
f 14/23/29 18/22/30 37/48/30 
f 38/50/31 37/48/30 18/22/30 
f 18/22/30 22/31/31 38/50/31 
f 39/51/32 38/50/31 22/31/31 
f 22/31/31 26/35/32 39/51/32 
f 40/52/33 39/51/32 26/35/32 
f 26/35/32 30/40/33 40/52/33 
f 34/45/27 40/52/33 30/40/33 
f 30/40/33 3/3/27 34/45/27 
s 1
f 41/53/34 42/54/34 43/55/35 
f 43/55/35 44/56/35 41/53/34 
s 2
f 45/57/36 41/58/4 44/59/4 
f 44/59/4 46/60/37 45/57/36 
f 47/61/38 45/57/36 46/60/37 
f 46/60/37 48/62/39 47/61/38 
s 1
f 49/63/40 50/64/40 42/54/34 
f 42/54/34 41/53/34 49/63/40 
s 2
f 51/65/41 49/66/4 41/58/4 
f 41/58/4 45/57/36 51/65/41 
f 52/67/42 51/65/41 45/57/36 
f 45/57/36 47/61/38 52/67/42 
s 1
f 53/68/43 54/69/43 50/64/40 
f 50/64/40 49/63/40 53/68/43 
s 2
f 55/70/44 53/71/4 49/66/4 
f 49/66/4 51/65/41 55/70/44 
f 56/72/45 55/70/44 51/65/41 
f 51/65/41 52/67/42 56/72/45 
s 1
f 57/73/46 58/74/46 54/69/43 
f 54/69/43 53/68/43 57/73/46 
s 2
f 59/75/47 57/76/4 53/71/4 
f 53/71/4 55/70/44 59/75/47 
f 60/77/48 59/75/47 55/70/44 
f 55/70/44 56/72/45 60/77/48 
s 1
f 61/78/49 62/79/49 58/74/46 
f 58/74/46 57/73/46 61/78/49 
s 2
f 63/80/50 61/81/4 57/76/4 
f 57/76/4 59/75/47 63/80/50 
f 64/82/51 63/80/50 59/75/47 
f 59/75/47 60/77/48 64/82/51 
s 1
f 65/83/52 66/84/52 62/79/49 
f 62/79/49 61/78/49 65/83/52 
s 2
f 67/85/53 65/83/4 61/81/4 
f 61/81/4 63/80/50 67/85/53 
f 68/86/54 67/85/53 63/80/50 
f 63/80/50 64/82/51 68/86/54 
s 1
f 69/87/55 70/88/55 66/84/52 
f 66/84/52 65/83/52 69/87/55 
s 2
f 71/89/56 69/87/4 65/83/4 
f 65/83/4 67/85/53 71/89/56 
f 72/90/57 71/89/56 67/85/53 
f 67/85/53 68/86/54 72/90/57 
s 1
f 44/91/35 43/92/35 70/88/55 
f 70/88/55 69/87/55 44/91/35 
s 2
f 46/93/37 44/94/4 69/87/4 
f 69/87/4 71/89/56 46/93/37 
f 48/95/39 46/93/37 71/89/56 
f 71/89/56 72/90/57 48/95/39 
s 4
f 7/96/58 8/97/59 43/55/60 
f 43/55/60 42/54/61 7/96/58 
f 12/98/62 7/96/58 42/54/61 
f 42/54/61 50/64/63 12/98/62 
f 16/99/64 12/98/62 50/64/63 
f 50/64/63 54/69/65 16/99/64 
f 20/100/66 16/99/64 54/69/65 
f 54/69/65 58/74/67 20/100/66 
f 24/101/68 20/100/66 58/74/67 
f 58/74/67 62/79/69 24/101/68 
f 28/102/70 24/101/68 62/79/69 
f 62/79/69 66/84/71 28/102/70 
f 32/103/72 28/102/70 66/84/71 
f 66/84/71 70/88/73 32/103/72 
f 8/104/59 32/103/72 70/88/73 
f 70/88/73 43/92/60 8/104/59 
s 2
f 64/105/51 47/106/38 72/107/57 
f 72/107/57 68/108/54 64/105/51 
f 56/109/45 47/106/38 64/105/51 
f 64/105/51 60/110/48 56/109/45 
f 56/109/45 52/111/42 47/106/38 
f 48/112/39 72/107/57 47/106/38 
s 1
f 73/113/74 74/114/74 75/115/74 
f 75/115/74 76/116/74 73/113/74 
s 2
f 77/117/4 73/113/4 76/116/4 
f 76/116/4 78/118/4 77/117/4 
s 1
f 79/119/75 77/117/75 78/118/75 
f 78/118/75 80/120/75 79/119/75 
s 4
f 81/121/76 82/122/76 74/114/76 
f 74/114/76 73/113/76 81/121/76 
s 2
f 83/123/4 81/121/4 73/113/4 
f 73/113/4 77/117/4 83/123/4 
s 4
f 84/124/77 83/123/77 77/117/77 
f 77/117/77 79/119/77 84/124/77 
s 1
f 85/125/78 86/126/78 82/127/78 
f 82/127/78 81/128/78 85/125/78 
s 2
f 87/129/4 85/125/4 81/128/4 
f 81/128/4 83/130/4 87/129/4 
s 1
f 88/131/79 87/129/79 83/130/79 
f 83/130/79 84/132/79 88/131/79 
s 4
f 89/133/80 90/134/80 86/126/80 
f 86/126/80 85/125/80 89/133/80 
s 2
f 91/135/4 89/133/4 85/125/4 
f 85/125/4 87/129/4 91/135/4 
s 4
f 92/136/81 91/135/81 87/129/81 
f 87/129/81 88/131/81 92/136/81 
s 1
f 93/137/82 94/138/82 90/134/82 
f 90/134/82 89/133/82 93/137/82 
s 2
f 95/139/4 93/137/4 89/133/4 
f 89/133/4 91/135/4 95/139/4 
s 1
f 96/140/83 95/139/83 91/135/83 
f 91/135/83 92/136/83 96/140/83 
s 4
f 97/141/84 98/142/84 94/138/84 
f 94/138/84 93/137/84 97/141/84 
s 2
f 99/143/4 97/141/4 93/137/4 
f 93/137/4 95/139/4 99/143/4 
s 4
f 100/144/85 99/143/85 95/139/85 
f 95/139/85 96/140/85 100/144/85 
s 8
f 76/116/86 75/115/86 98/145/86 
f 98/145/86 97/146/86 76/116/86 
s 2
f 78/118/4 76/116/4 97/146/4 
f 97/146/4 99/147/4 78/118/4 
s 8
f 80/120/87 78/118/87 99/147/87 
f 99/147/87 100/148/87 80/120/87 
s 2
f 92/149/4 79/150/4 100/151/4 
f 100/151/4 96/152/4 92/149/4 
f 84/153/4 79/150/4 92/149/4 
f 92/149/4 88/154/4 84/153/4 
f 80/155/4 100/151/4 79/150/4 
f 86/156/88 90/157/88 92/158/88 
f 92/158/88 88/159/88 86/156/88 
f 92/158/88 90/157/88 94/160/88 
f 94/160/88 101/161/88 92/158/88 
f 94/160/88 98/162/88 102/163/88 
f 102/163/88 101/161/88 94/160/88 
f 98/162/88 75/164/88 80/165/88 
f 80/165/88 102/163/88 98/162/88 
f 80/165/88 75/164/88 74/166/88 
f 74/166/88 79/167/88 80/165/88 
f 79/167/88 74/166/88 82/168/88 
f 82/168/88 103/169/88 79/167/88 
f 103/169/88 82/168/88 86/156/88 
f 86/156/88 88/159/88 103/169/88 
s 1
f 37/170/89 34/171/88 35/172/89 
f 35/172/89 36/173/89 37/170/89 
f 39/174/88 34/171/88 37/170/89 
f 37/170/89 38/175/88 39/174/88 
f 39/174/88 40/176/88 34/171/88 
f 33/177/88 35/172/89 34/171/88 
# 201 faces

