# 3ds Max Wavefront OBJ Exporter v0.97b - (c)2007 guruware
# File Created: 02.03.2014 21:06:50

#
# object Box002
#

v  -2.8385 -2.9426 8.7815
v  -2.8385 -2.9426 0.8397
v  4.7413 -2.9426 0.8397
v  4.7413 -2.9426 8.7815
v  -7.5965 27.6802 8.7815
v  9.4993 27.6802 8.7815
v  9.4993 27.6802 0.8397
v  -7.5965 27.6802 0.8398
v  12.1505 -0.3058 10.6373
v  10.2891 -0.3058 6.1435
v  10.2891 26.0973 6.1435
v  12.1505 26.0973 10.6373
v  5.7952 -0.3058 4.2820
v  5.7952 26.0973 4.2820
v  1.3013 -0.3058 6.1435
v  1.3013 26.0973 6.1435
v  -0.5601 -0.3058 10.6373
v  -0.5601 26.0973 10.6373
v  1.3013 -0.3058 15.1312
v  1.3013 26.0973 15.1312
v  5.7952 -0.3058 16.9926
v  5.7952 26.0973 16.9926
v  10.2891 -0.3058 15.1312
v  10.2891 26.0973 15.1312
v  1.9110 -0.3058 10.6373
v  0.0496 -0.3058 6.1435
v  0.0496 26.0973 6.1435
v  1.9110 26.0973 10.6373
v  -4.4442 -0.3058 4.2821
v  -4.4442 26.0973 4.2821
v  -8.9381 -0.3058 6.1435
v  -8.9381 26.0973 6.1435
v  -10.7995 -0.3058 10.6373
v  -10.7995 26.0973 10.6373
v  -8.9381 -0.3058 15.1312
v  -8.9381 26.0973 15.1312
v  -4.4442 -0.3058 16.9926
v  -4.4442 26.0973 16.9926
v  0.0496 -0.3058 15.1312
v  0.0496 26.0973 15.1312
v  -0.3183 -1.9259 1.1741
v  -0.3183 1.6230 -10.7578
v  2.2211 1.6230 -10.7578
v  2.2211 -1.9259 1.1741
v  -0.3183 0.5390 1.9072
v  2.2211 0.5390 1.9072
v  2.2211 4.0878 -10.0246
v  -0.3183 4.0878 -10.0246
v  7.4110 19.2613 -5.7566
v  7.4110 19.2613 -4.4794
v  -5.5082 19.2613 -4.4794
v  -5.5082 19.2613 -5.7566
v  7.4110 21.9569 -4.4794
v  7.4110 21.9569 -5.7566
v  -5.5082 21.9569 -5.7566
v  -5.5082 21.9569 -4.4794
v  8.4960 19.2613 -4.4794
v  8.4960 19.2613 -5.7566
v  8.4960 21.9569 -5.7566
v  8.4960 21.9569 -4.4794
v  -6.5932 19.2613 -5.7566
v  -6.5932 19.2613 -4.4794
v  -6.5932 21.9569 -4.4794
v  -6.5932 21.9569 -5.7566
v  8.4960 19.2613 1.9931
v  8.4960 21.9569 1.9931
v  7.4110 21.9569 1.9931
v  7.4110 19.2613 1.9931
v  -6.5932 21.9569 1.9931
v  -6.5932 19.2613 1.9931
v  -5.5082 19.2613 1.9931
v  -5.5082 21.9569 1.9931
v  5.7599 -2.3973 7.0670
v  4.3572 -2.3973 3.6808
v  4.3572 78.3822 3.6808
v  5.7599 78.3822 7.0670
v  0.9710 -2.3973 2.2781
v  0.9710 78.3822 2.2781
v  -2.4152 -2.3973 3.6808
v  -2.4152 78.3822 3.6808
v  -3.8178 -2.3973 7.0670
v  -3.8178 78.3822 7.0670
v  -2.4152 -2.3973 10.4532
v  -2.4152 78.3822 10.4532
v  0.9710 -2.3973 11.8558
v  0.9710 78.3822 11.8558
v  4.3572 -2.3973 10.4532
v  4.3572 78.3822 10.4532
v  9.8852 37.1306 7.0670
v  7.2743 37.1306 0.7637
v  7.2743 42.9025 0.7637
v  9.8852 42.9025 7.0670
v  0.9710 37.1306 -1.8472
v  0.9710 42.9025 -1.8472
v  -5.3323 37.1306 0.7637
v  -5.3323 42.9025 0.7637
v  -7.9432 37.1306 7.0670
v  -7.9432 42.9025 7.0670
v  -5.3323 37.1306 13.3703
v  -5.3323 42.9025 13.3703
v  0.9710 37.1306 15.9812
v  0.9710 42.9025 15.9812
v  7.2743 37.1306 13.3703
v  7.2743 42.9025 13.3703
v  9.8852 56.2588 7.0670
v  7.2743 56.2588 0.7637
v  7.2743 57.6513 0.7637
v  9.8852 57.6513 7.0670
v  0.9710 56.2588 -1.8472
v  0.9710 57.6513 -1.8472
v  -5.3323 56.2588 0.7637
v  -5.3323 57.6513 0.7637
v  -7.9432 56.2588 7.0670
v  -7.9432 57.6513 7.0670
v  -5.3323 56.2588 13.3703
v  -5.3323 57.6513 13.3703
v  0.9710 56.2588 15.9812
v  0.9710 57.6513 15.9812
v  7.2743 56.2588 13.3703
v  7.2743 57.6513 13.3703
v  9.8852 69.8147 7.0670
v  7.2743 69.8147 0.7637
v  7.2743 71.4746 0.7637
v  9.8852 71.4746 7.0670
v  0.9710 69.8147 -1.8472
v  0.9710 71.4746 -1.8472
v  -5.3323 69.8147 0.7637
v  -5.3323 71.4746 0.7637
v  -7.9432 69.8147 7.0670
v  -7.9432 71.4746 7.0670
v  -5.3323 69.8147 13.3703
v  -5.3323 71.4746 13.3703
v  0.9710 69.8147 15.9812
v  0.9710 71.4746 15.9812
v  7.2743 69.8147 13.3703
v  7.2743 71.4746 13.3703
# 136 vertices

vn -0.0000 -1.0000 -0.0000
vn 0.0000 -1.0000 -0.0000
vn -0.0000 1.0000 -0.0000
vn 0.0000 -0.0000 1.0000
vn 0.0000 0.0000 1.0000
vn 0.9881 -0.1535 -0.0000
vn 0.9881 -0.1535 0.0000
vn -0.0000 0.0000 -1.0000
vn -0.9881 -0.1535 0.0000
vn 1.0000 0.0000 -0.0000
vn 0.7071 0.0000 -0.7071
vn -0.7071 0.0000 -0.7071
vn -1.0000 0.0000 0.0000
vn -0.7071 0.0000 0.7071
vn 0.7071 0.0000 0.7071
vn 0.0000 1.0000 -0.0000
vn -0.0000 -0.9585 -0.2851
vn 0.0000 -0.9585 -0.2851
vn 0.0000 0.9585 0.2851
vn 0.0000 -0.2851 0.9585
vn 0.0000 0.2851 -0.9585
vn -1.0000 -0.0000 0.0000
vn 0.0000 0.0000 -1.0000
vn -1.0000 0.0000 -0.0000
vn -0.0000 -0.0000 1.0000
vn 0.0000 1.0000 0.0000
# 26 vertex normals

vt 1.0000 0.0000 0.0000
vt 1.0000 1.0000 0.0000
vt 0.0000 1.0000 0.0000
vt 0.0000 0.0000 0.0000
vt 0.7500 0.0000 1.0000
vt 0.8750 0.0000 1.0000
vt 0.8750 1.0000 1.0000
vt 0.7500 1.0000 1.0000
vt 1.0000 0.0000 1.0000
vt 1.0000 1.0000 1.0000
vt 0.0000 0.0000 1.0000
vt 0.1250 0.0000 1.0000
vt 0.1250 1.0000 1.0000
vt 0.0000 1.0000 1.0000
vt 0.2500 0.0000 1.0000
vt 0.2500 1.0000 1.0000
vt 0.3750 0.0000 1.0000
vt 0.3750 1.0000 1.0000
vt 0.5000 0.0000 1.0000
vt 0.5000 1.0000 1.0000
vt 0.6250 0.0000 1.0000
vt 0.6250 1.0000 1.0000
vt 1.0000 0.5000 -0.2500
vt 0.8536 0.1464 -0.2500
vt 0.5000 0.0000 -0.2500
vt 0.5000 1.0000 -0.2500
vt 0.1464 0.1464 -0.2500
vt 0.0000 0.5000 -0.2500
vt 0.1464 0.8536 -0.2500
vt 0.8536 0.8536 -0.2500
vt 0.1464 0.8536 0.2500
vt 0.0000 0.5000 0.2500
vt 0.1464 0.1464 0.2500
vt 0.8536 0.8536 0.2500
vt 0.5000 0.0000 0.2500
vt 0.8536 0.1464 0.2500
vt 1.0000 0.5000 0.2500
vt 0.5000 1.0000 0.2500
vt 0.3333 1.0000 0.0000
vt 0.3333 0.0000 0.0000
vt 0.6667 0.0000 0.0000
vt 0.6667 1.0000 0.0000
# 42 texture coords

g Box002
s 2
f 1/1/1 2/2/1 3/3/1 4/4/2 
s 4
f 5/4/3 6/1/3 7/2/3 8/3/3 
s 8
f 1/4/4 4/1/5 6/2/4 5/3/4 
s 16
f 4/4/6 3/1/6 7/2/7 6/3/7 
s 32
f 3/4/8 2/1/8 8/2/8 7/3/8 
s 64
f 2/4/9 1/1/9 5/2/9 8/3/9 
s 8
f 9/5/10 10/6/11 11/7/11 12/8/10 
f 10/6/11 13/9/8 14/10/8 11/7/11 
f 13/11/8 15/12/12 16/13/12 14/14/8 
f 15/12/12 17/15/13 18/16/13 16/13/12 
f 17/15/13 19/17/14 20/18/14 18/16/13 
f 19/17/14 21/19/5 22/20/5 20/18/14 
f 21/19/5 23/21/15 24/22/15 22/20/5 
f 23/21/15 9/5/10 12/8/10 24/22/15 
s 1
f 21/23/2 19/24/2 17/25/2 9/26/2 
f 17/25/2 15/27/2 13/28/2 9/26/2 
f 13/28/2 10/29/2 9/26/2 
f 23/30/2 21/23/2 9/26/2 
f 11/31/16 14/32/16 16/33/16 24/34/16 
f 16/33/16 18/35/16 20/36/16 24/34/16 
f 20/36/16 22/37/16 24/34/16 
f 12/38/16 11/31/16 24/34/16 
s 8
f 25/5/10 26/6/11 27/7/11 28/8/10 
f 26/6/11 29/9/8 30/10/8 27/7/11 
f 29/11/8 31/12/12 32/13/12 30/14/8 
f 31/12/12 33/15/13 34/16/13 32/13/12 
f 33/15/13 35/17/14 36/18/14 34/16/13 
f 35/17/14 37/19/5 38/20/5 36/18/14 
f 37/19/5 39/21/15 40/22/15 38/20/5 
f 39/21/15 25/5/10 28/8/10 40/22/15 
s 1
f 37/23/2 35/24/2 33/25/2 25/26/2 
f 33/25/2 31/27/2 29/28/2 25/26/2 
f 29/28/2 26/29/2 25/26/2 
f 39/30/2 37/23/2 25/26/2 
f 27/31/16 30/32/16 32/33/16 40/34/16 
f 32/33/16 34/35/16 36/36/16 40/34/16 
f 36/36/16 38/37/16 40/34/16 
f 28/38/16 27/31/16 40/34/16 
s 2
f 41/1/17 42/2/18 43/3/17 44/4/17 
s 4
f 45/4/19 46/1/19 47/2/19 48/3/19 
s 8
f 41/4/20 44/1/20 46/2/20 45/3/20 
s 16
f 44/4/10 43/1/10 47/2/10 46/3/10 
s 32
f 43/4/21 42/1/21 48/2/21 47/3/21 
s 64
f 42/4/22 41/1/22 45/2/22 48/3/22 
s 2
f 49/39/2 50/40/2 51/41/2 52/42/2 
s 4
f 53/41/16 54/42/16 55/39/16 56/40/16 
s 8
f 50/41/4 53/42/4 56/39/4 51/40/4 
s 16
f 57/4/10 58/1/10 59/2/10 60/3/10 
s 32
f 52/41/23 55/42/23 54/39/8 49/40/8 
s 64
f 61/4/24 62/1/24 63/2/24 64/3/24 
s 2
f 58/3/2 57/4/2 50/40/2 49/39/2 
f 62/1/2 61/2/2 52/42/2 51/41/2 
s 4
f 60/1/16 59/2/16 54/42/16 53/41/16 
f 64/3/16 63/4/16 56/40/16 55/39/16 
s 8
f 65/1/25 66/2/25 67/42/25 68/41/4 
f 69/3/4 70/4/4 71/40/4 72/39/4 
s 32
f 61/1/23 64/2/23 55/42/23 52/41/23 
f 59/3/8 58/4/8 49/40/8 54/39/8 
s off
f 50/40/2 57/4/2 65/1/2 68/41/2 
f 57/4/10 60/3/10 66/2/10 65/1/10 
f 60/1/26 53/41/26 67/42/26 66/2/26 
f 53/42/22 50/41/22 68/41/22 67/42/22 
f 56/40/26 63/4/26 69/3/26 72/39/26 
f 63/2/22 62/1/22 70/4/22 69/3/22 
f 62/1/2 51/41/2 71/40/2 70/4/2 
f 51/40/10 56/39/10 72/39/10 71/40/10 
s 8
f 73/5/10 74/6/11 75/7/11 76/8/10 
f 74/6/11 77/9/8 78/10/8 75/7/11 
f 77/11/8 79/12/12 80/13/12 78/14/8 
f 79/12/12 81/15/13 82/16/13 80/13/12 
f 81/15/13 83/17/14 84/18/14 82/16/13 
f 83/17/14 85/19/5 86/20/5 84/18/14 
f 85/19/5 87/21/15 88/22/15 86/20/5 
f 87/21/15 73/5/10 76/8/10 88/22/15 
s 1
f 85/23/2 83/24/2 81/25/2 73/26/2 
f 81/25/2 79/27/2 77/28/2 73/26/2 
f 77/28/2 74/29/2 73/26/2 
f 87/30/2 85/23/2 73/26/2 
f 75/31/16 78/32/16 80/33/16 88/34/16 
f 80/33/16 82/35/16 84/36/16 88/34/16 
f 84/36/16 86/37/16 88/34/16 
f 76/38/16 75/31/16 88/34/16 
s 8
f 89/5/10 90/6/11 91/7/11 92/8/10 
f 90/6/11 93/9/8 94/10/8 91/7/11 
f 93/11/8 95/12/12 96/13/12 94/14/8 
f 95/12/12 97/15/13 98/16/13 96/13/12 
f 97/15/13 99/17/14 100/18/14 98/16/13 
f 99/17/14 101/19/5 102/20/5 100/18/14 
f 101/19/5 103/21/15 104/22/15 102/20/5 
f 103/21/15 89/5/10 92/8/10 104/22/15 
s 1
f 101/23/2 99/24/2 97/25/2 89/26/2 
f 97/25/2 95/27/2 93/28/2 89/26/2 
f 93/28/2 90/29/2 89/26/2 
f 103/30/2 101/23/2 89/26/2 
f 91/31/16 94/32/16 96/33/16 104/34/16 
f 96/33/16 98/35/16 100/36/16 104/34/16 
f 100/36/16 102/37/16 104/34/16 
f 92/38/16 91/31/16 104/34/16 
s 8
f 105/5/10 106/6/11 107/7/11 108/8/10 
f 106/6/11 109/9/8 110/10/8 107/7/11 
f 109/11/8 111/12/12 112/13/12 110/14/8 
f 111/12/12 113/15/13 114/16/13 112/13/12 
f 113/15/13 115/17/14 116/18/14 114/16/13 
f 115/17/14 117/19/5 118/20/5 116/18/14 
f 117/19/5 119/21/15 120/22/15 118/20/5 
f 119/21/15 105/5/10 108/8/10 120/22/15 
s 1
f 117/23/2 115/24/2 113/25/2 105/26/2 
f 113/25/2 111/27/2 109/28/2 105/26/2 
f 109/28/2 106/29/2 105/26/2 
f 119/30/2 117/23/2 105/26/2 
f 107/31/16 110/32/16 112/33/16 120/34/16 
f 112/33/16 114/35/16 116/36/16 120/34/16 
f 116/36/16 118/37/16 120/34/16 
f 108/38/16 107/31/16 120/34/16 
s 8
f 121/5/10 122/6/11 123/7/11 124/8/10 
f 122/6/11 125/9/8 126/10/8 123/7/11 
f 125/11/8 127/12/12 128/13/12 126/14/8 
f 127/12/12 129/15/13 130/16/13 128/13/12 
f 129/15/13 131/17/14 132/18/14 130/16/13 
f 131/17/14 133/19/5 134/20/5 132/18/14 
f 133/19/5 135/21/15 136/22/15 134/20/5 
f 135/21/15 121/5/10 124/8/10 136/22/15 
s 1
f 133/23/2 131/24/2 129/25/2 121/26/2 
f 129/25/2 127/27/2 125/28/2 121/26/2 
f 125/28/2 122/29/2 121/26/2 
f 135/30/2 133/23/2 121/26/2 
f 123/31/16 126/32/16 128/33/16 136/34/16 
f 128/33/16 130/35/16 132/36/16 136/34/16 
f 132/36/16 134/37/16 136/34/16 
f 124/38/16 123/31/16 136/34/16 
# 106 polygons - 24 triangles

