# 3ds Max Wavefront OBJ Exporter v0.97b - (c)2007 guruware
# File Created: 22.01.2014 23:05:01

#
# object Object020
#

v  0.0232 -0.1440 0.0190
v  0.0232 2.2861 0.0190
v  -1.2778 2.2861 0.0190
v  -1.2778 -2.2861 0.0190
v  0.0217 -0.1440 -1.0008
v  -1.2778 -2.2861 -1.0023
v  -5.8903 2.2861 -1.0023
v  -5.8903 -2.2861 -1.0023
v  -5.8903 -2.2861 0.0190
v  -5.8903 2.2861 0.0190
v  -1.2778 2.2861 -1.0023
v  0.0232 2.2861 -1.0023
v  -4.9105 0.0492 -12.6664
v  -5.9413 0.0492 -0.8843
v  -5.9413 1.9398 -0.8843
v  -4.9105 1.9398 -12.6664
v  -4.9321 1.9398 -0.7482
v  -3.9013 1.9398 -12.5303
v  -3.9013 0.0492 -12.5303
v  1.3242 -2.2861 0.0190
v  1.3242 2.2861 0.0190
v  5.9413 2.2861 0.0190
v  5.9383 -2.2861 0.0190
v  5.9413 2.2861 -1.0023
v  1.3242 2.2861 -1.0023
v  -4.9340 0.0492 -0.7245
v  1.3220 -2.2861 -1.0023
v  1.3198 -2.2861 0.0190
v  0.0188 -0.1440 0.0190
v  5.9387 -2.2861 -1.0023
v  4.8590 0.0492 -12.6664
v  4.8590 1.9398 -12.6664
v  5.8898 1.9398 -0.8843
v  5.8898 0.0492 -0.8843
v  4.8806 1.9398 -0.7482
v  3.8498 1.9398 -12.5303
v  3.8498 0.0492 -12.5303
v  4.8825 0.0492 -0.7245
# 38 vertices

vn 0.0000 0.0000 1.0000
vn -0.0004 -1.0000 -0.0031
vn 0.8547 -0.5191 -0.0012
vn 0.4905 -0.8714 -0.0002
vn 0.4905 -0.8715 0.0000
vn -1.0000 0.0000 -0.0000
vn -0.0000 -1.0000 0.0000
vn 0.0000 1.0000 -0.0000
vn -0.9962 -0.0000 -0.0872
vn 0.1337 -0.0000 -0.9910
vn -0.0000 0.0000 1.0000
vn 0.9962 0.0000 0.0872
vn 0.9962 0.0001 0.0871
vn -0.4899 -0.8718 -0.0010
vn -0.4909 -0.8712 -0.0011
vn -0.8547 -0.5191 -0.0024
vn 1.0000 -0.0006 0.0001
vn 1.0000 -0.0006 0.0000
vn 1.0000 -0.0006 0.0003
vn 1.0000 -0.0006 0.0004
vn 0.0000 -0.0001 -1.0000
vn 0.0003 -0.0000 -1.0000
vn 0.0002 -0.0002 -1.0000
vn -0.0000 -0.0006 -1.0000
vn -0.0000 -0.0000 -1.0000
vn -0.0002 -0.0002 -1.0000
vn -0.0003 -0.0000 -1.0000
vn 0.0000 -0.0000 -1.0000
vn 0.9962 -0.0000 -0.0872
vn -0.1337 -0.0000 -0.9910
vn -0.9962 0.0000 0.0872
vn -0.9962 0.0001 0.0871
# 32 vertex normals

vt 0.4080 0.6367 0.0000
vt 0.4080 0.6718 0.0000
vt 0.3891 0.6718 0.0000
vt 0.3891 0.6057 0.0000
vt 0.4201 0.5910 0.0000
vt 0.4201 0.6057 0.0000
vt 0.3891 0.5910 0.0000
vt 0.3077 0.6718 0.0000
vt 0.3077 0.6057 0.0000
vt 0.3224 0.6057 0.0000
vt 0.3224 0.6718 0.0000
vt 0.3224 0.5910 0.0000
vt 0.3224 0.6865 0.0000
vt 0.3891 0.6865 0.0000
vt 0.4080 0.6865 0.0000
vt 0.3224 0.6925 0.0000
vt 0.4928 0.6925 0.0000
vt 0.4929 0.7198 0.0000
vt 0.3224 0.7198 0.0000
vt 0.4930 0.7345 0.0000
vt 0.3223 0.7345 0.0000
vt 0.3077 0.7198 0.0000
vt 0.3078 0.6925 0.0000
vt 0.4268 0.6057 0.0000
vt 0.4268 0.6718 0.0000
vt 0.4935 0.6718 0.0000
vt 0.4935 0.6057 0.0000
vt 0.4935 0.6865 0.0000
vt 0.4268 0.6865 0.0000
# 29 texture coords

g Object020
s 4
f 1/1/1 2/2/1 3/3/1 4/4/1 
s 8
f 5/5/2 1/6/3 4/4/4 6/7/5 
s 64
f 7/8/6 8/9/6 9/10/6 10/11/6 
s 4
f 10/11/1 9/10/1 4/4/1 3/3/1 
s 8
f 9/10/7 8/12/7 6/7/5 4/4/4 
s 32
f 7/13/8 10/11/8 3/3/8 11/14/8 
f 11/14/8 3/3/8 2/2/8 12/15/8 
s 4
f 13/16/9 14/17/9 15/18/9 16/19/9 
s 32
f 17/20/8 18/21/8 16/19/8 15/18/8 
s 64
f 18/22/10 19/23/10 13/16/10 16/19/10 
s 4
f 1/1/1 20/24/11 21/25/11 2/2/1 
f 22/26/1 21/25/11 20/24/11 23/27/1 
s 32
f 24/28/8 25/29/8 21/25/8 22/26/8 
f 25/29/8 12/15/8 2/2/8 21/25/8 
s 4
f 19/16/12 18/19/12 17/18/13 26/17/13 
s 32
f 26/20/7 14/18/7 13/19/7 19/21/7 
s 8
f 5/5/2 27/7/14 28/4/15 29/6/16 
f 23/10/7 28/4/15 27/7/14 30/12/7 
s 64
f 24/8/17 22/11/18 23/10/19 30/9/20 
s 4
f 5/1/21 6/4/22 11/3/23 12/2/24 
f 7/11/25 11/3/23 6/4/22 8/10/25 
f 5/1/21 12/2/24 25/25/26 27/24/27 
f 24/26/28 30/27/28 27/24/27 25/25/26 
f 31/16/29 32/19/29 33/18/29 34/17/29 
s 32
f 35/20/8 33/18/8 32/19/8 36/21/8 
s 64
f 36/22/30 32/19/30 31/16/30 37/23/30 
s 4
f 37/16/31 38/17/32 35/18/32 36/19/31 
s 32
f 38/20/7 37/21/7 31/19/7 34/18/7 
# 28 polygons

