# 3ds Max Wavefront OBJ Exporter v0.97b - (c)2007 guruware
# File Created: 29.05.2014 00:20:54

#
# object Goblin_Missile
#

v  -0.0000 31.4961 -0.0000
v  3.9370 15.7480 6.8191
v  7.8740 15.7480 0.0000
v  -3.9370 15.7480 6.8191
v  -7.8740 15.7480 0.0000
v  -3.9370 15.7480 -6.8191
v  3.9370 15.7480 -6.8191
v  1.2852 5.4112 2.2261
v  2.5705 5.4112 0.0000
v  -1.2852 5.4112 2.2261
v  -2.5705 5.4112 0.0000
v  -1.2852 5.4112 -2.2261
v  1.2852 5.4112 -2.2261
v  1.2439 0.0000 2.1545
v  2.4878 0.0000 0.0000
v  -1.2439 0.0000 2.1545
v  -2.4878 0.0000 0.0000
v  -1.2439 0.0000 -2.1545
v  1.2439 0.0000 -2.1545
# 19 vertices

vn 0.0000 1.0000 -0.0000
vn 0.5000 -0.0046 0.8660
vn 1.0000 -0.0046 -0.0000
vn -0.5000 -0.0046 0.8660
vn -1.0000 -0.0046 -0.0000
vn -0.5000 -0.0046 -0.8660
vn 0.5000 -0.0046 -0.8660
vn 0.4449 -0.4565 0.7705
vn 0.8897 -0.4565 -0.0000
vn -0.4449 -0.4565 0.7705
vn -0.8897 -0.4565 -0.0000
vn -0.4449 -0.4565 -0.7705
vn 0.4449 -0.4565 -0.7705
vn 0.9999 -0.0153 -0.0000
vn 0.4999 -0.0153 0.8659
vn -0.4999 -0.0153 0.8659
vn -0.9999 -0.0153 -0.0000
vn -0.4999 -0.0153 -0.8659
vn 0.4999 -0.0153 -0.8659
vn 0.0000 -1.0000 -0.0000
# 20 vertex normals

vt 0.5820 0.0163 0.0000
vt 0.6485 0.3191 0.0000
vt 0.5099 0.3178 0.0000
vt 0.7738 0.2598 0.0000
vt 0.8608 0.1518 0.0000
vt 0.3007 0.1466 0.0000
vt 0.2721 0.0110 0.0000
vt 0.3857 0.2562 0.0000
vt 0.5999 0.5178 0.0000
vt 0.5547 0.5173 0.0000
vt 0.8167 0.4598 0.0000
vt 0.7758 0.4791 0.0000
vt 0.9866 0.3131 0.0000
vt 0.9582 0.3484 0.0000
vt 0.0962 0.1421 0.0000
vt 0.0869 0.0979 0.0000
vt 0.1997 0.3413 0.0000
vt 0.1719 0.3055 0.0000
vt 0.3796 0.4754 0.0000
vt 0.3390 0.4553 0.0000
vt 0.0370 0.2966 0.0000
vt 0.0370 0.2371 0.0000
vt 0.1623 0.2380 0.0000
vt 0.1623 0.2956 0.0000
vt 0.0379 0.1775 0.0000
vt 0.1632 0.1804 0.0000
vt 0.0460 0.5345 0.0000
vt 0.0424 0.4751 0.0000
vt 0.1676 0.4684 0.0000
vt 0.1711 0.5259 0.0000
vt 0.0397 0.4156 0.0000
vt 0.1649 0.4108 0.0000
vt 0.0379 0.3561 0.0000
vt 0.1632 0.3533 0.0000
vt 0.9094 0.3783 0.2500
vt 0.9787 0.4183 0.2500
vt 0.9787 0.4983 0.2500
vt 0.9094 0.5383 0.2500
vt 0.8401 0.4983 0.2500
vt 0.8401 0.4183 0.2500
# 40 texture coords

g Goblin_Missile
s 8
f 1/1/1 2/2/2 3/3/3 
f 1/1/1 4/4/4 2/2/2 
f 1/1/1 5/5/5 4/4/4 
f 1/1/1 6/6/6 5/7/5 
f 1/1/1 7/8/7 6/6/6 
f 1/1/1 3/3/3 7/8/7 
f 3/3/3 2/2/2 8/9/8 9/10/9 
f 2/2/2 4/4/4 10/11/10 8/12/8 
f 4/4/4 5/5/5 11/13/11 10/14/10 
f 5/7/5 6/6/6 12/15/12 11/16/11 
f 6/6/6 7/8/7 13/17/13 12/18/12 
f 7/8/7 3/3/3 9/19/9 13/20/13 
s 4
f 9/21/14 8/22/15 14/23/15 15/24/14 
f 8/22/15 10/25/16 16/26/16 14/23/15 
f 10/27/16 11/28/17 17/29/17 16/30/16 
f 11/28/17 12/31/18 18/32/18 17/29/17 
f 12/31/18 13/33/19 19/34/19 18/32/18 
f 13/33/19 9/21/14 15/24/14 19/34/19 
s 1
f 17/35/20 18/36/20 19/37/20 15/38/20 
f 14/39/20 16/40/20 17/35/20 15/38/20 
# 14 polygons - 6 triangles

