# 3ds Max Wavefront OBJ Exporter v0.97b - (c)2007 guruware
# File Created: 02.03.2014 21:07:09

#
# object Cylinder005
#

v  11.0025 -0.0000 -0.0000
v  7.7799 0.0000 -7.7799
v  7.7799 15.9022 -7.7799
v  11.0025 15.9022 0.0000
v  -0.0000 0.0000 -11.0025
v  0.0000 15.9022 -11.0025
v  -7.7799 0.0000 -7.7799
v  -7.7799 15.9022 -7.7799
v  -11.0025 0.0000 0.0000
v  -11.0025 15.9022 0.0000
v  -7.7799 -0.0000 7.7799
v  -7.7799 15.9022 7.7799
v  0.0000 -0.0000 11.0025
v  0.0000 15.9022 11.0025
v  7.7799 -0.0000 7.7799
v  7.7799 15.9022 7.7799
v  10.9370 0.9011 2.8505
v  10.0018 0.9011 0.5928
v  10.0018 65.4381 0.5928
v  10.9370 65.4381 2.8506
v  7.7440 0.9011 -0.3425
v  7.7440 65.4381 -0.3424
v  5.4862 0.9011 0.5928
v  5.4862 65.4381 0.5928
v  4.5510 0.9011 2.8505
v  4.5510 65.4381 2.8506
v  5.4862 0.9011 5.1083
v  5.4862 65.4381 5.1084
v  7.7440 0.9011 6.0436
v  7.7440 65.4381 6.0436
v  10.0018 0.9011 5.1083
v  10.0018 65.4381 5.1084
v  7.3409 -3.3651 -0.0000
v  5.1908 -3.3651 -5.1908
v  5.1908 61.1719 -5.1907
v  7.3409 61.1719 0.0000
v  -0.0000 -3.3651 -7.3409
v  0.0000 61.1719 -7.3408
v  -5.1908 -3.3651 -5.1908
v  -5.1907 61.1719 -5.1907
v  -7.3409 -3.3651 0.0000
v  -7.3408 61.1719 0.0000
v  -5.1908 -3.3651 5.1908
v  -5.1907 61.1719 5.1908
v  0.0000 -3.3651 7.3409
v  0.0000 61.1719 7.3409
v  5.1908 -3.3651 5.1908
v  5.1908 61.1719 5.1908
v  -5.0029 0.9011 2.8506
v  -5.9382 0.9011 0.5928
v  -5.9381 65.4381 0.5928
v  -5.0029 65.4381 2.8506
v  -8.1960 0.9011 -0.3424
v  -8.1959 65.4381 -0.3424
v  -10.4537 0.9011 0.5928
v  -10.4537 65.4381 0.5928
v  -11.3890 0.9011 2.8506
v  -11.3889 65.4381 2.8506
v  -10.4537 0.9011 5.1084
v  -10.4537 65.4381 5.1084
v  -8.1959 0.9011 6.0436
v  -8.1959 65.4381 6.0436
v  -5.9382 0.9011 5.1083
v  -5.9381 65.4381 5.1084
v  8.9097 39.0864 -0.0000
v  6.3001 39.0864 -6.3001
v  6.3001 47.0736 -6.3001
v  8.9097 47.0736 0.0000
v  0.0000 39.0864 -8.9097
v  0.0000 47.0736 -8.9097
v  -6.3001 39.0864 -6.3001
v  -6.3001 47.0736 -6.3001
v  -8.9097 39.0864 0.0000
v  -8.9097 47.0736 0.0000
v  -6.3001 39.0864 6.3001
v  -6.3001 47.0736 6.3001
v  0.0000 39.0864 8.9097
v  0.0000 47.0736 8.9097
v  6.3001 39.0864 6.3001
v  6.3001 47.0736 6.3001
# 80 vertices

vn 1.0000 -0.0000 -0.0000
vn 0.7071 -0.0000 -0.7071
vn -0.0000 0.0000 -1.0000
vn -0.7071 0.0000 -0.7071
vn -1.0000 0.0000 0.0000
vn -0.7071 0.0000 0.7071
vn 0.0000 -0.0000 1.0000
vn 0.7071 -0.0000 0.7071
vn -0.0000 -1.0000 -0.0000
vn 0.0000 1.0000 0.0000
vn 0.7071 0.0000 -0.7071
vn -0.7071 -0.0000 0.7071
# 12 vertex normals

vt 0.7500 0.0000 1.0000
vt 0.8750 0.0000 1.0000
vt 0.8750 1.0000 1.0000
vt 0.7500 1.0000 1.0000
vt 1.0000 0.0000 1.0000
vt 1.0000 1.0000 1.0000
vt 0.0000 0.0000 1.0000
vt 0.1250 0.0000 1.0000
vt 0.1250 1.0000 1.0000
vt 0.0000 1.0000 1.0000
vt 0.2500 0.0000 1.0000
vt 0.2500 1.0000 1.0000
vt 0.3750 0.0000 1.0000
vt 0.3750 1.0000 1.0000
vt 0.5000 0.0000 1.0000
vt 0.5000 1.0000 1.0000
vt 0.6250 0.0000 1.0000
vt 0.6250 1.0000 1.0000
vt 1.0000 0.5000 -0.2500
vt 0.8536 0.1464 -0.2500
vt 0.5000 0.0000 -0.2500
vt 0.5000 1.0000 -0.2500
vt 0.1464 0.1464 -0.2500
vt 0.0000 0.5000 -0.2500
vt 0.1464 0.8536 -0.2500
vt 0.8536 0.8536 -0.2500
vt 0.1464 0.8536 0.2500
vt 0.0000 0.5000 0.2500
vt 0.1464 0.1464 0.2500
vt 0.8536 0.8536 0.2500
vt 0.5000 0.0000 0.2500
vt 0.8536 0.1464 0.2500
vt 1.0000 0.5000 0.2500
vt 0.5000 1.0000 0.2500
# 34 texture coords

g Cylinder005
s 8
f 1/1/1 2/2/2 3/3/2 4/4/1 
f 2/2/2 5/5/3 6/6/3 3/3/2 
f 5/7/3 7/8/4 8/9/4 6/10/3 
f 7/8/4 9/11/5 10/12/5 8/9/4 
f 9/11/5 11/13/6 12/14/6 10/12/5 
f 11/13/6 13/15/7 14/16/7 12/14/6 
f 13/15/7 15/17/8 16/18/8 14/16/7 
f 15/17/8 1/1/1 4/4/1 16/18/8 
s 1
f 13/19/9 11/20/9 9/21/9 1/22/9 
f 9/21/9 7/23/9 5/24/9 1/22/9 
f 5/24/9 2/25/9 1/22/9 
f 15/26/9 13/19/9 1/22/9 
f 3/27/10 6/28/10 8/29/10 16/30/10 
f 8/29/10 10/31/10 12/32/10 16/30/10 
f 12/32/10 14/33/10 16/30/10 
f 4/34/10 3/27/10 16/30/10 
s 8
f 17/1/1 18/2/2 19/3/2 20/4/1 
f 18/2/2 21/5/3 22/6/3 19/3/2 
f 21/7/3 23/8/4 24/9/4 22/10/3 
f 23/8/4 25/11/5 26/12/5 24/9/4 
f 25/11/5 27/13/6 28/14/6 26/12/5 
f 27/13/6 29/15/7 30/16/7 28/14/6 
f 29/15/7 31/17/8 32/18/8 30/16/7 
f 31/17/8 17/1/1 20/4/1 32/18/8 
s 1
f 29/19/9 27/20/9 25/21/9 17/22/9 
f 25/21/9 23/23/9 21/24/9 17/22/9 
f 21/24/9 18/25/9 17/22/9 
f 31/26/9 29/19/9 17/22/9 
f 19/27/10 22/28/10 24/29/10 32/30/10 
f 24/29/10 26/31/10 28/32/10 32/30/10 
f 28/32/10 30/33/10 32/30/10 
f 20/34/10 19/27/10 32/30/10 
s 8
f 33/1/1 34/2/2 35/3/2 36/4/1 
f 34/2/2 37/5/3 38/6/3 35/3/2 
f 37/7/3 39/8/4 40/9/4 38/10/3 
f 39/8/4 41/11/5 42/12/5 40/9/4 
f 41/11/5 43/13/6 44/14/6 42/12/5 
f 43/13/6 45/15/7 46/16/7 44/14/6 
f 45/15/7 47/17/8 48/18/8 46/16/7 
f 47/17/8 33/1/1 36/4/1 48/18/8 
s 1
f 45/19/9 43/20/9 41/21/9 33/22/9 
f 41/21/9 39/23/9 37/24/9 33/22/9 
f 37/24/9 34/25/9 33/22/9 
f 47/26/9 45/19/9 33/22/9 
f 35/27/10 38/28/10 40/29/10 48/30/10 
f 40/29/10 42/31/10 44/32/10 48/30/10 
f 44/32/10 46/33/10 48/30/10 
f 36/34/10 35/27/10 48/30/10 
s 8
f 49/1/1 50/2/2 51/3/2 52/4/1 
f 50/2/2 53/5/3 54/6/3 51/3/2 
f 53/7/3 55/8/4 56/9/4 54/10/3 
f 55/8/4 57/11/5 58/12/5 56/9/4 
f 57/11/5 59/13/6 60/14/6 58/12/5 
f 59/13/6 61/15/7 62/16/7 60/14/6 
f 61/15/7 63/17/8 64/18/8 62/16/7 
f 63/17/8 49/1/1 52/4/1 64/18/8 
s 1
f 61/19/9 59/20/9 57/21/9 49/22/9 
f 57/21/9 55/23/9 53/24/9 49/22/9 
f 53/24/9 50/25/9 49/22/9 
f 63/26/9 61/19/9 49/22/9 
f 51/27/10 54/28/10 56/29/10 64/30/10 
f 56/29/10 58/31/10 60/32/10 64/30/10 
f 60/32/10 62/33/10 64/30/10 
f 52/34/10 51/27/10 64/30/10 
s 8
f 65/1/1 66/2/2 67/3/11 68/4/1 
f 66/2/2 69/5/3 70/6/3 67/3/11 
f 69/7/3 71/8/4 72/9/4 70/10/3 
f 71/8/4 73/11/5 74/12/5 72/9/4 
f 73/11/5 75/13/6 76/14/12 74/12/5 
f 75/13/6 77/15/7 78/16/7 76/14/12 
f 77/15/7 79/17/8 80/18/8 78/16/7 
f 79/17/8 65/1/1 68/4/1 80/18/8 
s 1
f 77/19/9 75/20/9 73/21/9 65/22/9 
f 73/21/9 71/23/9 69/24/9 65/22/9 
f 69/24/9 66/25/9 65/22/9 
f 79/26/9 77/19/9 65/22/9 
f 67/27/10 70/28/10 72/29/10 80/30/10 
f 72/29/10 74/31/10 76/32/10 80/30/10 
f 76/32/10 78/33/10 80/30/10 
f 68/34/10 67/27/10 80/30/10 
# 60 polygons - 20 triangles

