# 3ds Max Wavefront OBJ Exporter v0.97b - (c)2007 guruware
# File Created: 01.05.2014 19:00:38

#
# object GameBoy
#

v  10.8184 26.4767 11.3898
v  -11.4011 25.9338 11.1366
v  11.4011 -6.4409 -3.9599
v  11.4011 25.9338 11.1366
v  -10.8184 26.4767 11.3898
v  -10.6760 -4.4287 -3.0217
v  -8.5005 -6.4552 -3.9666
v  -11.4011 -1.0512 -1.4467
v  -4.8747 -7.1308 -4.2816
v  10.6606 -7.1308 -4.2816
v  -8.5005 -4.4867 -8.1881
v  -10.6760 -2.4602 -7.2431
v  10.6606 -5.1623 -8.5031
v  -4.8747 -5.1623 -8.5031
v  -11.4011 0.9173 -5.6681
v  -10.8184 28.4451 7.1683
v  -11.4011 27.9023 6.9152
v  11.4011 27.9023 6.9152
v  10.8184 28.4451 7.1683
v  11.4011 -4.4724 -8.1814
# 20 vertices

vn 0.0000 -0.4226 0.9063
vn 0.0000 0.4226 -0.9063
vn 0.0000 -0.9063 -0.4226
vn -1.0000 0.0000 -0.0000
vn 0.0000 0.9063 0.4226
vn 1.0000 0.0000 -0.0000
vn -0.7071 0.6409 0.2988
vn 0.6860 0.6594 0.3075
vn -0.1921 -0.8894 -0.4147
vn -0.6761 -0.6678 -0.3114
vn -0.9790 -0.1849 -0.0862
vn 0.6761 -0.6678 -0.3114
# 12 vertex normals

vt 0.5095 0.3167 0.0000
vt 0.3159 0.3112 0.0000
vt 0.5154 0.0087 0.0000
vt 0.5146 0.3117 0.0000
vt 0.3210 0.3164 0.0000
vt 0.3229 0.0271 0.0000
vt 0.3419 0.0082 0.0000
vt 0.3165 0.0587 0.0000
vt 0.3735 0.0019 0.0000
vt 0.5089 0.0023 0.0000
vt 0.3408 0.6643 0.0000
vt 0.3218 0.6453 0.0000
vt 0.5078 0.6710 0.0000
vt 0.3724 0.6707 0.0000
vt 0.3156 0.6137 0.0000
vt 0.3212 0.3561 0.0000
vt 0.3161 0.3612 0.0000
vt 0.5148 0.3616 0.0000
vt 0.5098 0.3565 0.0000
vt 0.5142 0.6645 0.0000
vt 0.9648 0.3419 0.0000
vt 0.8295 0.3469 0.0000
vt 0.8281 0.3072 0.0000
vt 0.9634 0.3021 0.0000
vt 0.3142 0.3562 0.0000
vt 0.0618 0.3615 0.0000
vt 0.0610 0.3218 0.0000
vt 0.3136 0.3165 0.0000
vt 0.8203 0.3472 0.0000
vt 0.5173 0.3564 0.0000
vt 0.5164 0.3166 0.0000
vt 0.8190 0.3075 0.0000
vt 0.9956 0.3009 0.0000
vt 0.9971 0.3406 0.0000
vt 0.0019 0.3230 0.0000
vt 0.0288 0.3224 0.0000
vt 0.0296 0.3622 0.0000
vt 0.0028 0.3628 0.0000
# 38 texture coords

g GameBoy
s 2
f 1/1/1 2/2/1 3/3/1 
f 3/3/1 4/4/1 1/1/1 
f 1/1/1 5/5/1 2/2/1 
f 6/6/1 7/7/1 2/2/1 
f 2/2/1 8/8/1 6/6/1 
f 9/9/1 3/3/1 2/2/1 
f 2/2/1 7/7/1 9/9/1 
f 10/10/1 3/3/1 9/9/1 
s 4
f 11/11/2 12/12/2 13/13/2 
f 13/13/2 14/14/2 11/11/2 
f 15/15/2 16/16/2 13/13/2 
f 13/13/2 12/12/2 15/15/2 
f 15/15/2 17/17/2 16/16/2 
f 18/18/2 13/13/2 16/16/2 
f 16/16/2 19/19/2 18/18/2 
f 20/20/2 13/13/2 18/18/2 
s 8
f 14/21/3 13/22/3 10/23/3 
f 10/23/3 9/24/3 14/21/3 
s 16
f 17/25/4 15/26/4 8/27/4 
f 8/27/4 2/28/4 17/25/4 
s 32
f 19/19/5 16/16/5 5/5/5 
f 5/5/5 1/1/5 19/19/5 
s 64
f 20/29/6 18/30/6 4/31/6 
f 4/31/6 3/32/6 20/29/6 
s off
f 16/16/7 17/25/7 2/28/7 
f 2/28/7 5/5/7 16/16/7 
f 18/30/8 19/19/8 1/1/8 
f 1/1/8 4/31/8 18/30/8 
f 9/24/9 7/33/9 11/34/9 
f 11/34/9 14/21/9 9/24/9 
f 7/35/10 6/36/10 12/37/10 
f 12/37/10 11/38/10 7/35/10 
f 6/36/11 8/27/11 15/26/11 
f 15/26/11 12/37/11 6/36/11 
f 3/32/12 10/23/12 13/22/12 
f 13/22/12 20/29/12 3/32/12 
# 36 faces

