# 3ds Max Wavefront OBJ Exporter v0.97b - (c)2007 guruware
# File Created: 25.03.2014 23:15:04

#
# object cañon
#

v  4.7217 -2.9426 8.7815
v  4.7217 -2.9426 0.8397
v  9.4797 27.6802 0.8397
v  9.4797 27.6802 8.7815
v  0.9514 -2.9426 0.8397
v  0.9514 27.6802 0.8397
v  12.1309 -0.2959 10.6373
v  10.2694 -0.2959 6.1435
v  10.2694 26.0973 6.1435
v  12.1309 26.0973 10.6373
v  5.7756 -0.2959 4.2820
v  5.7756 26.0973 4.2820
v  0.9514 -0.2959 15.1312
v  5.7756 -0.2959 16.9926
v  5.7756 26.0973 16.9926
v  0.9514 26.0973 15.1312
v  10.2694 -0.2959 15.1312
v  10.2694 26.0973 15.1312
v  1.2817 26.0973 6.1435
v  0.9514 26.0973 6.9409
v  2.9631 -3.7296 4.5328
v  2.9631 1.9481 -14.5563
v  2.9631 5.8820 -13.3862
v  2.9631 0.2044 5.7029
v  0.9514 1.9481 -14.5563
v  0.9514 5.8820 -13.3862
v  12.8561 18.4866 -5.2682
v  12.8561 18.4866 -7.2869
v  12.8561 22.7394 -7.2869
v  12.8561 22.7394 -5.2682
v  0.9514 18.4866 -8.9741
v  0.9514 22.7394 -8.9741
v  11.1412 22.7394 -8.9741
v  11.1412 18.4866 -8.9741
v  11.1412 22.7394 -6.9555
v  8.6628 22.7393 4.9616
v  8.6628 18.4866 4.9616
v  7.5510 22.7393 4.9616
v  11.1412 18.4866 -6.9555
v  7.5510 18.4866 4.9616
v  5.7402 -2.3973 7.0670
v  4.3376 -2.3973 3.6808
v  4.3376 78.3822 3.6808
v  5.7403 78.3822 7.0670
v  0.9514 -2.3973 2.2781
v  0.9514 78.3822 2.2781
v  0.9514 -2.3961 11.8558
v  4.3376 -2.3973 10.4532
v  4.3376 78.3822 10.4532
v  0.9514 78.3822 11.8558
v  9.8656 37.1419 7.0670
v  7.2547 37.1419 0.7637
v  7.2547 42.9025 0.7637
v  9.8656 42.9025 7.0670
v  0.9514 37.1419 -1.8472
v  0.9514 42.9025 -1.8472
v  0.9514 37.1419 15.9812
v  7.2547 37.1419 13.3703
v  7.2547 42.9025 13.3703
v  0.9514 42.9025 15.9812
v  1.2817 -0.2860 6.1435
v  0.9514 -0.2860 6.9409
v  4.3376 -2.3949 10.4532
v  0.9514 -2.3949 2.2781
v  4.3376 -2.3949 3.6807
v  5.7403 -2.3949 7.0670
v  0.9514 -2.9426 8.7815
v  0.9514 27.6802 8.7815
v  0.9514 -3.7296 4.5328
v  0.9514 22.7394 -6.9555
v  0.9514 18.4866 -6.9555
v  0.9514 0.1950 5.7001
v  -2.8189 -2.9426 8.7815
v  -7.5769 27.6802 8.7815
v  -7.5769 27.6802 0.8397
v  -2.8189 -2.9426 0.8397
v  -10.2281 -0.2959 10.6373
v  -10.2281 26.0973 10.6373
v  -8.3667 26.0973 6.1435
v  -8.3667 -0.2959 6.1435
v  -3.8728 26.0973 4.2820
v  -3.8728 -0.2959 4.2820
v  -3.8728 26.0973 16.9926
v  -3.8728 -0.2959 16.9926
v  -8.3667 26.0973 15.1312
v  -8.3667 -0.2959 15.1312
v  0.6211 26.0973 6.1435
v  -1.0603 -3.7295 4.5328
v  -1.0603 0.2044 5.7029
v  -1.0603 5.8820 -13.3862
v  -1.0603 1.9481 -14.5563
v  -10.9533 18.4866 -5.2682
v  -10.9533 22.7394 -5.2682
v  -10.9533 22.7394 -7.2869
v  -10.9533 18.4866 -7.2869
v  -9.2384 18.4866 -8.9741
v  -9.2384 22.7394 -8.9741
v  -9.2384 22.7394 -6.9555
v  -6.7600 18.4866 4.9616
v  -6.7600 22.7393 4.9616
v  -5.6482 22.7393 4.9616
v  -5.6482 18.4866 4.9616
v  -9.2384 18.4866 -6.9555
v  -3.8375 -2.3973 7.0670
v  -3.8375 78.3822 7.0670
v  -2.4348 78.3822 3.6808
v  -2.4348 -2.3973 3.6808
v  -2.4348 78.3822 10.4532
v  -2.4348 -2.3973 10.4532
v  -7.9628 37.1419 7.0670
v  -7.9628 42.9025 7.0670
v  -5.3519 42.9025 0.7637
v  -5.3519 37.1419 0.7637
v  -5.3519 42.9025 13.3703
v  -5.3519 37.1419 13.3703
v  0.6211 -0.2860 6.1435
v  -2.4349 -2.3949 10.4532
v  -2.4349 -2.3949 3.6807
v  -3.8375 -2.3949 7.0670
v  9.8656 48.9026 7.0670
v  7.2547 48.9026 0.7637
v  7.2547 54.6632 0.7637
v  9.8656 54.6632 7.0670
v  0.9514 48.9026 -1.8472
v  0.9514 54.6632 -1.8472
v  0.9514 48.9026 15.9812
v  7.2547 48.9026 13.3703
v  7.2547 54.6632 13.3703
v  0.9514 54.6632 15.9812
v  -7.9628 48.9026 7.0670
v  -7.9628 54.6632 7.0670
v  -5.3519 54.6632 0.7637
v  -5.3519 48.9026 0.7637
v  -5.3519 54.6632 13.3703
v  -5.3519 48.9026 13.3703
v  9.8656 63.7703 7.0670
v  7.2547 63.7703 0.7637
v  7.2547 75.7056 0.7637
v  9.8656 75.7056 7.0670
v  0.9514 63.7704 -1.8472
v  0.9514 75.7057 -1.8472
v  0.9514 63.7703 15.9812
v  7.2547 63.7703 13.3703
v  7.2547 75.7056 13.3703
v  0.9514 75.7056 15.9812
v  -7.9628 63.7704 7.0670
v  -7.9628 75.7057 7.0670
v  -5.3519 75.7057 0.7637
v  -5.3519 63.7704 0.7637
v  -5.3519 75.7056 13.3703
v  -5.3519 63.7703 13.3703
# 151 vertices

vn 0.9881 -0.1535 -0.0000
vn -0.0000 -0.0000 -1.0000
vn 1.0000 -0.0000 -0.0000
vn 0.7071 -0.0000 -0.7071
vn 0.3827 0.0000 -0.9239
vn 0.3827 -0.0000 -0.9239
vn 0.0000 -0.0000 1.0000
vn 0.0122 0.0000 0.9999
vn 0.7071 -0.0000 0.7071
vn 0.7071 0.0000 0.7071
vn 0.0000 1.0000 0.0000
vn -0.0000 1.0000 0.0000
vn 1.0000 0.0000 -0.0000
vn -0.0000 0.2851 -0.9585
vn -0.0000 0.0000 -1.0000
vn 0.3789 0.0000 -0.9254
vn 0.7013 0.0000 -0.7128
vn 0.9253 -0.0000 0.3793
vn -0.9575 -0.0000 -0.2885
vn 0.0000 0.0000 1.0000
vn -0.0000 -1.0000 -0.0001
vn -0.0000 -1.0000 0.0001
vn -0.0001 -1.0000 0.0001
vn -0.0002 -1.0000 0.0000
vn -0.0004 -1.0000 -0.0002
vn 1.0000 0.0000 0.0000
vn 0.7071 0.0000 -0.7071
vn 0.0000 1.0000 -0.0000
vn -0.0000 -1.0000 -0.0000
vn 0.0000 -1.0000 -0.0000
vn -0.0004 -1.0000 -0.0004
vn -0.0000 -1.0000 -0.0009
vn -0.0010 -1.0000 -0.0001
vn -0.0000 -1.0000 -0.0012
vn -0.0011 -1.0000 0.0027
vn -0.0009 -1.0000 0.0004
vn -0.0000 -1.0000 0.0000
vn 0.0002 -1.0000 -0.0001
vn 0.0000 -0.9585 -0.2851
vn -0.0000 -0.9585 -0.2851
vn -0.0046 0.9584 0.2855
vn 0.0000 0.9585 0.2851
vn 0.0000 0.9584 0.2856
vn -0.9881 -0.1535 0.0000
vn -1.0000 0.0000 0.0000
vn -1.0000 0.0000 -0.0000
vn -0.7071 0.0000 -0.7071
vn -0.3827 0.0000 -0.9239
vn -0.0122 0.0000 0.9999
vn -0.7071 0.0000 0.7071
vn -0.3789 0.0000 -0.9254
vn -0.7013 0.0000 -0.7128
vn -0.9253 -0.0000 0.3793
vn 0.9575 -0.0000 -0.2885
vn 0.0001 -1.0000 0.0001
vn 0.0002 -1.0000 0.0000
vn 0.0004 -1.0000 -0.0002
vn -0.0000 1.0000 -0.0000
vn 0.0009 -1.0000 0.0004
vn 0.0011 -1.0000 0.0027
vn 0.0010 -1.0000 -0.0001
vn 0.0004 -1.0000 -0.0004
vn 0.0000 -1.0000 0.0000
vn -0.0002 -1.0000 -0.0001
vn -0.0000 0.0000 1.0000
vn 0.0046 0.9584 0.2855
vn 1.0000 -0.0000 0.0000
vn 0.0000 0.0000 -1.0000
vn -0.7071 -0.0000 0.7071
# 69 vertex normals

vt 0.3410 0.6270 0.0000
vt 0.4114 0.6304 0.0000
vt 0.3984 0.9049 0.0000
vt 0.3280 0.9015 0.0000
vt 0.4446 0.6268 0.0000
vt 0.4736 0.8968 0.0000
vt 0.6468 0.7058 0.0000
vt 0.6899 0.7058 0.0000
vt 0.6899 0.9400 0.0000
vt 0.6468 0.9400 0.0000
vt 0.7330 0.7058 0.0000
vt 0.7330 0.9400 0.0000
vt 0.5174 0.7058 0.0000
vt 0.5605 0.7058 0.0000
vt 0.5605 0.9400 0.0000
vt 0.5174 0.9400 0.0000
vt 0.6036 0.7058 0.0000
vt 0.6036 0.9400 0.0000
vt 0.6345 0.6810 0.0000
vt 0.6180 0.6412 0.0000
vt 0.6345 0.6013 0.0000
vt 0.7142 0.6810 0.0000
vt 0.6416 0.5984 0.0000
vt 0.7142 0.6013 0.0000
vt 0.7308 0.6412 0.0000
vt 0.6744 0.6975 0.0000
vt 0.2792 0.7305 0.0000
vt 0.1026 0.7314 0.0000
vt 0.1024 0.6949 0.0000
vt 0.2790 0.6940 0.0000
vt 0.1027 0.7492 0.0000
vt 0.0662 0.7492 0.0000
vt 0.0662 0.7314 0.0000
vt 0.0590 0.9118 0.0000
vt 0.0503 0.8930 0.0000
vt 0.0855 0.8824 0.0000
vt 0.0930 0.8943 0.0000
vt 0.0455 0.7772 0.0000
vt 0.0836 0.7779 0.0000
vt 0.0831 0.8654 0.0000
vt 0.0455 0.8691 0.0000
vt 0.1000 0.8725 0.0000
vt 0.1435 0.9756 0.0000
vt 0.1113 0.9961 0.0000
vt 0.1533 0.9730 0.0000
vt 0.2289 0.8770 0.0000
vt 0.1907 0.8780 0.0000
vt 0.1876 0.7668 0.0000
vt 0.2257 0.7658 0.0000
vt 0.8982 0.0685 0.0000
vt 0.9307 0.0685 0.0000
vt 0.9307 0.7849 0.0000
vt 0.8982 0.7849 0.0000
vt 0.9632 0.0685 0.0000
vt 0.9632 0.7849 0.0000
vt 0.8332 0.0685 0.0000
vt 0.8657 0.0685 0.0000
vt 0.8657 0.7849 0.0000
vt 0.8332 0.7849 0.0000
vt 0.9409 0.0580 0.0000
vt 0.8560 0.0568 0.0000
vt 0.8688 0.0269 0.0000
vt 0.8990 0.0149 0.0000
vt 0.9289 0.0278 0.0000
vt 0.7447 0.0236 0.0000
vt 0.8296 0.0276 0.0000
vt 0.8158 0.0570 0.0000
vt 0.7558 0.0542 0.0000
vt 0.7852 0.0681 0.0000
vt 0.8719 0.8092 1.0000
vt 0.9324 0.8092 1.0000
vt 0.9324 0.8604 1.0000
vt 0.8719 0.8604 1.0000
vt 0.9930 0.8092 1.0000
vt 0.9930 0.8604 1.0000
vt 0.7509 0.8092 1.0000
vt 0.8114 0.8092 1.0000
vt 0.8114 0.8604 1.0000
vt 0.7509 0.8604 1.0000
vt 0.8096 0.8852 0.2500
vt 0.9677 0.8852 0.2500
vt 0.9445 0.9411 0.2500
vt 0.8327 0.9411 0.2500
vt 0.8886 0.9643 0.2500
vt 0.4039 0.5603 0.0000
vt 0.4371 0.5568 0.0000
vt 0.4058 0.9749 0.0000
vt 0.4810 0.9669 0.0000
vt 0.2793 0.7483 0.0000
vt 0.1012 0.7800 0.0000
vt 0.2278 0.9695 0.0000
vt 0.1906 0.9684 0.0000
# 92 texture coords

g cañon
s 16
f 1/1/1 2/2/1 3/3/1 4/4/1 
s 32
f 2/2/2 5/5/2 6/6/2 3/3/2 
s 8
f 7/7/3 8/8/4 9/9/4 10/10/3 
f 8/8/4 11/11/5 12/12/6 9/9/4 
f 13/13/7 14/14/8 15/15/8 16/16/7 
f 14/14/8 17/17/9 18/18/10 15/15/8 
f 17/17/9 7/7/3 10/10/3 18/18/10 
s 1
f 9/19/11 12/20/11 19/21/12 18/22/11 
f 19/21/12 20/23/11 16/24/11 18/22/11 
f 16/24/11 15/25/11 18/22/11 
f 10/26/11 9/19/11 18/22/11 
s 16
f 21/27/13 22/28/13 23/29/13 24/30/13 
s 32
f 25/31/14 26/32/14 23/33/14 22/28/14 
s 16
f 27/34/3 28/35/3 29/36/3 30/37/3 
s 32
f 31/38/15 32/39/15 33/40/16 34/41/16 
s 4
f 30/37/11 29/36/11 33/40/11 35/42/11 
s 32
f 29/36/17 28/35/17 34/41/16 33/40/16 
s off
f 27/34/18 30/37/18 36/43/18 37/44/18 
f 30/37/12 35/42/12 38/45/12 36/43/12 
f 35/46/19 39/47/19 40/48/19 38/49/19 
s 8
f 41/50/3 42/51/4 43/52/4 44/53/3 
f 42/51/4 45/54/2 46/55/2 43/52/4 
f 47/56/20 48/57/9 49/58/9 50/59/20 
f 48/57/9 41/50/3 44/53/3 49/58/9 
s 1
f 47/60/21 45/61/22 42/62/23 41/63/24 
f 48/64/25 47/60/21 41/63/24 
f 46/65/11 50/66/11 49/67/11 43/68/11 
f 44/69/11 43/68/11 49/67/11 
s 8
f 51/70/26 52/71/4 53/72/27 54/73/26 
f 52/71/4 55/74/2 56/75/2 53/72/27 
f 57/76/20 58/77/10 59/78/9 60/79/20 
f 58/77/10 51/70/26 54/73/26 59/78/9 
s 1
f 56/80/11 60/81/28 59/82/28 53/83/12 
f 54/84/12 53/83/12 59/82/28 
s 4
f 27/37/29 39/42/29 34/40/29 28/36/29 
s off
f 27/37/30 37/43/30 40/45/30 39/42/30 
s 1
f 17/22/31 14/25/29 13/24/32 61/21/33 
f 13/24/32 62/23/34 61/21/33 
f 61/21/33 11/20/35 8/19/36 17/22/31 
f 7/26/29 17/22/31 8/19/36 
f 58/82/37 57/81/37 55/80/29 52/83/30 
f 51/84/30 58/82/37 52/83/30 
f 63/67/38 47/66/21 64/65/29 65/68/29 
f 66/69/29 63/67/38 65/68/29 
s 2
f 2/2/29 1/85/29 67/86/29 5/5/29 
s 4
f 4/87/28 3/3/28 6/6/28 68/88/28 
s 2
f 22/28/39 21/27/40 69/89/40 25/31/39 
s 4
f 35/42/11 33/40/11 32/39/11 70/90/11 
s 8
f 39/47/20 35/46/20 70/91/20 71/92/7 
s 2
f 24/27/41 23/28/42 26/31/42 72/89/43 
s 4
f 34/40/29 39/42/29 71/90/29 31/39/29 
s 16
f 73/1/44 74/4/44 75/3/44 76/2/44 
s 32
f 76/2/2 75/3/2 6/6/2 5/5/2 
s 8
f 77/7/45 78/10/46 79/9/47 80/8/47 
f 80/8/47 79/9/47 81/12/48 82/11/48 
f 13/13/7 16/16/7 83/15/49 84/14/49 
f 84/14/49 83/15/49 85/18/50 86/17/50 
f 86/17/50 85/18/50 78/10/46 77/7/45 
s 1
f 85/22/12 83/25/11 16/24/11 87/21/11 
f 16/24/11 20/23/11 87/21/11 
f 87/21/11 81/20/11 79/19/12 85/22/12 
f 78/26/12 85/22/12 79/19/12 
s 16
f 88/27/45 89/30/45 90/29/46 91/28/46 
s 32
f 25/31/14 91/28/14 90/33/14 26/32/14 
s 16
f 92/34/45 93/37/45 94/36/45 95/35/45 
s 32
f 31/38/15 96/41/51 97/40/51 32/39/15 
s 4
f 93/37/11 98/42/11 97/40/11 94/36/11 
s 32
f 94/36/52 97/40/51 96/41/51 95/35/52 
s off
f 92/34/53 99/44/53 100/43/53 93/37/53 
f 93/37/11 100/43/11 101/45/11 98/42/11 
f 98/46/54 101/49/54 102/48/54 103/47/54 
s 8
f 104/50/45 105/53/46 106/52/47 107/51/47 
f 107/51/47 106/52/47 46/55/2 45/54/2 
f 47/56/20 50/59/20 108/58/50 109/57/50 
f 109/57/50 108/58/50 105/53/46 104/50/45 
s 1
f 107/62/55 45/61/22 47/60/21 104/63/56 
f 109/64/57 104/63/56 47/60/21 
f 108/67/11 50/66/11 46/65/11 106/68/11 
f 105/69/11 108/67/11 106/68/11 
s 8
f 110/70/45 111/73/45 112/72/47 113/71/47 
f 113/71/47 112/72/47 56/75/2 55/74/2 
f 57/76/20 60/79/20 114/78/50 115/77/50 
f 115/77/50 114/78/50 111/73/45 110/70/45 
s 1
f 114/82/58 60/81/28 56/80/11 112/83/11 
f 111/84/11 114/82/58 112/83/11 
s 4
f 92/37/29 95/36/29 96/40/29 103/42/29 
s off
f 92/37/29 103/42/29 102/45/29 99/43/29 
s 1
f 80/19/59 82/20/60 116/21/61 86/22/62 
f 116/21/61 62/23/34 13/24/32 86/22/62 
f 13/24/32 84/25/29 86/22/62 
f 77/26/29 80/19/59 86/22/62 
f 55/80/29 57/81/37 115/82/63 113/83/29 
f 110/84/29 113/83/29 115/82/63 
f 64/65/29 47/66/21 117/67/64 118/68/29 
f 119/69/29 118/68/29 117/67/64 
s 2
f 76/2/29 5/5/29 67/86/29 73/85/29 
s 4
f 74/87/28 68/88/28 6/6/28 75/3/28 
s 2
f 91/28/40 25/31/39 69/89/40 88/27/40 
s 4
f 98/42/11 70/90/11 32/39/11 97/40/11 
s 8
f 103/47/65 71/92/7 70/91/20 98/46/65 
s 2
f 89/27/66 72/89/43 26/31/42 90/28/42 
s 4
f 96/40/29 31/39/29 71/90/29 103/42/29 
s 8
f 120/70/26 121/71/4 122/72/4 123/73/26 
f 121/71/4 124/74/2 125/75/2 122/72/4 
f 126/76/65 127/77/10 128/78/9 129/79/20 
f 127/77/10 120/70/26 123/73/26 128/78/9 
s 1
f 125/80/11 129/81/11 128/82/11 122/83/11 
f 123/84/12 122/83/11 128/82/11 
f 127/82/37 126/81/63 124/80/29 121/83/29 
f 120/84/29 127/82/37 121/83/29 
s 8
f 130/70/45 131/73/46 132/72/47 133/71/47 
f 133/71/47 132/72/47 125/75/2 124/74/2 
f 126/76/65 129/79/20 134/78/50 135/77/50 
f 135/77/50 134/78/50 131/73/46 130/70/45 
s 1
f 134/82/12 129/81/11 125/80/11 132/83/11 
f 131/84/11 134/82/12 132/83/11 
f 124/80/29 126/81/63 135/82/30 133/83/29 
f 130/84/29 133/83/29 135/82/30 
s 8
f 136/70/67 137/71/4 138/72/4 139/73/26 
f 137/71/4 140/74/68 141/75/15 138/72/4 
f 142/76/65 143/77/10 144/78/10 145/79/65 
f 143/77/10 136/70/67 139/73/26 144/78/10 
s 1
f 141/80/11 145/81/11 144/82/11 138/83/11 
f 139/84/12 138/83/11 144/82/11 
f 143/82/29 142/81/30 140/80/29 137/83/29 
f 136/84/29 143/82/29 137/83/29 
s 8
f 146/70/45 147/73/46 148/72/47 149/71/47 
f 149/71/47 148/72/47 141/75/15 140/74/68 
f 142/76/65 145/79/65 150/78/69 151/77/50 
f 151/77/50 150/78/69 147/73/46 146/70/45 
s 1
f 150/82/12 145/81/11 141/80/11 148/83/11 
f 147/84/11 150/82/12 148/83/11 
f 140/80/29 142/81/30 151/82/30 149/83/29 
f 146/84/29 149/83/29 151/82/30 
# 108 polygons - 26 triangles

