# 3ds Max Wavefront OBJ Exporter v0.97b - (c)2007 guruware
# File Created: 25.03.2014 23:14:46

#
# object Mortero001
#

v  10.8092 -0.0000 -0.0000
v  7.5867 0.0000 -7.7799
v  7.5867 15.9022 -7.7799
v  10.8092 15.9022 0.0000
v  -0.1932 0.0000 -11.0025
v  -0.1932 15.9022 -11.0025
v  -0.1932 -0.0000 11.0025
v  7.5867 -0.0000 7.7799
v  7.5867 15.9022 7.7799
v  -0.1932 15.9022 11.0025
v  10.7437 0.9119 2.8506
v  9.8085 0.9119 0.5928
v  9.8085 65.4381 0.5928
v  10.7437 65.4381 2.8506
v  7.5507 0.9119 -0.3425
v  7.5507 65.4381 -0.3424
v  5.2929 0.9119 0.5928
v  5.2929 65.4381 0.5928
v  5.2929 0.9119 5.1083
v  7.5507 0.9119 6.0436
v  7.5507 65.4381 6.0436
v  5.2929 65.4381 5.1084
v  9.8085 0.9119 5.1083
v  9.8085 65.4381 5.1084
v  4.3577 65.4381 2.8506
v  7.1476 -3.3651 -0.0000
v  4.9975 -3.3651 -5.1908
v  4.9975 61.1638 -5.1908
v  7.1476 61.1638 0.0000
v  -0.1932 -3.3651 -7.3409
v  -0.1932 61.1638 -7.3409
v  -0.1932 -3.3651 7.3409
v  4.9975 -3.3651 5.1908
v  4.9975 61.1638 5.1908
v  -0.1932 61.1638 7.3409
v  8.7165 39.0853 -0.0000
v  6.1069 39.0853 -6.3001
v  6.1069 47.0736 -6.3001
v  8.7165 47.0736 -0.0000
v  -0.1932 39.0853 -8.9097
v  -0.1932 47.0736 -8.9097
v  -0.1932 39.0853 8.9097
v  6.1069 39.0853 6.3001
v  6.1069 47.0736 6.3001
v  -0.1932 47.0736 8.9097
v  4.3577 0.9227 2.8506
v  -11.1957 0.0000 -0.0000
v  -11.1957 15.9022 0.0000
v  -7.9732 15.9022 -7.7799
v  -7.9732 0.0000 -7.7799
v  -7.9732 15.9022 7.7799
v  -7.9732 -0.0000 7.7799
v  -11.1302 0.9119 2.8506
v  -11.1302 65.4381 2.8506
v  -10.1950 65.4381 0.5928
v  -10.1950 0.9119 0.5928
v  -7.9372 65.4381 -0.3424
v  -7.9372 0.9119 -0.3424
v  -5.6794 65.4381 0.5928
v  -5.6794 0.9119 0.5928
v  -5.6794 0.9119 5.1084
v  -5.6794 65.4381 5.1084
v  -7.9372 65.4381 6.0436
v  -7.9372 0.9119 6.0436
v  -10.1950 65.4381 5.1084
v  -10.1950 0.9119 5.1083
v  -4.7442 65.4381 2.8506
v  -7.5341 -3.3651 -0.0000
v  -7.5341 61.1638 0.0000
v  -5.3840 61.1638 -5.1908
v  -5.3840 -3.3651 -5.1908
v  -5.3840 61.1638 5.1908
v  -5.3840 -3.3651 5.1908
v  -9.1029 39.0853 -0.0000
v  -9.1029 47.0736 -0.0000
v  -6.4934 47.0736 -6.3001
v  -6.4934 39.0853 -6.3001
v  -6.4934 47.0736 6.3001
v  -6.4934 39.0853 6.3001
v  -4.7442 0.9227 2.8506
# 80 vertices

vn 1.0000 -0.0000 -0.0000
vn 0.7071 -0.0000 -0.7071
vn -0.0000 0.0000 -1.0000
vn 0.0000 -0.0000 1.0000
vn 0.7071 -0.0000 0.7071
vn -0.0000 -1.0000 -0.0000
vn 0.0000 1.0000 0.0000
vn 1.0000 -0.0000 0.0000
vn -0.3827 0.0000 -0.9239
vn -0.3827 -0.0000 0.9239
vn -0.0000 -0.0000 -1.0000
vn 0.0000 0.0000 1.0000
vn -0.0019 -1.0000 -0.0000
vn -0.0116 -0.9999 -0.0000
vn -1.0000 -0.0000 -0.0000
vn -0.7071 0.0000 -0.7071
vn -0.7071 -0.0000 0.7071
vn 0.0000 -1.0000 0.0000
vn 0.0000 -1.0000 -0.0000
vn -0.0000 1.0000 0.0000
vn -1.0000 0.0000 0.0000
vn 0.0000 0.0000 -1.0000
vn 0.3827 0.0000 -0.9239
vn 0.3827 -0.0000 0.9239
vn -0.0000 -0.0000 1.0000
vn -1.0000 0.0000 -0.0000
vn 0.0019 -1.0000 -0.0000
vn 0.0116 -0.9999 -0.0000
# 28 vertex normals

vt 0.5574 0.1303 0.0000
vt 0.6320 0.1303 0.0000
vt 0.6320 0.2714 0.0000
vt 0.5574 0.2714 0.0000
vt 0.7067 0.1303 0.0000
vt 0.7067 0.2714 0.0000
vt 0.4080 0.1303 0.0000
vt 0.4827 0.1303 0.0000
vt 0.4827 0.2714 0.0000
vt 0.4080 0.2714 0.0000
vt 0.4534 0.1100 0.0000
vt 0.4802 0.0403 0.0000
vt 0.5485 0.0099 0.0000
vt 0.6485 0.1050 0.0000
vt 0.6182 0.0368 0.0000
vt 0.4497 0.3072 0.0000
vt 0.6448 0.3120 0.0000
vt 0.6146 0.3803 0.0000
vt 0.4766 0.3769 0.0000
vt 0.5449 0.4072 0.0000
vt 0.3214 0.0121 0.0000
vt 0.3431 0.0121 0.0000
vt 0.3431 0.5844 0.0000
vt 0.3214 0.5844 0.0000
vt 0.3647 0.0121 0.0000
vt 0.3647 0.5844 0.0000
vt 0.3864 0.0121 0.0000
vt 0.3864 0.5844 0.0000
vt 0.2564 0.0121 0.0000
vt 0.2781 0.0121 0.0000
vt 0.2781 0.5844 0.0000
vt 0.2564 0.5844 0.0000
vt 0.2997 0.0121 0.0000
vt 0.2997 0.5844 0.0000
vt 0.2537 0.6619 0.0000
vt 0.2454 0.6419 0.0000
vt 0.2537 0.6218 0.0000
vt 0.2937 0.6619 0.0000
vt 0.2737 0.6136 0.0000
vt 0.2937 0.6218 0.0000
vt 0.3020 0.6419 0.0000
vt 0.2737 0.6702 0.0000
vt 0.1164 0.0184 0.0000
vt 0.1663 0.0184 0.0000
vt 0.1663 0.5908 0.0000
vt 0.1164 0.5908 0.0000
vt 0.2161 0.0184 0.0000
vt 0.2161 0.5908 0.0000
vt 0.0168 0.0184 0.0000
vt 0.0666 0.0184 0.0000
vt 0.0666 0.5908 0.0000
vt 0.0168 0.5908 0.0000
vt 0.1649 0.6156 0.0000
vt 0.1452 0.6613 0.0000
vt 0.0989 0.6798 0.0000
vt 0.0347 0.6137 0.0000
vt 0.0531 0.6600 0.0000
vt 0.5418 0.4438 0.0000
vt 0.6022 0.4438 0.0000
vt 0.6022 0.5147 0.0000
vt 0.5418 0.5147 0.0000
vt 0.6627 0.4438 0.0000
vt 0.6627 0.5147 0.0000
vt 0.4208 0.4438 0.0000
vt 0.4813 0.4438 0.0000
vt 0.4813 0.5147 0.0000
vt 0.4208 0.5147 0.0000
vt 0.4658 0.5284 0.0000
vt 0.6238 0.5284 0.0000
vt 0.6006 0.5843 0.0000
vt 0.4889 0.5843 0.0000
vt 0.5448 0.6074 0.0000
# 72 texture coords

g Mortero001
s 8
f 1/1/1 2/2/2 3/3/2 4/4/1 
f 2/2/2 5/5/3 6/6/3 3/3/2 
f 7/7/4 8/8/5 9/9/5 10/10/4 
f 8/8/5 1/1/1 4/4/1 9/9/5 
s 1
f 5/11/6 2/12/6 1/13/6 7/14/6 
f 8/15/6 7/14/6 1/13/6 
f 6/16/7 10/17/7 9/18/7 3/19/7 
f 4/20/7 3/19/7 9/18/7 
s 8
f 11/21/8 12/22/2 13/23/2 14/24/1 
f 12/22/2 15/25/3 16/26/3 13/23/2 
f 15/25/3 17/27/9 18/28/9 16/26/3 
f 19/29/10 20/30/4 21/31/4 22/32/10 
f 20/30/4 23/33/5 24/34/5 21/31/4 
f 23/33/5 11/21/8 14/24/1 24/34/5 
s 1
f 13/35/7 16/36/7 18/37/7 24/38/7 
f 18/37/7 25/39/7 22/40/7 24/38/7 
f 22/40/7 21/41/7 24/38/7 
f 14/42/7 13/35/7 24/38/7 
s 8
f 26/43/1 27/44/2 28/45/2 29/46/1 
f 27/44/2 30/47/3 31/48/3 28/45/2 
f 32/49/4 33/50/5 34/51/5 35/52/4 
f 33/50/5 26/43/1 29/46/1 34/51/5 
s 1
f 30/53/6 27/54/6 26/55/6 32/56/6 
f 33/57/6 32/56/6 26/55/6 
s 8
f 36/58/1 37/59/2 38/60/2 39/61/1 
f 37/59/2 40/62/11 41/63/3 38/60/2 
f 42/64/4 43/65/5 44/66/5 45/67/12 
f 43/65/5 36/58/1 39/61/1 44/66/5 
s 1
f 41/68/7 45/69/7 44/70/7 38/71/7 
f 39/72/7 38/71/7 44/70/7 
f 23/38/6 20/41/6 19/40/13 17/37/13 
f 19/40/13 46/39/14 17/37/13 
f 17/37/13 15/36/6 12/35/6 23/38/6 
f 11/42/6 23/38/6 12/35/6 
f 43/70/6 42/69/6 40/68/6 37/71/6 
f 36/72/6 43/70/6 37/71/6 
f 29/55/7 28/54/7 31/53/7 35/56/7 
f 34/57/7 29/55/7 35/56/7 
s 8
f 47/1/15 48/4/15 49/3/16 50/2/16 
f 50/2/16 49/3/16 6/6/3 5/5/3 
f 7/7/4 10/10/4 51/9/17 52/8/17 
f 52/8/17 51/9/17 48/4/15 47/1/15 
s 1
f 47/13/6 50/12/18 5/11/6 7/14/6 
f 52/15/19 47/13/6 7/14/6 
f 51/18/7 10/17/7 6/16/7 49/19/20 
f 48/20/20 51/18/7 49/19/20 
s 8
f 53/21/21 54/24/21 55/23/16 56/22/16 
f 56/22/16 55/23/16 57/26/22 58/25/3 
f 58/25/3 57/26/22 59/28/23 60/27/23 
f 61/29/24 62/32/24 63/31/4 64/30/25 
f 64/30/25 63/31/4 65/34/17 66/33/17 
f 66/33/17 65/34/17 54/24/21 53/21/21 
s 1
f 65/38/7 63/41/7 62/40/7 59/37/7 
f 62/40/7 67/39/7 59/37/7 
f 59/37/7 57/36/7 55/35/7 65/38/7 
f 54/42/7 65/38/7 55/35/7 
s 8
f 68/43/26 69/46/21 70/45/16 71/44/16 
f 71/44/16 70/45/16 31/48/3 30/47/3 
f 32/49/4 35/52/4 72/51/17 73/50/17 
f 73/50/17 72/51/17 69/46/21 68/43/26 
s 1
f 68/55/6 71/54/19 30/53/6 32/56/6 
f 73/57/6 68/55/6 32/56/6 
s 8
f 74/58/21 75/61/26 76/60/16 77/59/16 
f 77/59/16 76/60/16 41/63/3 40/62/11 
f 42/64/4 45/67/12 78/66/17 79/65/17 
f 79/65/17 78/66/17 75/61/26 74/58/21 
s 1
f 78/70/7 45/69/7 41/68/7 76/71/7 
f 75/72/7 78/70/7 76/71/7 
f 56/35/19 58/36/19 60/37/27 66/38/19 
f 60/37/27 80/39/28 61/40/27 66/38/19 
f 61/40/27 64/41/6 66/38/19 
f 53/42/6 56/35/19 66/38/19 
f 40/68/6 42/69/6 79/70/6 77/71/6 
f 74/72/6 77/71/6 79/70/6 
f 31/53/7 70/54/7 69/55/7 35/56/7 
f 72/57/7 35/56/7 69/55/7 
# 56 polygons - 20 triangles

