# 3ds Max Wavefront OBJ Exporter v0.97b - (c)2007 guruware
# File Created: 09.04.2014 22:00:32

#
# object Mailbox
#

v  -23.2541 7.5915 20.7444
v  -23.2541 0.0000 20.7444
v  23.2541 0.0000 20.7444
v  23.2541 7.5915 20.7444
v  23.2541 0.0000 -21.3783
v  23.2541 7.5915 -21.3783
v  -23.2541 0.0000 -21.3783
v  -23.2541 7.5915 -21.3783
v  11.1320 58.5247 19.2989
v  -11.1321 58.5247 19.2989
v  21.8087 7.5915 19.2989
v  21.8087 58.5247 19.2989
v  -21.8088 7.5915 19.2989
v  -21.8088 58.5247 19.2989
v  -21.8088 7.5915 -19.9329
v  21.8087 7.5915 -19.9329
v  -3.9151 80.7958 -0.3170
v  -21.8088 74.9768 19.2989
v  21.8087 74.9768 19.2989
v  3.9152 80.7958 -0.3170
v  21.8087 74.9768 -19.9329
v  -21.8088 74.9768 -19.9329
v  0.0001 65.7142 19.2989
v  21.8087 74.1496 19.2989
v  -21.8088 74.1496 19.2989
v  -21.8088 65.7142 19.2989
v  21.8087 65.7142 19.2989
v  11.1320 63.4780 19.7638
v  -11.1321 63.4780 19.7638
v  -11.1321 58.5247 21.3783
v  11.1320 58.5247 21.3783
v  0.0001 65.7142 19.7638
v  21.8087 63.4780 19.2989
v  11.1320 63.4780 19.2989
v  -11.1321 63.4780 19.2989
v  -21.8088 63.4780 19.2989
v  22.8851 74.1496 20.3753
v  22.8851 74.9768 20.3753
v  -22.8852 74.9768 20.3753
v  -22.8852 74.1496 20.3753
v  22.8851 74.1496 -21.0093
v  22.8851 74.9768 -21.0093
v  -22.8852 74.1496 -21.0093
v  -22.8852 74.9768 -21.0093
v  21.8087 74.1496 -19.9329
v  -21.8088 74.1496 -19.9329
v  -21.8088 65.7142 -19.9329
v  -21.8088 63.1156 -19.9329
v  -21.8088 58.5247 -19.9329
v  21.8087 63.1156 -19.9329
# 50 vertices

vn 0.0000 0.0000 1.0000
vn 1.0000 0.0000 -0.0000
vn 0.0000 0.0000 -1.0000
vn -1.0000 0.0000 -0.0000
vn 0.0000 1.0000 -0.0000
vn -0.0839 0.9965 0.0000
vn -0.0377 0.9985 0.0387
vn 0.0377 0.9985 0.0387
vn 0.0839 0.9965 0.0000
vn 0.0377 0.9985 -0.0387
vn -0.0377 0.9985 -0.0387
vn 0.0000 0.2765 0.9610
vn 0.0000 0.3099 0.9508
vn 0.0000 -1.0000 -0.0000
vn 0.1969 0.9804 -0.0000
vn -0.1969 0.9804 -0.0000
# 16 vertex normals

vt 0.0751 0.9705 0.0000
vt 0.0348 0.9719 0.0000
vt 0.0260 0.7252 0.0000
vt 0.0663 0.7240 0.0000
vt 0.0204 0.5017 0.0000
vt 0.0606 0.5006 0.0000
vt 0.0142 0.2550 0.0000
vt 0.0544 0.2540 0.0000
vt 0.0086 0.0316 0.0000
vt 0.0488 0.0306 0.0000
vt 0.3864 0.5557 0.0000
vt 0.3854 0.6859 0.0000
vt 0.0891 0.4914 0.0000
vt 0.3869 0.4933 0.0000
vt 0.0871 0.7464 0.0000
vt 0.3848 0.7484 0.0000
vt 0.0742 0.7313 0.0000
vt 0.0825 0.9626 0.0000
vt 0.0567 0.0381 0.0000
vt 0.0619 0.2461 0.0000
vt 0.0623 0.2614 0.0000
vt 0.0681 0.4928 0.0000
vt 0.0685 0.5081 0.0000
vt 0.0737 0.7161 0.0000
vt 0.6102 0.6472 0.0000
vt 0.4922 0.7505 0.0000
vt 0.4982 0.4946 0.0000
vt 0.6112 0.6038 0.0000
vt 0.7293 0.5005 0.0000
vt 0.7232 0.7564 0.0000
vt 0.4280 0.6211 0.0000
vt 0.4788 0.4938 0.0000
vt 0.4760 0.7490 0.0000
vt 0.4268 0.7486 0.0000
vt 0.4292 0.4935 0.0000
vt 0.5436 0.3370 0.0000
vt 0.5447 0.4498 0.0000
vt 0.5183 0.4501 0.0000
vt 0.5172 0.3373 0.0000
vt 0.5554 0.3933 0.0000
vt 0.4160 0.4935 0.0000
vt 0.4154 0.5559 0.0000
vt 0.4144 0.6861 0.0000
vt 0.4137 0.7486 0.0000
vt 0.5077 0.4502 0.0000
vt 0.5066 0.3374 0.0000
vt 0.5203 0.3272 0.0000
vt 0.5443 0.3348 0.0000
vt 0.5459 0.3367 0.0000
vt 0.5576 0.3933 0.0000
vt 0.5470 0.4501 0.0000
vt 0.5454 0.4520 0.0000
vt 0.5217 0.4601 0.0000
vt 0.4864 0.4881 0.0000
vt 0.4925 0.4884 0.0000
vt 0.4866 0.7561 0.0000
vt 0.4820 0.7556 0.0000
vt 0.7348 0.4900 0.0000
vt 0.7349 0.4948 0.0000
vt 0.4930 0.4835 0.0000
vt 0.7336 0.7626 0.0000
vt 0.7287 0.7625 0.0000
vt 0.7399 0.4951 0.0000
vt 0.4866 0.7610 0.0000
vt 0.7285 0.7675 0.0000
vt 0.4995 0.4773 0.0000
vt 0.7287 0.4836 0.0000
vt 0.7461 0.5015 0.0000
vt 0.7401 0.7565 0.0000
vt 0.7220 0.7736 0.0000
vt 0.4927 0.7675 0.0000
vt 0.8960 0.8591 0.0000
vt 0.8960 0.8074 0.0000
vt 0.9531 0.8074 0.0000
vt 0.9531 0.8591 0.0000
vt 0.4314 0.0087 0.0000
vt 0.4807 0.0089 0.0000
vt 0.4797 0.2640 0.0000
vt 0.4163 0.0086 0.0000
vt 0.3894 0.0085 0.0000
vt 0.0917 0.0073 0.0000
vt 0.4152 0.2638 0.0000
vt 0.0907 0.2622 0.0000
vt 0.4746 0.9784 0.0000
vt 0.4253 0.9781 0.0000
vt 0.4101 0.9780 0.0000
vt 0.3833 0.9778 0.0000
vt 0.0855 0.9758 0.0000
# 88 texture coords

g Mailbox
s 1
f 1/1/1 2/2/1 3/3/1 4/4/1 
s 2
f 4/4/2 3/3/2 5/5/2 6/6/2 
s 1
f 6/6/3 5/5/3 7/7/3 8/8/3 
s 2
f 8/8/4 7/7/4 2/9/4 1/10/4 
s 1
f 9/11/1 10/12/1 11/13/1 12/14/1 
f 13/15/1 11/13/1 10/12/1 14/16/1 
s 4
f 4/4/5 11/17/5 13/18/5 1/1/5 
f 1/10/5 13/19/5 15/20/5 8/8/5 
f 8/8/5 15/21/5 16/22/5 6/6/5 
f 6/6/5 16/23/5 11/24/5 4/4/5 
s 1
f 17/25/6 18/26/7 19/27/8 20/28/9 
f 19/27/8 21/29/10 20/28/9 
f 20/28/9 21/29/10 22/30/11 17/25/6 
f 22/30/11 18/26/7 17/25/6 
f 23/31/1 24/32/1 25/33/1 26/34/1 
f 27/35/1 24/32/1 23/31/1 
f 28/36/12 29/37/12 30/38/13 31/39/13 
f 32/40/1 29/37/12 28/36/12 
f 9/11/1 12/14/1 33/41/1 34/42/1 
f 34/42/1 33/41/1 27/35/1 23/31/1 
f 35/43/1 23/31/1 26/34/1 36/44/1 
f 35/43/1 36/44/1 14/16/1 10/12/1 
s 2
f 30/38/14 10/45/14 9/46/14 31/39/14 
s 4
f 28/36/2 31/39/2 9/47/2 34/48/2 
s 2
f 28/36/15 34/49/15 23/50/5 32/40/5 
f 32/40/5 23/50/5 35/51/16 29/37/16 
s 4
f 29/37/4 35/52/4 10/53/4 30/38/4 
s 2
f 37/54/1 38/55/1 39/56/1 40/57/1 
s 4
f 41/58/2 42/59/2 38/55/2 37/60/2 
s 2
f 43/61/3 44/62/3 42/59/3 41/63/3 
s 4
f 40/64/4 39/56/4 44/62/4 43/65/4 
s 1
f 38/55/5 19/27/8 18/26/7 39/56/5 
f 39/56/5 18/26/7 22/30/11 44/62/5 
f 44/62/5 22/30/11 21/29/10 42/59/5 
f 42/59/5 21/29/10 19/27/8 38/55/5 
s 8
f 40/57/14 25/33/14 24/32/14 37/54/14 
f 37/60/14 24/66/14 45/67/14 41/58/14 
f 41/63/14 45/68/14 46/69/14 43/61/14 
f 43/65/14 46/70/14 25/71/14 40/64/14 
s 4
f 2/72/14 7/73/14 5/74/14 3/75/14 
s 1
f 47/76/3 46/77/3 45/78/3 48/79/3 
f 49/80/3 48/79/3 45/78/3 15/81/3 
f 15/81/3 45/78/3 50/82/3 
f 15/81/3 50/82/3 16/83/3 
s 2
f 26/34/4 25/33/4 46/84/4 36/44/4 
f 47/85/4 14/16/4 36/44/4 46/84/4 
f 14/16/4 47/85/4 48/86/4 49/87/4 
f 13/15/4 14/16/4 49/87/4 15/88/4 
f 45/78/2 24/32/2 50/82/2 
f 50/82/2 24/32/2 16/83/2 
f 16/83/2 24/32/2 27/35/2 33/41/2 
f 16/83/2 33/41/2 12/14/2 11/13/2 
# 44 polygons - 8 triangles

