# 3ds Max Wavefront OBJ Exporter v0.97b - (c)2007 guruware
# File Created: 26.06.2014 18:26:19

#
# object Box001
#

v  -39.7508 0.0000 -45.1459
v  -39.7508 0.0000 -58.2201
v  -9.5236 0.0000 -58.2201
v  -9.5236 0.0000 -45.1459
v  -18.4180 53.0764 -43.9515
v  -6.2214 44.8481 -43.9515
v  -6.2214 44.8481 -59.1795
v  -18.4180 53.0764 -59.1795
v  -30.6146 53.0764 -43.9515
v  -30.6146 53.0764 -59.1795
v  -42.8113 44.8481 -43.9515
v  -42.8113 44.8481 -59.1795
v  -8.5535 43.7319 -44.7037
v  -19.1036 50.8500 -44.7297
v  -37.6558 2.2579 -45.8188
v  -11.6073 2.2579 -45.8188
v  -29.9290 50.8500 -44.7298
v  -40.4857 43.7274 -44.7038
v  -11.6073 2.2421 -45.0932
v  -37.6558 2.2421 -45.0932
v  -8.5535 43.7161 -43.9781
v  -19.1036 50.8343 -44.0042
v  -29.9290 50.8343 -44.0042
v  -40.4857 43.7117 -43.9782
# 24 vertices

vn 0.0000 -1.0000 -0.0000
vn 0.2813 0.9596 -0.0000
vn 0.5665 0.8240 -0.0000
vn -0.2813 0.9596 -0.0000
vn -0.5547 0.8321 -0.0000
vn 0.0000 0.0000 -1.0000
vn 0.0000 -0.0174 -0.9998
vn 0.0333 -0.0333 -0.9989
vn -0.0125 -0.0333 -0.9994
vn -0.9977 -0.0679 -0.0000
vn -0.0167 -0.0333 0.9993
vn -0.0161 0.0000 0.9999
vn 0.0000 -0.0222 0.9998
vn 0.0000 -0.0242 0.9997
vn 0.0000 0.0000 1.0000
vn 0.0322 -0.0322 0.9990
vn 0.9975 -0.0706 -0.0000
vn 0.0000 -0.0109 0.9999
vn 0.0000 -0.0283 0.9996
vn -0.0153 -0.0161 0.9998
vn 0.0000 -0.0081 1.0000
vn 0.0000 -0.0202 0.9998
vn 0.0000 0.9994 0.0338
vn -0.9975 0.0705 -0.0000
vn -0.5614 -0.8271 -0.0252
vn 0.0000 -0.9994 -0.0345
vn 0.5681 -0.8223 -0.0339
vn 0.9972 0.0753 -0.0000
# 28 vertex normals

vt 0.0770 0.1404 0.0000
vt 0.0220 0.1403 0.0000
vt 0.0224 0.0081 0.0000
vt 0.0774 0.0083 0.0000
vt 0.0814 0.4544 0.0000
vt 0.0817 0.5187 0.0000
vt 0.0176 0.5191 0.0000
vt 0.0173 0.4547 0.0000
vt 0.0813 0.4012 0.0000
vt 0.0172 0.4013 0.0000
vt 0.0813 0.3370 0.0000
vt 0.0172 0.3368 0.0000
vt 0.1964 0.2428 0.0000
vt 0.1431 0.2425 0.0000
vt 0.2379 0.0110 0.0000
vt 0.2500 0.2072 0.0000
vt 0.0900 0.2062 0.0000
vt 0.1057 0.0101 0.0000
vt 0.2413 0.4401 0.0000
vt 0.1952 0.4712 0.0000
vt 0.1142 0.2586 0.0000
vt 0.2281 0.2587 0.0000
vt 0.1478 0.4711 0.0000
vt 0.1017 0.4400 0.0000
vt 0.0783 0.7153 0.0000
vt 0.0232 0.7157 0.0000
vt 0.1572 0.7585 0.0000
vt 0.0433 0.7582 0.0000
vt 0.0342 0.7483 0.0000
vt 0.1663 0.7487 0.0000
vt 0.1701 0.9399 0.0000
vt 0.1803 0.9449 0.0000
vt 0.1239 0.9709 0.0000
vt 0.1269 0.9807 0.0000
vt 0.0766 0.9708 0.0000
vt 0.0736 0.9806 0.0000
vt 0.0305 0.9395 0.0000
vt 0.0203 0.9445 0.0000
vt 0.2287 0.4959 0.0000
vt 0.1153 0.4949 0.0000
vt 0.1146 0.4926 0.0000
vt 0.2295 0.4936 0.0000
vt 0.2404 0.6763 0.0000
vt 0.2428 0.6769 0.0000
vt 0.1945 0.7080 0.0000
vt 0.1955 0.7109 0.0000
vt 0.1468 0.7076 0.0000
vt 0.1458 0.7105 0.0000
vt 0.1015 0.6751 0.0000
vt 0.0991 0.6757 0.0000
# 50 texture coords

g Box001
s 2
f 1/1/1 2/2/1 3/3/1 4/4/1 
s 4
f 5/5/2 6/6/3 7/7/3 8/8/2 
f 9/9/4 5/5/2 8/8/2 10/10/4 
f 11/11/5 9/9/4 10/10/4 12/12/5 
s 8
f 10/13/6 8/14/6 2/15/7 12/16/8 
f 8/14/6 7/17/9 3/18/7 2/15/7 
s 16
f 11/11/10 12/12/10 2/2/10 1/1/10 
s 32
f 13/19/11 14/20/12 15/21/13 16/22/14 
f 17/23/15 18/24/16 15/21/13 14/20/12 
s 64
f 7/7/17 6/6/17 4/25/17 3/26/17 
s off
f 19/27/18 20/28/18 1/29/18 4/30/18 
f 21/31/19 19/27/19 4/30/19 6/32/19 
f 22/33/20 21/31/20 6/32/20 5/34/20 
f 23/35/18 22/33/18 5/34/18 9/36/18 
f 24/37/21 23/35/21 9/36/21 11/38/21 
f 20/28/22 24/37/22 11/38/22 1/29/22 
f 16/39/23 15/40/23 20/41/23 19/42/23 
f 13/43/24 16/39/24 19/42/24 21/44/24 
f 14/45/25 13/43/25 21/44/25 22/46/25 
f 17/47/26 14/45/26 22/46/26 23/48/26 
f 18/49/27 17/47/27 23/48/27 24/50/27 
f 15/40/28 18/49/28 24/50/28 20/41/28 
# 22 polygons

#
# object Box002
#

v  -46.7245 0.0000 41.0735
v  -46.7245 0.0000 -41.0735
v  -2.3082 0.0000 -41.0735
v  -2.3082 0.0000 41.0735
v  -46.7245 4.0187 -37.8770
v  -36.2215 4.0187 41.0735
v  -10.5327 4.0187 -41.0735
v  -43.6464 4.0187 -41.0735
v  -46.7245 4.0187 37.8770
v  -2.3082 4.0187 41.0735
v  -2.3082 4.0187 -22.2734
v  -46.7245 0.9406 -41.0735
v  -2.3082 0.9406 -41.0735
v  -46.7245 0.9406 41.0735
# 14 vertices

vn 0.0000 -1.0000 -0.0000
vn 0.0000 1.0000 -0.0000
vn 0.0000 0.0000 -1.0000
vn -1.0000 0.0000 -0.0000
vn 0.0000 0.0000 1.0000
vn 1.0000 0.0000 -0.0000
vn -0.5658 0.5665 -0.5991
vn 0.3467 0.9226 -0.1691
vn -0.1680 0.6884 0.7056
# 9 vertex normals

vt 0.7507 0.5970 0.0000
vt 0.7518 0.2511 0.0000
vt 0.9460 0.2517 0.0000
vt 0.9449 0.5976 0.0000
vt 0.7816 0.9618 0.0000
vt 0.8264 0.6311 0.0000
vt 0.9372 0.9757 0.0000
vt 0.7928 0.9733 0.0000
vt 0.7834 0.6425 0.0000
vt 0.9737 0.6315 0.0000
vt 0.9709 0.8990 0.0000
vt 0.9729 0.9896 0.0000
vt 0.7775 0.9872 0.0000
vt 0.7746 0.9794 0.0000
vt 0.9762 0.9813 0.0000
vt 0.7671 0.9743 0.0000
vt 0.7699 0.6268 0.0000
vt 0.7781 0.6231 0.0000
vt 0.7785 0.6188 0.0000
vt 0.9726 0.6137 0.0000
vt 0.9920 0.6331 0.0000
vt 0.9834 0.9796 0.0000
# 22 texture coords

g Box002
s 2
f 25/51/29 26/52/29 27/53/29 28/54/29 
s 4
f 29/55/30 30/56/30 31/57/30 32/58/30 
f 29/55/30 33/59/30 30/56/30 
f 34/60/30 35/61/30 31/57/30 30/56/30 
s 8
f 32/58/31 27/62/31 26/63/31 36/64/31 
f 37/65/31 27/62/31 32/58/31 31/57/31 
s 16
f 33/59/32 26/66/32 25/67/32 38/68/32 
f 36/64/32 26/66/32 33/59/32 29/55/32 
s 32
f 34/60/33 38/68/33 25/69/33 28/70/33 
f 34/60/33 30/56/33 38/68/33 
s 64
f 35/61/34 28/71/34 27/72/34 37/65/34 
f 28/71/34 35/61/34 34/60/34 
s off
f 36/64/35 29/55/35 32/58/35 
f 37/65/36 31/57/36 35/61/36 
f 38/68/37 30/56/37 33/59/37 
# 9 polygons - 6 triangles

#
# object Box003
#

v  17.8397 16.0263 -49.4293
v  17.8397 16.0263 -57.1137
v  26.4183 16.0263 -57.1137
v  26.4183 16.0263 -49.4293
v  17.8397 64.3367 -49.4293
v  26.4183 64.3367 -55.0392
v  26.4183 64.3367 -57.1137
v  17.8397 64.3367 -57.1137
v  22.4797 64.3367 -49.4293
v  17.8397 44.8071 -57.1137
v  26.4183 44.8071 -57.1137
v  17.8397 52.9028 -57.1137
v  26.4183 52.9028 -57.1137
v  17.8397 44.8071 -49.4293
v  6.5631 52.9028 -53.5194
v  6.5631 44.8071 -57.1138
v  6.5631 44.8071 -49.4293
v  6.5631 48.9642 -49.4293
v  6.5631 52.9028 -57.1138
v  17.8397 52.9028 -49.4293
v  26.4183 44.8071 -49.4293
v  26.4183 52.9028 -49.4293
v  26.4183 58.4726 -49.4293
v  37.6949 52.9028 -57.1137
v  37.6949 52.9028 -49.4293
v  37.6949 44.8071 -53.5194
v  37.6949 44.8071 -57.1137
v  37.6949 51.1165 -49.4293
v  14.8937 52.9028 -49.4293
v  33.7564 44.8071 -49.4293
# 30 vertices

vn 0.0000 -1.0000 -0.0000
vn 0.0000 1.0000 -0.0000
vn 0.0000 0.0000 -1.0000
vn -1.0000 0.0000 -0.0000
vn 0.0000 0.0000 1.0000
vn 1.0000 0.0000 -0.0000
vn -0.3064 0.6565 0.6893
vn 0.6986 0.4657 0.5432
vn 0.6428 -0.4168 0.6428
# 9 vertex normals

vt 0.3445 0.5311 0.0000
vt 0.3446 0.4986 0.0000
vt 0.3821 0.4988 0.0000
vt 0.3820 0.5311 0.0000
vt 0.5147 0.5837 0.0000
vt 0.4915 0.6216 0.0000
vt 0.4828 0.6214 0.0000
vt 0.4823 0.5841 0.0000
vt 0.5149 0.6040 0.0000
vt 0.3456 0.3726 0.0000
vt 0.3831 0.3729 0.0000
vt 0.3460 0.3372 0.0000
vt 0.3835 0.3375 0.0000
vt 0.3464 0.2872 0.0000
vt 0.3840 0.2876 0.0000
vt 0.5092 0.3991 0.0000
vt 0.4769 0.4006 0.0000
vt 0.4709 0.2749 0.0000
vt 0.5032 0.2734 0.0000
vt 0.4955 0.4846 0.0000
vt 0.4790 0.4498 0.0000
vt 0.5113 0.4485 0.0000
vt 0.5120 0.4666 0.0000
vt 0.4804 0.4850 0.0000
vt 0.4815 0.5342 0.0000
vt 0.5138 0.5336 0.0000
vt 0.3826 0.6568 0.0000
vt 0.3452 0.6572 0.0000
vt 0.3834 0.6922 0.0000
vt 0.3458 0.6926 0.0000
vt 0.3666 0.7424 0.0000
vt 0.3836 0.7166 0.0000
vt 0.3464 0.7426 0.0000
vt 0.4713 0.8046 0.0000
vt 0.5035 0.8073 0.0000
vt 0.4927 0.9327 0.0000
vt 0.4605 0.9300 0.0000
vt 0.4775 0.7204 0.0000
vt 0.5098 0.7223 0.0000
vt 0.4904 0.7567 0.0000
vt 0.4753 0.7556 0.0000
vt 0.4322 0.6831 0.0000
vt 0.4384 0.6513 0.0000
vt 0.4335 0.6906 0.0000
vt 0.5138 0.6486 0.0000
vt 0.5126 0.6730 0.0000
vt 0.4803 0.6712 0.0000
vt 0.2963 0.3721 0.0000
vt 0.2967 0.3367 0.0000
vt 0.2962 0.6762 0.0000
vt 0.3329 0.6928 0.0000
vt 0.2959 0.6580 0.0000
vt 0.5135 0.5207 0.0000
vt 0.4328 0.3380 0.0000
vt 0.4324 0.3734 0.0000
vt 0.4145 0.6559 0.0000
vt 0.5061 0.7753 0.0000
vt 0.2933 0.7004 0.0000
vt 0.3950 0.7495 0.0000
# 59 texture coords

g Box003
s 2
f 39/73/38 40/74/38 41/75/38 42/76/38 
s 4
f 43/77/39 44/78/39 45/79/39 46/80/39 
f 43/77/39 47/81/39 44/78/39 
s 8
f 48/82/40 49/83/40 41/75/40 40/74/40 
f 50/84/40 51/85/40 49/83/40 48/82/40 
f 46/86/40 45/87/40 51/85/40 50/84/40 
s 16
f 52/88/41 48/89/41 40/90/41 39/91/41 
f 53/92/41 54/93/41 55/94/41 56/95/41 
f 54/93/41 53/92/41 57/96/41 
f 43/77/41 46/80/41 50/97/41 58/98/41 
s 32
f 59/99/42 52/100/42 39/73/42 42/76/42 
f 60/101/42 58/102/42 52/100/42 59/99/42 
f 47/103/42 58/102/42 60/101/42 61/104/42 
f 58/102/42 47/103/42 43/105/42 
s 64
f 49/106/43 59/107/43 42/108/43 41/109/43 
f 62/110/43 63/111/43 64/112/43 65/113/43 
f 66/114/43 64/115/43 63/116/43 
f 45/79/43 61/117/43 60/118/43 51/119/43 
f 45/79/43 44/78/43 61/117/43 
s off
f 54/120/40 57/121/40 50/84/40 48/82/40 
f 55/94/38 54/93/38 48/89/38 52/88/38 
f 56/122/42 52/100/42 58/102/42 67/123/42 
f 52/100/42 56/122/42 55/124/42 
f 57/96/39 67/125/39 58/98/39 50/97/39 
f 57/96/39 53/92/39 67/125/39 
f 62/126/40 65/127/40 49/83/40 51/85/40 
f 63/111/39 62/110/39 51/119/39 60/118/39 
f 66/114/42 60/101/42 59/99/42 68/128/42 
f 60/101/42 66/114/42 63/116/42 
f 65/113/38 68/129/38 59/107/38 49/106/38 
f 65/113/38 64/112/38 68/129/38 
f 67/123/44 53/130/44 56/122/44 
f 44/131/45 47/103/45 61/104/45 
f 68/128/46 64/115/46 66/114/46 
# 22 polygons - 12 triangles

#
# object Cone001
#

v  14.7848 16.0413 -45.6446
v  14.7848 16.0413 -60.8983
v  11.6420 0.0000 -64.1620
v  11.6420 0.0000 -42.3809
v  24.6286 16.0413 -45.6446
v  32.6161 0.0000 -42.3809
v  30.3879 11.3727 -44.6948
v  29.4733 16.0413 -60.8983
v  32.6161 0.0000 -64.1620
v  29.4733 16.0413 -50.6756
# 10 vertices

vn -0.6680 0.2631 0.6961
vn -0.6598 0.2606 -0.7048
vn 0.0000 0.1961 0.9806
vn 0.6706 0.2629 0.6937
vn 0.6590 0.2622 -0.7050
vn 0.9793 0.2026 -0.0000
vn 0.0000 -1.0000 -0.0000
vn 0.0000 1.0000 -0.0000
vn 0.4898 0.7094 0.5067
# 9 vertex normals

vt 0.5389 0.2514 0.0000
vt 0.4923 0.2071 0.0000
vt 0.5317 0.1459 0.0000
vt 0.5981 0.2091 0.0000
vt 0.3571 0.1906 0.0000
vt 0.2728 0.1535 0.0000
vt 0.3547 0.1108 0.0000
vt 0.3659 0.1603 0.0000
vt 0.3186 0.2105 0.0000
vt 0.4325 0.1834 0.0000
vt 0.4468 0.1116 0.0000
vt 0.3877 0.1832 0.0000
vt 0.4473 0.0199 0.0000
vt 0.3556 0.0191 0.0000
vt 0.4238 0.2056 0.0000
vt 0.3356 0.2273 0.0000
vt 0.3905 0.2606 0.0000
# 17 texture coords

g Cone001
s 8
f 69/132/47 70/133/48 71/134/48 72/135/47 
f 73/136/49 72/137/47 74/138/50 75/139/50 
f 72/137/47 73/136/49 69/140/47 
f 76/141/51 75/139/50 74/138/50 77/142/51 
f 76/141/51 78/143/52 75/139/50 
f 70/133/48 76/141/51 77/142/51 71/134/48 
s 1
f 71/144/53 77/142/53 74/138/53 72/145/53 
f 78/143/54 76/146/54 69/147/54 73/136/54 
f 70/148/54 69/147/54 76/146/54 
s off
f 75/139/55 78/143/55 73/136/55 
# 6 polygons - 4 triangles

#
# object Cone002
#

v  4.3378 3.6789 -38.3017
v  42.1517 3.6789 -38.3017
v  44.9503 0.0000 -41.2081
v  1.5391 0.0000 -41.2081
v  4.3378 3.6789 38.3017
v  1.5391 0.0000 41.2081
v  42.1517 3.6789 38.3017
v  44.9503 0.0000 41.2081
# 8 vertices

vn -0.4752 0.7235 -0.5008
vn 0.4946 0.7146 -0.4946
vn -0.4752 0.7235 0.5008
vn 0.4946 0.7146 0.4946
vn 0.0000 -1.0000 -0.0000
vn 0.0000 1.0000 -0.0000
# 6 vertex normals

vt 0.5657 0.9673 0.0000
vt 0.7310 0.9647 0.0000
vt 0.7436 0.9847 0.0000
vt 0.5538 0.9877 0.0000
vt 0.5607 0.6448 0.0000
vt 0.5457 0.9798 0.0000
vt 0.5403 0.6329 0.0000
vt 0.7260 0.6422 0.0000
vt 0.5482 0.6248 0.0000
vt 0.7380 0.6218 0.0000
vt 0.7461 0.6297 0.0000
vt 0.7514 0.9766 0.0000
vt 0.7382 0.2560 0.0000
vt 0.7337 0.6029 0.0000
vt 0.5439 0.6005 0.0000
vt 0.5484 0.2535 0.0000
# 16 texture coords

g Cone002
s 8
f 79/149/56 80/150/57 81/151/57 82/152/56 
f 83/153/58 79/149/56 82/154/56 84/155/58 
f 85/156/59 83/153/58 84/157/58 86/158/59 
f 80/150/57 85/156/59 86/159/59 81/160/57 
s 1
f 81/161/60 86/162/60 84/163/60 82/164/60 
f 85/156/61 80/150/61 79/149/61 83/153/61 
# 6 polygons

