# 3ds Max Wavefront OBJ Exporter v0.97b - (c)2007 guruware
# File Created: 10.04.2014 20:17:52

#
# object TrashBin01
#

v  23.2316 61.5984 4.6357
v  23.2316 56.4146 -9.6066
v  14.1940 56.4146 -9.6066
v  14.1940 61.5984 4.6357
v  23.2316 43.2889 -17.1847
v  14.1940 43.2889 -17.1847
v  23.2316 43.2889 26.5024
v  23.2316 56.4146 18.8779
v  14.1940 56.4146 18.8779
v  14.1940 43.2889 26.4560
v  -13.8642 56.4146 -9.6066
v  -13.8642 61.5984 4.6357
v  -13.8642 43.2889 -17.1847
v  14.1940 37.4545 16.3506
v  14.1940 37.5077 8.7724
v  -13.8642 37.5077 8.7724
v  -13.8642 37.4545 16.3506
v  -13.8642 56.4146 18.8779
v  -22.9018 56.4146 -9.6066
v  -22.9018 61.5984 4.6357
v  -22.9043 43.2889 -17.1847
v  -13.8642 43.2889 26.4560
v  -22.9018 56.4146 18.8779
v  -22.9043 43.2889 26.5024
v  -13.8642 0.0178 26.4560
v  -22.9043 0.0178 26.5024
v  -22.9043 29.9924 -17.1847
v  14.1940 0.0178 26.4560
v  23.2316 0.0178 26.5024
v  -13.8642 29.9924 -17.1847
v  14.1940 29.9924 -17.1847
v  23.2316 29.9924 -17.1847
v  -23.1160 0.2046 -17.3964
v  -23.1181 0.2046 -13.4112
v  -23.1181 39.9582 -13.4112
v  -23.1160 39.9582 -17.3964
v  -19.1815 39.9582 -17.3961
v  -19.1815 0.2046 -17.3961
v  -22.9043 0.2046 -17.1847
v  -22.9043 0.2046 -13.4112
v  -22.9043 39.9582 -13.4112
v  -22.9043 39.9582 -17.1847
v  -19.1815 39.9582 -17.1847
v  -19.1815 0.2046 -17.1847
v  23.4433 0.2046 -17.3964
v  23.4433 39.9582 -17.3964
v  23.4454 39.9582 -13.4112
v  23.4454 0.2046 -13.4112
v  19.5089 0.2046 -17.3961
v  19.5089 39.9582 -17.3961
v  23.2316 0.2046 -17.1847
v  23.2316 0.2046 -13.4112
v  23.2316 39.9582 -13.4112
v  23.2316 39.9582 -17.1847
v  19.5089 39.9582 -17.1847
v  19.5089 0.2046 -17.1847
# 56 vertices

vn 0.0000 1.0000 0.0000
vn 0.0000 0.7660 -0.6428
vn 0.0000 0.2588 -0.9659
vn -0.0042 0.2590 0.9659
vn 0.0000 0.7669 0.6418
vn -0.0005 0.8382 0.5454
vn -0.0033 0.1721 0.9851
vn 0.0000 0.9668 -0.2554
vn 0.0000 1.0000 0.0070
vn 0.0000 0.8379 0.5458
vn 0.0028 0.1726 0.9850
vn 0.0008 0.7663 0.6425
vn 0.0050 0.2599 0.9656
vn 1.0000 0.0000 -0.0000
vn -1.0000 0.0001 0.0000
vn -1.0000 0.0002 -0.0001
vn -1.0000 0.0001 -0.0000
vn -1.0000 0.0002 0.0000
vn -0.0013 -0.8244 -0.5660
vn -0.0029 -0.8246 -0.5658
vn -0.0001 -0.8244 -0.5660
vn 0.0020 -0.8235 -0.5673
vn 0.0016 -0.8238 -0.5669
vn 0.0000 -0.8246 -0.5658
vn 0.0000 0.0000 -1.0000
vn -0.0026 0.0000 1.0000
vn -0.0051 0.0000 1.0000
vn 0.0026 0.0000 1.0000
vn 0.0051 0.0000 1.0000
vn -1.0000 0.0000 -0.0000
vn -1.0000 0.0000 -0.0005
vn 0.0001 0.0000 -1.0000
vn 0.0000 -1.0000 -0.0000
vn 0.0000 0.0000 1.0000
vn 0.0000 1.0000 -0.0000
vn 1.0000 0.0000 -0.0005
vn -0.0001 0.0000 -1.0000
vn 0.0000 -0.4714 0.8819
vn 0.0000 0.8660 -0.5000
# 39 vertex normals

vt 0.4024 0.6248 0.0000
vt 0.4032 0.7509 0.0000
vt 0.3282 0.7513 0.0000
vt 0.3274 0.6253 0.0000
vt 0.4039 0.8769 0.0000
vt 0.3289 0.8773 0.0000
vt 0.4010 0.3727 0.0000
vt 0.4017 0.4988 0.0000
vt 0.3267 0.4992 0.0000
vt 0.3260 0.3732 0.0000
vt 0.0952 0.7527 0.0000
vt 0.0945 0.6266 0.0000
vt 0.0960 0.8786 0.0000
vt 0.9129 0.2867 0.0000
vt 0.8651 0.2888 0.0000
vt 0.8576 0.1126 0.0000
vt 0.9051 0.1105 0.0000
vt 0.0938 0.5005 0.0000
vt 0.0202 0.7531 0.0000
vt 0.0195 0.6270 0.0000
vt 0.0209 0.8791 0.0000
vt 0.0930 0.3745 0.0000
vt 0.0188 0.5010 0.0000
vt 0.0180 0.3748 0.0000
vt 0.9853 0.8155 0.0000
vt 0.9773 0.9114 0.0000
vt 0.9096 0.9796 0.0000
vt 0.9298 0.7369 0.0000
vt 0.8138 0.9887 0.0000
vt 0.5762 0.2416 0.0000
vt 0.6644 0.2798 0.0000
vt 0.7075 0.3658 0.0000
vt 0.4840 0.2691 0.0000
vt 0.4308 0.3492 0.0000
vt 0.4439 0.6722 0.0000
vt 0.4142 0.6231 0.0000
vt 0.7025 0.4502 0.0000
vt 0.5354 0.8248 0.0000
vt 0.5645 0.8740 0.0000
vt 0.7321 0.4995 0.0000
vt 0.8236 0.6523 0.0000
vt 0.8531 0.7015 0.0000
vt 0.4045 0.9873 0.0000
vt 0.3295 0.9878 0.0000
vt 0.3240 0.0139 0.0000
vt 0.3990 0.0135 0.0000
vt 0.0911 0.0152 0.0000
vt 0.0160 0.0156 0.0000
vt 0.0966 0.9891 0.0000
vt 0.0215 0.9895 0.0000
vt 0.4678 0.0740 0.0000
vt 0.4677 0.0490 0.0000
vt 0.7176 0.0481 0.0000
vt 0.7177 0.0732 0.0000
vt 0.7178 0.0979 0.0000
vt 0.4680 0.0988 0.0000
vt 0.4665 0.0727 0.0000
vt 0.4664 0.0490 0.0000
vt 0.4677 0.0476 0.0000
vt 0.7176 0.0468 0.0000
vt 0.7190 0.0481 0.0000
vt 0.7191 0.0718 0.0000
vt 0.7191 0.0745 0.0000
vt 0.7192 0.0979 0.0000
vt 0.7178 0.0992 0.0000
vt 0.4680 0.1001 0.0000
vt 0.4666 0.0988 0.0000
vt 0.4665 0.0754 0.0000
vt 0.8746 0.3540 0.0000
vt 0.8754 0.6039 0.0000
vt 0.8504 0.6039 0.0000
vt 0.8496 0.3541 0.0000
vt 0.8993 0.3540 0.0000
vt 0.9001 0.6039 0.0000
vt 0.8733 0.3527 0.0000
vt 0.8496 0.3527 0.0000
vt 0.8482 0.3541 0.0000
vt 0.8490 0.6039 0.0000
vt 0.8503 0.6053 0.0000
vt 0.8741 0.6052 0.0000
vt 0.8767 0.6052 0.0000
vt 0.9001 0.6052 0.0000
vt 0.9015 0.6039 0.0000
vt 0.9007 0.3540 0.0000
vt 0.8993 0.3527 0.0000
vt 0.8759 0.3527 0.0000
vt 0.9862 0.2833 0.0000
vt 0.9909 0.3783 0.0000
vt 0.8731 0.3129 0.0000
vt 0.7304 0.2943 0.0000
vt 0.7231 0.1181 0.0000
vt 0.9740 0.0120 0.0000
vt 0.9783 0.1072 0.0000
vt 0.8629 0.0883 0.0000
vt 0.7179 0.1226 0.0000
vt 0.4680 0.1235 0.0000
vt 0.4676 0.0239 0.0000
vt 0.7175 0.0231 0.0000
vt 0.9240 0.3539 0.0000
vt 0.9249 0.6038 0.0000
vt 0.8253 0.6040 0.0000
vt 0.8245 0.3541 0.0000
# 102 texture coords

g TrashBin01
s 1
f 1/1/1 2/2/2 3/3/2 4/4/1 
f 2/2/2 5/5/3 6/6/3 3/3/2 
f 7/7/4 8/8/5 9/9/6 10/10/7 
f 8/8/5 1/1/1 4/4/1 9/9/6 
f 4/4/1 3/3/2 11/11/2 12/12/1 
f 3/3/2 6/6/3 13/13/3 11/11/2 
s 2
f 14/14/8 15/15/9 16/16/9 17/17/8 
s 1
f 9/9/6 4/4/1 12/12/1 18/18/10 
f 12/12/1 11/11/2 19/19/2 20/20/1 
f 11/11/2 13/13/3 21/21/3 19/19/2 
f 22/22/11 18/18/10 23/23/12 24/24/13 
f 18/18/10 12/12/1 20/20/1 23/23/12 
s 2
f 2/25/14 1/26/14 8/27/14 5/28/14 
f 7/29/14 5/28/14 8/27/14 
f 20/30/15 19/31/16 21/32/17 23/33/18 
f 24/34/17 23/33/18 21/32/17 
s 4
f 25/35/19 26/36/20 27/37/21 28/38/22 
f 29/39/23 28/38/22 27/37/21 30/40/24 
f 29/39/23 30/40/24 31/41/24 32/42/24 
s 1
f 6/6/3 5/5/3 32/43/25 31/44/25 
s 2
f 5/28/14 7/29/14 29/39/14 32/42/14 
s 1
f 7/7/4 10/10/7 28/45/26 29/46/27 
f 10/10/7 22/22/11 25/47/28 28/45/26 
f 22/22/11 24/24/13 26/48/29 25/47/28 
s 2
f 24/34/17 21/32/17 27/37/30 26/36/30 
s 1
f 21/21/3 13/13/3 30/49/25 27/50/25 
f 13/13/3 6/6/3 31/44/25 30/49/25 
f 33/51/31 34/52/31 35/53/31 36/54/31 
s 2
f 33/51/32 36/54/32 37/55/32 38/56/32 
s 4
f 39/57/33 40/58/33 34/52/33 33/51/33 
s 2
f 40/59/34 41/60/34 35/53/34 34/52/34 
s 4
f 41/61/35 42/62/35 36/54/35 35/53/35 
f 42/63/35 43/64/35 37/55/35 36/54/35 
s 1
f 43/65/14 44/66/14 38/56/14 37/55/14 
s 4
f 44/67/33 39/68/33 33/51/33 38/56/33 
s 1
f 45/69/36 46/70/36 47/71/36 48/72/36 
s 2
f 45/69/37 49/73/37 50/74/37 46/70/37 
s 4
f 51/75/33 45/69/33 48/72/33 52/76/33 
s 2
f 52/77/34 48/72/34 47/71/34 53/78/34 
s 4
f 53/79/35 47/71/35 46/70/35 54/80/35 
f 54/81/35 46/70/35 50/74/35 55/82/35 
s 1
f 55/83/30 50/74/30 49/73/30 56/84/30 
s 4
f 56/85/33 49/73/33 45/69/33 51/86/33 
f 10/87/30 9/88/30 15/89/30 14/14/30 
s 8
f 9/90/38 18/91/38 16/16/38 15/15/38 
s 4
f 18/92/14 22/93/14 17/17/14 16/94/14 
s 2
f 22/93/39 10/87/39 14/14/8 17/17/8 
f 44/66/34 43/65/34 42/95/34 39/96/34 
s 1
f 39/97/14 42/98/14 41/60/14 40/59/14 
s 2
f 56/84/34 51/99/34 54/100/34 55/83/34 
s 1
f 54/101/30 51/102/30 52/77/30 53/78/30 
# 49 polygons - 2 triangles

