# 3ds Max Wavefront OBJ Exporter v0.97b - (c)2007 guruware
# File Created: 25.03.2014 17:09:39

#
# object WorldMesh
#

v  -75.7576 0.0000 500.0000
v  0.0000 0.0000 500.0000
v  -500.0000 0.0000 -0.0000
v  -500.0000 0.0000 75.7576
v  -500.0000 1.8629 90.9091
v  -90.9091 1.8629 500.0000
v  -500.0000 9.3500 106.0606
v  -106.0606 9.3500 500.0000
v  -500.0000 21.5276 121.2121
v  -121.2121 21.5276 500.0000
v  -500.0000 25.0216 136.3636
v  -136.3636 25.0216 500.0000
v  -500.0000 25.0216 500.0000
v  -500.0000 -0.8621 -472.2704
v  472.2704 -0.8621 500.0000
v  481.4971 -9.7602 500.0000
v  -500.0000 -9.7602 -481.4971
v  463.0437 0.0000 500.0000
v  -500.0000 0.0000 -463.0437
v  500.0000 -14.2135 500.0000
v  -500.0000 -14.2135 -500.0000
v  -500.0000 -13.5661 -490.7238
v  490.7237 -13.5661 500.0000
v  75.7576 0.0000 -500.0000
v  0.0000 0.0000 -500.0000
v  500.0000 0.0000 -0.0000
v  500.0000 0.0000 -75.7576
v  500.0000 1.8629 -90.9091
v  90.9091 1.8629 -500.0000
v  500.0000 9.3500 -106.0606
v  106.0606 9.3500 -500.0000
v  500.0000 21.5276 -121.2121
v  121.2121 21.5276 -500.0000
v  500.0000 25.0216 -136.3636
v  136.3636 25.0216 -500.0000
v  500.0000 25.0216 -500.0000
v  500.0000 -0.8621 472.2704
v  -472.2704 -0.8621 -500.0000
v  -481.4971 -9.7602 -500.0000
v  500.0000 -9.7602 481.4971
v  -463.0437 0.0000 -500.0000
v  500.0000 0.0000 463.0437
v  500.0000 -13.5661 490.7238
v  -490.7237 -13.5661 -500.0000
# 44 vertices

vn 0.0306 0.9991 -0.0306
vn 0.0000 1.0000 -0.0000
vn 0.2026 0.9581 -0.2026
vn 0.4460 0.7760 -0.4460
vn 0.4586 0.7612 -0.4586
vn 0.1655 0.9722 -0.1655
vn 0.4696 0.7477 -0.4696
vn 0.4309 0.7929 -0.4309
vn 0.4308 0.7929 -0.4308
vn 0.0696 0.9952 -0.0696
vn 0.0695 0.9952 -0.0695
vn 0.1488 0.9776 -0.1488
vn -0.0306 0.9991 0.0306
vn -0.0000 1.0000 0.0000
vn -0.2026 0.9581 0.2026
vn -0.4460 0.7760 0.4460
vn -0.4586 0.7612 0.4586
vn -0.1655 0.9722 0.1655
vn -0.4696 0.7477 0.4696
vn -0.4309 0.7929 0.4309
vn -0.4308 0.7929 0.4308
vn -0.0696 0.9952 0.0696
vn -0.0695 0.9952 0.0695
vn -0.1488 0.9776 0.1488
# 24 vertex normals

vt 0.4242 0.0000 0.0000
vt 0.5000 0.0000 0.0000
vt 0.0000 0.5000 0.0000
vt 0.0000 0.4242 0.0000
vt 0.0000 0.4091 0.0000
vt 0.4091 0.0000 0.0000
vt 0.0000 0.3939 0.0000
vt 0.3939 0.0000 0.0000
vt 0.0000 0.3788 0.0000
vt 0.3788 0.0000 0.0000
vt 0.0000 0.3636 0.0000
vt 0.3636 0.0000 0.0000
vt 0.0000 0.0000 0.0000
vt 0.0000 0.9723 0.0000
vt 0.9723 0.0000 0.0000
vt 0.9815 0.0000 0.0000
vt 0.0000 0.9815 0.0000
vt 0.9630 0.0000 0.0000
vt 0.0000 0.9630 0.0000
vt 1.0000 0.0000 0.0000
vt 0.0000 1.0000 0.0000
vt 0.0000 0.9907 0.0000
vt 0.9907 0.0000 0.0000
vt 0.5758 1.0000 0.0000
vt 0.5000 1.0000 0.0000
vt 1.0000 0.5000 0.0000
vt 1.0000 0.5758 0.0000
vt 1.0000 0.5909 0.0000
vt 0.5909 1.0000 0.0000
vt 1.0000 0.6061 0.0000
vt 0.6061 1.0000 0.0000
vt 1.0000 0.6212 0.0000
vt 0.6212 1.0000 0.0000
vt 1.0000 0.6364 0.0000
vt 0.6364 1.0000 0.0000
vt 1.0000 1.0000 0.0000
vt 1.0000 0.0277 0.0000
vt 0.0277 1.0000 0.0000
vt 0.0185 1.0000 0.0000
vt 1.0000 0.0185 0.0000
vt 0.0370 1.0000 0.0000
vt 1.0000 0.0370 0.0000
vt 1.0000 0.0093 0.0000
vt 0.0093 1.0000 0.0000
# 44 texture coords

g WorldMesh
s 1
f 1/1/1 2/2/2 3/3/2 4/4/1 
f 1/1/1 4/4/1 5/5/3 6/6/3 
f 6/6/3 5/5/3 7/7/4 8/8/4 
f 8/8/4 7/7/4 9/9/5 10/10/5 
f 10/10/5 9/9/5 11/11/6 12/12/6 
f 11/11/6 13/13/2 12/12/6 
f 14/14/7 15/15/7 16/16/8 17/17/9 
f 3/3/2 2/2/2 18/18/10 19/19/10 
f 19/19/10 18/18/10 15/15/7 14/14/7 
f 20/20/11 21/21/11 22/22/12 23/23/12 
f 23/23/12 22/22/12 17/17/9 16/16/8 
f 24/24/13 25/25/14 26/26/14 27/27/13 
f 24/24/13 27/27/13 28/28/15 29/29/15 
f 29/29/15 28/28/15 30/30/16 31/31/16 
f 31/31/16 30/30/16 32/32/17 33/33/17 
f 33/33/17 32/32/17 34/34/18 35/35/18 
f 34/34/18 36/36/2 35/35/18 
f 37/37/19 38/38/19 39/39/20 40/40/21 
f 26/26/14 25/25/14 41/41/22 42/42/22 
f 42/42/22 41/41/22 38/38/19 37/37/19 
f 21/21/23 20/20/23 43/43/24 44/44/24 
f 44/44/24 43/43/24 40/40/21 39/39/20 
# 20 polygons - 2 triangles

