# 3ds Max Wavefront OBJ Exporter v0.97b - (c)2007 guruware
# File Created: 25.03.2014 19:47:21

#
# object WorldMesh
#

v  -75.7576 0.0000 500.0000
v  0.0000 0.0000 500.0000
v  -500.0000 0.0000 0.0098
v  -500.0000 0.0000 75.7674
v  -500.0000 1.8629 90.9189
v  -91.9643 1.8629 500.0000
v  -500.0000 6.9985 101.7660
v  -110.4512 6.9985 500.0000
v  -500.0000 14.0102 121.2220
v  -118.8545 14.0102 500.0000
v  -500.0000 17.7962 140.7158
v  -129.6510 17.7962 500.0000
v  -500.0000 17.7962 500.0000
v  -500.0000 -0.5121 -470.5844
v  476.8883 -0.5121 500.0000
v  483.3813 -3.6142 500.0000
v  -500.0000 -3.6142 -477.7578
v  471.7747 0.0000 500.0000
v  -500.0000 0.0000 -463.0437
v  500.0000 -14.2135 500.0000
v  -500.0000 -14.2135 -500.0000
v  -500.0000 -12.3498 -490.7000
v  490.7237 -12.3498 500.0000
v  75.7576 0.0000 -500.0000
v  0.0000 0.0000 -500.0000
v  500.0000 0.0000 -0.0098
v  500.0000 0.0000 -75.7674
v  500.0000 1.8629 -90.9189
v  91.9643 1.8629 -500.0000
v  500.0000 6.9985 -101.7660
v  110.4512 6.9985 -500.0000
v  500.0000 14.0102 -121.2220
v  118.8545 14.0102 -500.0000
v  500.0000 17.7962 -140.7158
v  129.6510 17.7962 -500.0000
v  500.0000 17.7962 -500.0000
v  500.0000 -0.5121 470.5844
v  -476.8883 -0.5121 -500.0000
v  -483.3813 -3.6142 -500.0000
v  500.0000 -3.6142 477.7578
v  -471.7747 0.0000 -500.0000
v  500.0000 0.0000 463.0437
v  500.0000 -12.3498 490.7000
v  -490.7237 -12.3498 -500.0000
# 44 vertices

vn 0.0287 0.9992 -0.0286
vn 0.0000 1.0000 -0.0000
vn -0.0000 1.0000 -0.0000
vn 0.0306 0.9991 -0.0306
vn 0.1987 0.9598 -0.1984
vn 0.1526 0.9767 -0.1509
vn 0.3758 0.8483 -0.3731
vn 0.3509 0.8694 -0.3478
vn 0.2933 0.9115 -0.2883
vn 0.4823 0.7279 -0.4874
vn 0.1401 0.9800 -0.1410
vn 0.2399 0.9388 -0.2472
vn 0.2955 0.9079 -0.2972
vn 0.3254 0.8870 -0.3276
vn 0.5544 0.6178 -0.5577
vn 0.4564 0.7634 -0.4570
vn 0.0746 0.9944 -0.0750
vn 0.0502 0.9975 -0.0506
vn 0.1933 0.9619 -0.1933
vn 0.1928 0.9621 -0.1928
vn 0.2847 0.9154 -0.2847
vn 0.3464 0.8713 -0.3476
vn -0.0287 0.9992 0.0286
vn -0.0000 1.0000 0.0000
vn 0.0000 1.0000 0.0000
vn -0.0306 0.9991 0.0306
vn -0.1987 0.9598 0.1984
vn -0.1526 0.9767 0.1509
vn -0.3758 0.8483 0.3731
vn -0.3509 0.8694 0.3478
vn -0.2933 0.9115 0.2883
vn -0.4823 0.7279 0.4874
vn -0.1401 0.9800 0.1410
vn -0.2399 0.9388 0.2472
vn -0.2955 0.9079 0.2972
vn -0.3254 0.8870 0.3276
vn -0.5544 0.6178 0.5577
vn -0.4564 0.7634 0.4570
vn -0.0746 0.9944 0.0750
vn -0.0502 0.9975 0.0506
vn -0.1933 0.9619 0.1933
vn -0.1928 0.9621 0.1928
vn -0.2847 0.9154 0.2847
vn -0.3464 0.8713 0.3476
# 44 vertex normals

vt 0.4242 0.0000 0.0000
vt 0.5000 0.0000 0.0000
vt 0.0000 0.5000 0.0000
vt 0.0000 0.4242 0.0000
vt 0.0000 0.4091 0.0000
vt 0.4080 0.0000 0.0000
vt 0.0000 0.3982 0.0000
vt 0.3895 0.0000 0.0000
vt 0.0000 0.3788 0.0000
vt 0.3811 0.0000 0.0000
vt 0.0000 0.3593 0.0000
vt 0.3703 0.0000 0.0000
vt 0.0000 0.0000 0.0000
vt 0.0000 0.9706 0.0000
vt 0.9769 0.0000 0.0000
vt 0.9834 0.0000 0.0000
vt 0.0000 0.9778 0.0000
vt 0.9718 0.0000 0.0000
vt 0.0000 0.9630 0.0000
vt 1.0000 0.0000 0.0000
vt 0.0000 1.0000 0.0000
vt 0.0000 0.9907 0.0000
vt 0.9907 0.0000 0.0000
vt 0.5758 1.0000 0.0000
vt 0.5000 1.0000 0.0000
vt 1.0000 0.5000 0.0000
vt 1.0000 0.5758 0.0000
vt 1.0000 0.5909 0.0000
vt 0.5920 1.0000 0.0000
vt 1.0000 0.6018 0.0000
vt 0.6105 1.0000 0.0000
vt 1.0000 0.6212 0.0000
vt 0.6189 1.0000 0.0000
vt 1.0000 0.6407 0.0000
vt 0.6297 1.0000 0.0000
vt 1.0000 1.0000 0.0000
vt 1.0000 0.0294 0.0000
vt 0.0231 1.0000 0.0000
vt 0.0166 1.0000 0.0000
vt 1.0000 0.0222 0.0000
vt 0.0282 1.0000 0.0000
vt 1.0000 0.0370 0.0000
vt 1.0000 0.0093 0.0000
vt 0.0093 1.0000 0.0000
# 44 texture coords

g WorldMesh
s 1
f 1/1/1 2/2/2 3/3/3 4/4/4 
f 1/1/1 4/4/4 5/5/5 6/6/6 
f 6/6/6 5/5/5 7/7/7 8/8/8 
f 8/8/8 7/7/7 9/9/9 10/10/10 
f 10/10/10 9/9/9 11/11/11 12/12/12 
f 11/11/11 13/13/2 12/12/12 
f 14/14/13 15/15/14 16/16/15 17/17/16 
f 3/3/3 2/2/2 18/18/17 19/19/18 
f 18/18/17 15/15/14 14/14/13 19/19/18 
f 20/20/19 21/21/20 22/22/21 23/23/22 
f 23/23/22 22/22/21 17/17/16 16/16/15 
f 24/24/23 25/25/24 26/26/25 27/27/26 
f 24/24/23 27/27/26 28/28/27 29/29/28 
f 29/29/28 28/28/27 30/30/29 31/31/30 
f 31/31/30 30/30/29 32/32/31 33/33/32 
f 33/33/32 32/32/31 34/34/33 35/35/34 
f 34/34/33 36/36/2 35/35/34 
f 37/37/35 38/38/36 39/39/37 40/40/38 
f 26/26/25 25/25/24 41/41/39 42/42/40 
f 41/41/39 38/38/36 37/37/35 42/42/40 
f 21/21/41 20/20/42 43/43/43 44/44/44 
f 44/44/44 43/43/43 40/40/38 39/39/37 
# 20 polygons - 2 triangles

